<?xml version="1.0" encoding="utf-8"?>
<!-- Generator: Adobe Illustrator 27.0.0, SVG Export Plug-In . SVG Version: 6.00 Build 0)  -->
<svg version="1.1" id="Layer_1" xmlns="http://www.w3.org/2000/svg" xmlns:xlink="http://www.w3.org/1999/xlink" x="0px" y="0px"
	 viewBox="0 0 3000 2000" style="enable-background:new 0 0 3000 2000;" xml:space="preserve">
<style type="text/css">
	.st0{opacity:0.2;fill:#D3D3D3;enable-background:new    ;}
	.st1{fill:#4A75CB;}
	.st2{fill:#AFCDFB;}
	.st3{fill:#D5E7F7;}
	.st4{fill:#A8D29F;}
	.st5{fill:#E49963;}
	.st6{fill:#723B00;}
	.st7{fill:#636363;}
	.st8{fill:#232121;}
	.st9{fill:#D68D5D;}
	.st10{fill:#699DEE;}
	.st11{fill:#FFFFFF;}
	.st12{fill:#1C468A;}
	.st13{fill:#163560;}
	.st14{fill:#273828;}
	.st15{fill:#45634C;}
	.st16{fill:#F1A34F;}
	.st17{fill:#FFB973;}
	.st18{fill:#D86713;}
	.st19{clip-path:url(#SVGID_00000087412697208559865660000008243376908522760621_);fill:#2B2B2B;}
	.st20{clip-path:url(#SVGID_00000180365733252492744610000008257663629985890740_);fill:#EA7878;}
	.st21{clip-path:url(#SVGID_00000102540182121382474870000013045214827454906037_);fill:#A85151;}
	.st22{clip-path:url(#SVGID_00000039829047371310497440000003794514930455733399_);fill:#B65615;}
	.st23{clip-path:url(#SVGID_00000116218089163365499250000011354873038393226153_);fill:#2B2B2B;}
	.st24{clip-path:url(#SVGID_00000052098087386084974120000001032672573396517565_);fill:#233862;}
	.st25{clip-path:url(#SVGID_00000143613855235959370320000016448436559103464590_);fill:#D36E2A;}
	.st26{clip-path:url(#SVGID_00000021810106389351983790000006001555669411109306_);fill:#F59040;}
	.st27{clip-path:url(#SVGID_00000098901971337115739930000004807532016553304251_);fill:#D36E2A;}
	.st28{clip-path:url(#SVGID_00000115508249204524864820000007889456724783922075_);fill:#B65615;}
	.st29{clip-path:url(#SVGID_00000062176653223671143120000005934133513464587659_);fill:#B65615;}
	.st30{clip-path:url(#SVGID_00000121973239716108201860000007078005237535656895_);fill:#B65615;}
	.st31{clip-path:url(#SVGID_00000084529872182431469710000007643356024508208521_);fill:#B65615;}
	.st32{clip-path:url(#SVGID_00000016054920090293658340000013781090163100466355_);fill:#B65615;}
	.st33{clip-path:url(#SVGID_00000121237592013792856680000007323403636864303783_);fill:#B65615;}
	.st34{clip-path:url(#SVGID_00000061446299633892527530000008781104326857895812_);fill:#D36E2A;}
	.st35{clip-path:url(#SVGID_00000068669386359279142970000018014896143031104955_);fill:#D36E2A;}
	.st36{clip-path:url(#SVGID_00000119839034910068622740000012326957951418087321_);fill:#B65615;}
	.st37{clip-path:url(#SVGID_00000040564061787388385690000013453971189235975836_);fill:#B65615;}
	.st38{clip-path:url(#SVGID_00000093890932654500956930000013793962137234152605_);fill:#B65615;}
	.st39{clip-path:url(#SVGID_00000134950850609510538710000000758535432070985896_);fill:#B65615;}
	.st40{clip-path:url(#SVGID_00000026124189774849424010000001276359929981743005_);fill:#B65615;}
	.st41{clip-path:url(#SVGID_00000107555612989405521480000016444884993078405307_);fill:#B65615;}
	.st42{clip-path:url(#SVGID_00000140733489563036314270000014910610126019051916_);fill:#233862;}
	.st43{clip-path:url(#SVGID_00000114786981251018608860000006588965500701264781_);fill:#D57912;}
	.st44{clip-path:url(#SVGID_00000181800992131264041710000001064304565221769636_);fill:#E69D43;}
	.st45{clip-path:url(#SVGID_00000053536874558796212380000017365837519777621420_);fill:#D57912;}
	.st46{clip-path:url(#SVGID_00000170996615958450967920000018360324686337036194_);fill:#DCE7F9;}
	.st47{clip-path:url(#SVGID_00000026861180765152395500000000549070475020635033_);fill:#D23030;}
	.st48{clip-path:url(#SVGID_00000031185031175521007430000001449961030486256815_);fill:#FF5757;}
	.st49{clip-path:url(#SVGID_00000127747038997491453740000001352256383565990564_);fill:#D57912;}
	.st50{clip-path:url(#SVGID_00000116935132103889770280000013849553791915964342_);fill:#D23030;}
	.st51{clip-path:url(#SVGID_00000034059750397526310260000018138931644421124242_);fill:#D23030;}
	.st52{clip-path:url(#SVGID_00000094617282384761420530000013019717749083809981_);fill:#932F2F;}
	.st53{clip-path:url(#SVGID_00000103957622302863073930000002154648775279344780_);fill:#932F2F;}
	.st54{clip-path:url(#SVGID_00000081622558021998103760000009072268390539276946_);fill:#D23030;}
	.st55{clip-path:url(#SVGID_00000085249087898769367410000006618325063393048757_);fill:#932F2F;}
	.st56{clip-path:url(#SVGID_00000065048098700116995440000014812243979030570681_);}
	.st57{fill:#B64C41;}
	.st58{fill:#D57912;}
	.st59{fill:#DCE7F9;}
	.st60{clip-path:url(#SVGID_00000176754445001989542090000011319685837458110087_);fill:#D57912;}
	.st61{fill:#FFB27D;}
	.st62{fill:#D23030;}
	.st63{fill:#F7B284;}
	.st64{fill:#E8A070;}
	.st65{fill:#EFA97A;}
	.st66{fill:#82B378;}
	.st67{fill:#ED7D2B;}
	.st68{fill:#FFB93E;}
	.st69{fill:#FFA412;}
	.st70{fill:#D1F2C9;}
	.st71{fill:#95C38B;}
	.st72{fill:#DB6F26;}
	.st73{fill:#FCECDB;}
	.st74{fill:#F9DDBF;}
	.st75{fill:#ED975D;}
	.st76{fill:#A03C37;}
	.st77{fill:#E69D43;}
	.st78{fill:#FF5757;}
	.st79{fill:#494949;}
	.st80{fill:none;}
	.st81{fill:#EFEFEF;}
</style>
<path class="st0" d="M81.7,1817.3c938.3-0.9,1876.6-1.8,2814.9-2.7c49-202.5,90.3-509.7,97.1-779.9c6.3-249.4,0.2-454-133.2-644.7
	c-53.4-76.3-190.7-234.9-469.6-251.7c-302.4-18.3-372,196.6-724.2,292.1C1146,571.6,870.4,180.1,471,390.7
	c-170.8,90.1-256.3,233.4-325.3,349.2C22.1,973.9-2.7,1165.6,0.2,1303.2C4.8,1518.3,81.7,1817.2,81.7,1817.3L81.7,1817.3z"/>
<path class="st1" d="M2128.6,1816.5h671c17,0,30.9-13.9,30.9-30.9V457c0-17-13.9-30.9-30.9-30.9h-671c-17,0-30.9,13.9-30.9,30.9
	v1328.6C2097.7,1802.6,2111.6,1816.5,2128.6,1816.5z"/>
<path class="st2" d="M2057.5,1816.5h671c17,0,30.9-13.9,30.9-30.9V457c0-17-13.9-30.9-30.9-30.9h-671c-17,0-30.9,13.9-30.9,30.9
	v1328.6C2026.7,1802.6,2040.6,1816.5,2057.5,1816.5z"/>
<path class="st1" d="M2285.7,478.8h190.5c4.1,0,7.4,3.3,7.4,7.4s-3.3,7.4-7.4,7.4h-190.5c-4.1,0-7.4-3.3-7.4-7.4
	C2278.2,482.1,2281.6,478.8,2285.7,478.8z"/>
<path class="st1" d="M2510,478.8c4.1,0,7.4,3.3,7.4,7.4s-3.3,7.4-7.4,7.4c-4.1,0-7.4-3.3-7.4-7.4
	C2502.5,482.1,2505.9,478.8,2510,478.8z"/>
<path class="st1" d="M2431.8,1739.6c0-26.4-21.4-47.8-47.8-47.8c-26.4,0-47.8,21.4-47.8,47.8s21.4,47.8,47.8,47.8
	C2410.4,1787.4,2431.8,1766,2431.8,1739.6z"/>
<rect x="2089.2" y="536.4" class="st3" width="609.2" height="1124.5"/>
<rect x="2089.2" y="1530.5" class="st3" width="609.2" height="130.5"/>
<path class="st4" d="M312.6,1410.8c52.1,8.6,27.3,84,106.7,189.3c57.4,76.1,183.4-62.9,247.9,15.2c56.1,67.9-20.6,199.7-20.6,199.7
	H308.4C149.6,1671.3,269.2,1403.7,312.6,1410.8z"/>
<g>
	<g>
		<path class="st5" d="M758.6,1721.6c1.7,2.7,4.2,3.7,7.2,3.6l0,0c5.6-0.3,13.1-4.7,20.8-10c1-0.7,1.9-1.3,2.7-1.8
			c0.2-0.1,0.4-0.3,0.6-0.4c0.2-0.1,0.3-0.2,0.5-0.3c8-4.7,8.7-1.9,24.5-9.9c18-9.2,21-18.4,20.6-21.4c-0.4-2.6-9.2-0.3-19,2.2
			c-0.5,0.1-1,0.2-1.4,0.4c-1.3,0.3-2.6,0.7-3.9,1c-11.8,2.9-16-0.1-30.5-6c-11.8-4.8-62-39.2-62-39.2l-12.2,24.4
			c0,0,41.9,21.1,46.2,31.7c2.3,5.7,0.8,10.8,2.1,16c0.1,0.4,0.2,0.7,0.3,1.1C755.9,1715.8,756.9,1718.9,758.6,1721.6z"/>
		<path class="st6" d="M758.6,1721.6c1.7,2.7,4.2,3.7,7.2,3.6l0,0c5.7-0.7,13.1-4.9,20.8-10c1-0.7,1.9-1.2,2.8-1.8
			c0.2-0.1,0.4-0.3,0.6-0.4c0.2-0.1,0.3-0.2,0.5-0.3c8-4.7,8.7-1.9,24.5-9.9c18-9.2,21-18.4,20.6-21.4c-0.4-2.6-9.2-0.3-19,2.2
			c-1.7,2.3-10.3,13-24.8,18.6c-12.7,5-27.6,6.4-37,9.6c0.1,0.4,0.2,0.7,0.3,1.1C755.9,1715.8,756.9,1718.9,758.6,1721.6z"/>
		<path class="st5" d="M718.6,1808.7c1.2,8.4,13.1,7.6,26.4,5.1c13.4-2.5,10,1.1,28.9,0.1c18.9-1.1,24.9-7.8,25.7-10.5
			c0.6-2.4-8.6-3.8-18.5-5.5c-1.2-0.2-2.5-0.4-3.7-0.7c-11.2-2-19-9.7-28.9-16.2c-9.4-6.2-22.5-29.9-22.5-29.9l-25.8,0.7
			c0,0,12.4,21.2,17.1,30.4c2.8,5.4,2.3,12.3,1.6,17.7C718.5,1802.8,718.1,1805.8,718.6,1808.7z"/>
		<path class="st6" d="M744.8,1814.8c13.4-2.1,10,1.5,28.9,1s25.2-10.1,26-12.8c0.7-2.4-4.7-3.1-14.5-5.1l-3.9-0.8
			c0,0-12,10.1-27.6,9.2c-12.7-0.8-25.9-5.6-34.7-6.2c-0.4,2.9-0.9,5.8-0.6,8.8C719.5,1817.2,731.4,1816.9,744.8,1814.8z"/>
		<path class="st5" d="M666.1,1421.2c0,0,6.1-15,12.9-15.7c6.8-0.6,28.2-4,29.8-0.9c1.5,3.1,0,14.1-4.6,18.1s-33.2,10.4-33.2,10.4
			L666.1,1421.2z"/>
		<path class="st7" d="M618.7,1556.4l127.1,96.3c0,0-1.7,8.4-6.3,15.6c-4.2,6.6-12.2,13.2-12.2,13.2s-133.5-54.6-154.8-87.4
			C551.3,1561.3,618.7,1556.4,618.7,1556.4z"/>
		<path class="st7" d="M409.9,1558.9c0,0,162.7-39.5,197.6-26.1s130.3,231.4,130.3,231.4s-2.6,3.1-9.3,5.2c-6.2,2-21,1-21,1
			s-91.9-87.7-102.1-112.4c-10.2-24.7-13.5-47.9-25.1-46.2c-11.6,1.7-150.9,48.2-180.2,14.5c-29.2-33.8-18.9-75-18.9-75
			L409.9,1558.9z"/>
		<path class="st8" d="M502.5,1323.4c2.5-5.3,5.4-14.6,6.8-31.3c-0.2,1.7-3.1,22.7-11.2,34.6c-33.2,21.8-96.8,94.6-95.6,108.3
			c0,0-22.4-38-22.8-38.2c0,0-41.3-52.6,7.7-82.7c24.9-15.3,24.8-34.9,23.7-52c-1-17.1,6.8-90.5,56.7-71.3c0,0,8-3.6,11.6-3
			c0,0-2.9,0.6-4.4,2.1c5.8-0.3,14,0.1,20.9,4C514.3,1204.3,530.6,1297.6,502.5,1323.4z"/>
		<path class="st5" d="M496.2,1327.8c0.2,0.1-16,8.5-28.2,5.2c-11.5-3.1-18.9-18-18.8-18c4.9-1,6.3-7.6,6.1-36.3l2.2,0.4l36.9,7.3
			c0,0-0.8,11.6-0.9,22.5C493.5,1318.1,494.1,1326.8,496.2,1327.8z"/>
		<path class="st9" d="M494.4,1286.4c0,0-0.8,11.6-0.9,22.5c-20.6-0.6-31.5-19.4-36-29.8L494.4,1286.4z"/>
		<path class="st8" d="M453.7,1275.1c0,0-10.8-17.1-13.4-31.7c-1.9-10.4,3.5-49.1,42.3-43.5c0,0,11.3,1.1,21.9,8.3
			c8.4,5.7,20.6,18,7,51.7l-3.5,11.4L453.7,1275.1z"/>
		<path class="st5" d="M501.3,1296.8c0,0-48.8,0.8-48.9-29.6c0-30.4-6.4-50.8,24.8-52.6c31.2-1.8,37.2,9.8,39.7,19.9
			C519.5,1244.6,514,1295.8,501.3,1296.8z"/>
		<path class="st8" d="M455.2,1220.2c0,0,33.3-22.8,43.9-7c3.2-2.7,8.9-4.7,16.4,4.4c11.3,13.7,1.2,38,1.2,38
			c-4.6,0.5-5.7-15.4-8.2-23.1c-1.8-5.8-8-11.8-10.9-14.4c-4.3,9.6-16,32.6-32.1,36.7c-20.5,5.3-29.4-0.2-29.4-0.2
			S451.9,1242,455.2,1220.2z"/>
		<path class="st10" d="M367.6,1575.3c2.6,7.3,10.7,9.2,21.5,7.9c20.6-2.4,51.3-16.3,73.4-25.9c33.7-14.6,49-0.9,59.7-10.2
			c10.7-9.3-12.2-30,7.7-125.9c6.8-32.5-36-102.3-36-102.3s-3,18.9-44.6-4c-0.2-0.1-17.6,23-33.1,52.4
			c-17.1,32.4-33.5,71.6-28.7,91.8C396.7,1497.7,359.9,1554.1,367.6,1575.3z"/>
		<path class="st10" d="M493.9,1319l25.2,103.5c0,0,3.1,5.6,8.1,13.5c11.6,18.7,32.9,50.4,46.6,53.6c6.8,1.6,21.1-4,37-12.1
			c30-15.2,65.6-39,65.6-39c2.3-13.8-9.7-25-9.7-25s-72,27-79.1,27.6c-15.6,1.1-31.4-74.1-46-99.1C531,1324,493.9,1319,493.9,1319z"
			/>
		<path class="st11" d="M490.5,1278.3c0,0,0.9,3.9,10.5,3.3c0,0,8.1-0.5,7.8-4.7C508.8,1276.8,501,1273.8,490.5,1278.3z"/>
		<path class="st1" d="M367.6,1575.3c2.6,7.3,10.7,9.2,21.5,7.9c14.3-6.2,76-30.1,75.3-46.3c-1-24-11.9-24.7-4.2-54.4
			c6.1-23.8-50.9-68-60-77.6c-17.1,32.4-17.6,34-12.8,54.2C396.7,1497.7,359.9,1554.1,367.6,1575.3z"/>
		<path class="st1" d="M525.6,1444.3c11.6,18.7,34.5,42.2,48.2,45.4c6.8,1.6,21.1-4,37-12.1c-11.6,3-22.9,2.9-33.8,1.9
			c-11.9-1.1-15.3-15.7-34.1-37.5C530.7,1427.8,527,1428.6,525.6,1444.3z"/>
		<path class="st5" d="M470,1482c0,0,10.3-8,20.1-6.1c9.8,1.9,14.5,8.6,14.2,11.7c-0.4,3.1-5.6,11.7-13,12.4
			c-7.5,0.8-28.7-4.6-28.7-4.6L470,1482z"/>
		<path class="st10" d="M449.2,1314.9c0,0-39.8,2.5-53.6,21.7c-19.4,27-65.9,147.4-43.9,162.7c24.8,17.3,121.1-0.5,121.1-0.5
			s2.9-13.7-1.1-20.3c-4.1-6.6-70.4-17.4-73.5-20.4c-3.1-3.1,38.3-59.7,38.3-68.9C436.5,1380,449.2,1314.9,449.2,1314.9z"/>
	</g>
	<g>
		<g>
			<polygon class="st12" points="480.3,1536.1 626.9,1536.1 653.4,1443.9 507,1443.9 			"/>
			<polygon class="st13" points="627.9,1532.5 434.8,1532.5 434.8,1536.1 626.9,1536.1 			"/>
		</g>
		<path class="st11" d="M580.4,1488.5c0.9-3.2-0.9-5.9-4.2-5.9c-3.2,0-6.6,2.6-7.5,5.9c-0.9,3.2,0.9,5.9,4.2,5.9
			C576.1,1494.3,579.5,1491.7,580.4,1488.5z"/>
	</g>
</g>
<path class="st14" d="M275,1719.2c-10.8-9.6-14.3-20.1-14.3-20.1s18.3-21.3,1.1-34.8c0,0-12.5-7.6-22.7-7c0,0,11.5,17.8,6.8,20.2
	c-4.7,2.4-11.2-21.8-11.2-21.8s-28.5-2.8-37.6,1.6c0,0,24.3,19.9,19.2,21.1s-31.4-18.4-31.4-18.4s-26.5,4.5-25.1,20.7
	s10.5,21.2,14.6,20.7c4-0.4,27.5-9.4,28-6.1s-13.6,14-23.5,14.5c0,0,18.7,20.6,31.1,14.7c12.4-5.9,13.5-15.4,21.2-18.9
	s10.5-1.6,7.3,2s-13.4,5.2-17.8,13c-4.4,7.8-8.4,13.1,4.4,11.2c12.8-1.9,33.7-11.3,34.6-22.1c2.7,0.5,8.2,5.4,12.3,9.3
	c0.6,0.7,1.5,1.6,2.9,2.8c0.6,0.6,1,1,1.3,1.4c8.1,9,12.5,28,12.5,28l2.8-0.3C290.4,1730.6,275,1719.2,275,1719.2z"/>
<g>
	<path class="st15" d="M324.4,1672.3c0,0-29-16.3-15.5-38.3c0,0,10.8-13.5,22.5-17c0,0-6.2,32.9,0,33.7c6.2,0.8,4.3-37.2,4.3-37.2
		s30.6-14.7,42.6-13.5c0,0-19,32.1-12.8,31.4c6.2-0.8,27.5-33.3,27.5-33.3s31.4-5.8,36.4,12.8c5,18.6-3.1,27.9-7.7,29
		c-4.6,1.2-34.5,0.8-33.7,4.6c0.8,3.9,20.9,10.1,32.1,6.6c0,0-12.4,30.6-28.6,29c-16.3-1.5-21.3-11.6-31.4-12.4s-17.4,1.9-12.4,4.6
		s22.1,0.9,30.2,7.8s14.7,11.2-0.4,14.3c-15.1,3.1-42.2,1.2-47.6-10.5C324.4,1672.3,324.4,1672.3,324.4,1672.3z"/>
	<path class="st14" d="M316.7,1700.5c8.1-15.1,7.7-28.3,7.7-28.3c9.3-29.4,90.6-55.7,90.6-55.7c-103.4,41.8-85.2,67.4-85.2,67.4
		c-2.8,1.6-7,9.4-9.9,15.3c-0.4,1-1.1,2.4-2,4.3l0,0c-0.4,0.9-0.7,1.6-0.9,2.1c-5.3,13.3-2.5,36.3-2.5,36.3l-3.2,0.9
		C304.2,1719.6,316.7,1700.5,316.7,1700.5z"/>
</g>
<g>
	<path class="st15" d="M278.2,1649.9c0,0,38.3-21.4,20.4-50.5c0,0-14.3-17.9-29.6-22.5c0,0,8.2,43.4,0,44.4s-5.6-49-5.6-49
		s-40.3-19.4-56.1-17.9c0,0,25,42.4,16.8,41.3c-8.2-1-36.2-43.9-36.2-43.9s-50.5-15-57.1,9.5c-6.6,24.5,13.2,44.1,19.3,45.6
		s45.4,1,44.4,6.1s-27.5,8.6-42.3,4.1c0,0,16.3,44.9,37.7,42.9s28.1-15.3,41.3-16.3c13.3-1,23,2.6,16.3,6.1
		c-6.6,3.6-29.1,1.2-39.8,10.3c-10.7,9.1-19.4,14.7,0.5,18.8c19.9,4.1,55.6,1.5,62.8-13.8C278.2,1649.9,278.2,1649.9,278.2,1649.9z"
		/>
	<path class="st14" d="M158.8,1576.4c0,0,107.2,34.7,119.4,73.5c0,0-0.5,17.3,10.2,37.2c0,0,18.4,26.4,9,56.9l-6.1-2.4
		c0,0,3.7-30.3-3.3-47.9c-0.3-0.6-0.7-1.6-1.2-2.7l0,0c-1.3-2.5-2.1-4.4-2.7-5.7c-3.8-7.8-9.3-18-13-20.2
		C271.1,1665.2,295.1,1631.5,158.8,1576.4z"/>
</g>
<path class="st16" d="M279.5,1810.1c-41.4,0-75-33.6-75-75h149.9C354.5,1776.6,320.9,1810.1,279.5,1810.1z"/>
<path class="st17" d="M261.1,1809.6c3,0.4,6.2,0.6,9.3,0.6c41.4,0,75-33.6,75-75h-18.6C326.7,1773.4,298.1,1805,261.1,1809.6z"/>
<path class="st16" d="M212.8,1806.5h133.5c5.1,0,9.2,4.1,9.2,9.2h-152C203.5,1810.6,207.7,1806.5,212.8,1806.5z"/>
<path class="st18" d="M204,1734h151.8c0.6,0,1.1,0.5,1.1,1.2c0,0.6-0.5,1.1-1.1,1.1H204c-0.6,0-1.1-0.5-1.1-1.1
	C202.9,1734.5,203.4,1734,204,1734z"/>
<g>
	<g>
		<defs>
			<polygon id="SVGID_1_" points="953,1820.4 2241.7,1822 2241.5,1661.2 2698.7,1661.2 2698.7,495.1 953,495.1 			"/>
		</defs>
		<clipPath id="SVGID_00000068657968970231169920000000046394340365800581_">
			<use xlink:href="#SVGID_1_"  style="overflow:visible;"/>
		</clipPath>
		
			<circle style="clip-path:url(#SVGID_00000068657968970231169920000000046394340365800581_);fill:#2B2B2B;" cx="1244.9" cy="1659.4" r="160.2"/>
	</g>
	<g>
		<defs>
			<polygon id="SVGID_00000133506140274475320060000013307360740815082680_" points="953,1820.4 2241.7,1822 2241.5,1661.2 
				2698.7,1661.2 2698.7,495.1 953,495.1 			"/>
		</defs>
		<clipPath id="SVGID_00000076576838320013039090000012481077530498879663_">
			<use xlink:href="#SVGID_00000133506140274475320060000013307360740815082680_"  style="overflow:visible;"/>
		</clipPath>
		<polygon style="clip-path:url(#SVGID_00000076576838320013039090000012481077530498879663_);fill:#EA7878;" points="1169.6,590.3 
			2285.2,590.3 2285.2,1534.9 1035.3,1534.9 		"/>
	</g>
	<g>
		<defs>
			<polygon id="SVGID_00000119796002033304002960000001430514997961288339_" points="953,1820.4 2241.7,1822 2241.5,1661.2 
				2698.7,1661.2 2698.7,495.1 953,495.1 			"/>
		</defs>
		<clipPath id="SVGID_00000129890541958110150810000008702138449343307935_">
			<use xlink:href="#SVGID_00000119796002033304002960000001430514997961288339_"  style="overflow:visible;"/>
		</clipPath>
		<polygon style="clip-path:url(#SVGID_00000129890541958110150810000008702138449343307935_);fill:#A85151;" points="1218.5,622.6 
			2482.8,622.6 2482.8,1534.9 1087.4,1548.4 		"/>
	</g>
	<g>
		<defs>
			<polygon id="SVGID_00000116951817923504118360000001005389159138056639_" points="953,1820.4 2241.7,1822 2241.5,1661.2 
				2698.7,1661.2 2698.7,495.1 953,495.1 			"/>
		</defs>
		<clipPath id="SVGID_00000047760364665121995840000000343788154167068591_">
			<use xlink:href="#SVGID_00000116951817923504118360000001005389159138056639_"  style="overflow:visible;"/>
		</clipPath>
		<path style="clip-path:url(#SVGID_00000047760364665121995840000000343788154167068591_);fill:#B65615;" d="M2969.9,1600.8h372.9
			c7.3,0,13.4-6,13.4-13.4V1437c0-7.3-6-13.4-13.4-13.4h-372.9c-7.3,0-13.4,6-13.4,13.4v150.5
			C2956.6,1594.8,2962.6,1600.8,2969.9,1600.8z"/>
	</g>
	<g>
		<defs>
			<polygon id="SVGID_00000007430087845532984570000013222436620003227813_" points="953,1820.4 2241.7,1822 2241.5,1661.2 
				2698.7,1661.2 2698.7,495.1 953,495.1 			"/>
		</defs>
		<clipPath id="SVGID_00000142145094481004776060000012704590704160229563_">
			<use xlink:href="#SVGID_00000007430087845532984570000013222436620003227813_"  style="overflow:visible;"/>
		</clipPath>
		
			<circle style="clip-path:url(#SVGID_00000142145094481004776060000012704590704160229563_);fill:#2B2B2B;" cx="1857.8" cy="1659.4" r="160.2"/>
	</g>
	<g>
		<defs>
			<polygon id="SVGID_00000053530103549854385910000004177455769373178245_" points="953,1820.4 2241.7,1822 2241.5,1661.2 
				2698.7,1661.2 2698.7,495.1 953,495.1 			"/>
		</defs>
		<clipPath id="SVGID_00000165957630680523614740000006453238600143579564_">
			<use xlink:href="#SVGID_00000053530103549854385910000004177455769373178245_"  style="overflow:visible;"/>
		</clipPath>
		
			<circle style="clip-path:url(#SVGID_00000165957630680523614740000006453238600143579564_);fill:#233862;" cx="3141.4" cy="1659.4" r="160.2"/>
	</g>
	<g>
		<defs>
			<polygon id="SVGID_00000047025414650373254170000005783283504005163913_" points="953,1820.4 2241.7,1822 2241.5,1661.2 
				2698.7,1661.2 2698.7,495.1 953,495.1 			"/>
		</defs>
		<clipPath id="SVGID_00000138543649005325172910000009827716217509586616_">
			<use xlink:href="#SVGID_00000047025414650373254170000005783283504005163913_"  style="overflow:visible;"/>
		</clipPath>
		<path style="clip-path:url(#SVGID_00000138543649005325172910000009827716217509586616_);fill:#D36E2A;" d="M3222.3,1659.4
			c0-44.7-36.2-80.8-80.8-80.8c-44.7,0-80.8,36.2-80.8,80.8c0,44.6,36.2,80.8,80.8,80.8C3186.1,1740.2,3222.3,1704,3222.3,1659.4z"
			/>
	</g>
	<g>
		<defs>
			<polygon id="SVGID_00000183964844545335857220000000394955829770454685_" points="953,1820.4 2241.7,1822 2241.5,1661.2 
				2698.7,1661.2 2698.7,495.1 953,495.1 			"/>
		</defs>
		<clipPath id="SVGID_00000155118818849157039980000017579135923183828873_">
			<use xlink:href="#SVGID_00000183964844545335857220000000394955829770454685_"  style="overflow:visible;"/>
		</clipPath>
		<path style="clip-path:url(#SVGID_00000155118818849157039980000017579135923183828873_);fill:#F59040;" d="M3222.3,1659.4
			c0-44.7-36.2-80.8-80.8-80.8c-44.7,0-80.8,36.2-80.8,80.8c0,44.6,36.2,80.8,80.8,80.8C3186.1,1740.2,3222.3,1704,3222.3,1659.4z"
			/>
	</g>
	<g>
		<defs>
			<polygon id="SVGID_00000102514693224036043990000011629875094252167310_" points="953,1820.4 2241.7,1822 2241.5,1661.2 
				2698.7,1661.2 2698.7,495.1 953,495.1 			"/>
		</defs>
		<clipPath id="SVGID_00000167396378815929662070000012422951121013286307_">
			<use xlink:href="#SVGID_00000102514693224036043990000011629875094252167310_"  style="overflow:visible;"/>
		</clipPath>
		<path style="clip-path:url(#SVGID_00000167396378815929662070000012422951121013286307_);fill:#D36E2A;" d="M3087.6,1599.1
			c-4.5,10.1-7.1,21.3-7.1,33.1c0,44.6,36.2,80.8,80.8,80.8c20.7,0,39.5-7.8,53.8-20.5c-12.6,28.1-40.9,47.7-73.8,47.7
			c-44.7,0-80.8-36.2-80.8-80.8C3060.6,1635.4,3071,1613.9,3087.6,1599.1z"/>
	</g>
	<g>
		<defs>
			<polygon id="SVGID_00000065036947365288795010000009399760425511216561_" points="953,1820.4 2241.7,1822 2241.5,1661.2 
				2698.7,1661.2 2698.7,495.1 953,495.1 			"/>
		</defs>
		<clipPath id="SVGID_00000166648764103220953050000003096493110281469866_">
			<use xlink:href="#SVGID_00000065036947365288795010000009399760425511216561_"  style="overflow:visible;"/>
		</clipPath>
		<path style="clip-path:url(#SVGID_00000166648764103220953050000003096493110281469866_);fill:#B65615;" d="M3166.5,1659.4
			c0-13.8-11.2-25.1-25.1-25.1c-13.8,0-25.1,11.2-25.1,25.1c0,13.8,11.2,25.1,25.1,25.1C3155.2,1684.4,3166.5,1673.2,3166.5,1659.4z
			"/>
	</g>
	<g>
		<defs>
			<polygon id="SVGID_00000085958297018357324930000001729461110933918898_" points="953,1820.4 2241.7,1822 2241.5,1661.2 
				2698.7,1661.2 2698.7,495.1 953,495.1 			"/>
		</defs>
		<clipPath id="SVGID_00000020390536555772701000000014426043539355769505_">
			<use xlink:href="#SVGID_00000085958297018357324930000001729461110933918898_"  style="overflow:visible;"/>
		</clipPath>
		
			<circle style="clip-path:url(#SVGID_00000020390536555772701000000014426043539355769505_);fill:#B65615;" cx="3184.1" cy="1702.3" r="9.7"/>
	</g>
	<g>
		<defs>
			<polygon id="SVGID_00000150793378658505461670000003249493599734540696_" points="953,1820.4 2241.7,1822 2241.5,1661.2 
				2698.7,1661.2 2698.7,495.1 953,495.1 			"/>
		</defs>
		<clipPath id="SVGID_00000018947748187369490380000013670239084165999488_">
			<use xlink:href="#SVGID_00000150793378658505461670000003249493599734540696_"  style="overflow:visible;"/>
		</clipPath>
		<path style="clip-path:url(#SVGID_00000018947748187369490380000013670239084165999488_);fill:#B65615;" d="M3205.1,1630.3
			c0-5.4-4.3-9.7-9.7-9.7s-9.7,4.3-9.7,9.7c0,5.4,4.3,9.7,9.7,9.7S3205.1,1635.6,3205.1,1630.3z"/>
	</g>
	<g>
		<defs>
			<polygon id="SVGID_00000029758072789495412150000016493589778243374774_" points="953,1820.4 2241.7,1822 2241.5,1661.2 
				2698.7,1661.2 2698.7,495.1 953,495.1 			"/>
		</defs>
		<clipPath id="SVGID_00000165204182140836532630000003857184603603926684_">
			<use xlink:href="#SVGID_00000029758072789495412150000016493589778243374774_"  style="overflow:visible;"/>
		</clipPath>
		<path style="clip-path:url(#SVGID_00000165204182140836532630000003857184603603926684_);fill:#B65615;" d="M3098.4,1630.3
			c0-5.4-4.3-9.7-9.7-9.7s-9.7,4.3-9.7,9.7c0,5.4,4.3,9.7,9.7,9.7C3094,1640,3098.4,1635.6,3098.4,1630.3z"/>
	</g>
	<g>
		<defs>
			<polygon id="SVGID_00000051377348975206804840000006428283634157570714_" points="953,1820.4 2241.7,1822 2241.5,1661.2 
				2698.7,1661.2 2698.7,495.1 953,495.1 			"/>
		</defs>
		<clipPath id="SVGID_00000106122206650714490360000006478307087639049608_">
			<use xlink:href="#SVGID_00000051377348975206804840000006428283634157570714_"  style="overflow:visible;"/>
		</clipPath>
		<path style="clip-path:url(#SVGID_00000106122206650714490360000006478307087639049608_);fill:#B65615;" d="M3106.4,1702.3
			c0-5.4-4.3-9.7-9.7-9.7s-9.7,4.3-9.7,9.7s4.3,9.7,9.7,9.7C3102.1,1712,3106.4,1707.7,3106.4,1702.3z"/>
	</g>
	<g>
		<defs>
			<polygon id="SVGID_00000049923354753674281760000008234304970310258306_" points="953,1820.4 2241.7,1822 2241.5,1661.2 
				2698.7,1661.2 2698.7,495.1 953,495.1 			"/>
		</defs>
		<clipPath id="SVGID_00000121977232537277979660000011116168716065769125_">
			<use xlink:href="#SVGID_00000049923354753674281760000008234304970310258306_"  style="overflow:visible;"/>
		</clipPath>
		<path style="clip-path:url(#SVGID_00000121977232537277979660000011116168716065769125_);fill:#B65615;" d="M3151.1,1597.6
			c0-5.4-4.3-9.7-9.7-9.7s-9.7,4.3-9.7,9.7s4.3,9.7,9.7,9.7S3151.1,1603,3151.1,1597.6z"/>
	</g>
	<g>
		<defs>
			<polygon id="SVGID_00000067205362771158734530000017850878603750249351_" points="953,1820.4 2241.7,1822 2241.5,1661.2 
				2698.7,1661.2 2698.7,495.1 953,495.1 			"/>
		</defs>
		<clipPath id="SVGID_00000104663965395507709960000007636444592147856313_">
			<use xlink:href="#SVGID_00000067205362771158734530000017850878603750249351_"  style="overflow:visible;"/>
		</clipPath>
		<path style="clip-path:url(#SVGID_00000104663965395507709960000007636444592147856313_);fill:#D36E2A;" d="M1941.7,1659.4
			c0-44.7-36.2-80.8-80.8-80.8c-44.7,0-80.8,36.2-80.8,80.8c0,44.6,36.2,80.8,80.8,80.8C1905.5,1740.2,1941.7,1704,1941.7,1659.4z"
			/>
	</g>
	<g>
		<defs>
			<polygon id="SVGID_00000083089651846828360330000015017547245708247686_" points="953,1820.4 2241.7,1822 2241.5,1661.2 
				2698.7,1661.2 2698.7,495.1 953,495.1 			"/>
		</defs>
		<clipPath id="SVGID_00000175283826935065340790000012017244863785834881_">
			<use xlink:href="#SVGID_00000083089651846828360330000015017547245708247686_"  style="overflow:visible;"/>
		</clipPath>
		<path style="clip-path:url(#SVGID_00000175283826935065340790000012017244863785834881_);fill:#D36E2A;" d="M1941.7,1659.4
			c0-44.7-36.2-80.8-80.8-80.8c-44.7,0-80.8,36.2-80.8,80.8c0,44.6,36.2,80.8,80.8,80.8C1905.5,1740.2,1941.7,1704,1941.7,1659.4z"
			/>
	</g>
	<g>
		<defs>
			<polygon id="SVGID_00000159458269438122070290000001971227047526356124_" points="953,1820.4 2241.7,1822 2241.5,1661.2 
				2698.7,1661.2 2698.7,495.1 953,495.1 			"/>
		</defs>
		<clipPath id="SVGID_00000034798742948155542010000008229369613621389198_">
			<use xlink:href="#SVGID_00000159458269438122070290000001971227047526356124_"  style="overflow:visible;"/>
		</clipPath>
		<path style="clip-path:url(#SVGID_00000034798742948155542010000008229369613621389198_);fill:#B65615;" d="M1885.9,1659.4
			c0-13.8-11.2-25.1-25.1-25.1s-25.1,11.2-25.1,25.1c0,13.8,11.2,25.1,25.1,25.1S1885.9,1673.2,1885.9,1659.4z"/>
	</g>
	<g>
		<defs>
			<polygon id="SVGID_00000150090051728730282660000000142055252059591575_" points="953,1820.4 2241.7,1822 2241.5,1661.2 
				2698.7,1661.2 2698.7,495.1 953,495.1 			"/>
		</defs>
		<clipPath id="SVGID_00000171713235160944818770000009561158881293506438_">
			<use xlink:href="#SVGID_00000150090051728730282660000000142055252059591575_"  style="overflow:visible;"/>
		</clipPath>
		<path style="clip-path:url(#SVGID_00000171713235160944818770000009561158881293506438_);fill:#B65615;" d="M1913.2,1702.3
			c0-5.4-4.3-9.7-9.7-9.7c-5.4,0-9.7,4.3-9.7,9.7s4.3,9.7,9.7,9.7C1908.8,1712,1913.2,1707.7,1913.2,1702.3z"/>
	</g>
	<g>
		<defs>
			<polygon id="SVGID_00000086673088704017988530000008355291700170558089_" points="953,1820.4 2241.7,1822 2241.5,1661.2 
				2698.7,1661.2 2698.7,495.1 953,495.1 			"/>
		</defs>
		<clipPath id="SVGID_00000169545964975493735740000009322199179479909762_">
			<use xlink:href="#SVGID_00000086673088704017988530000008355291700170558089_"  style="overflow:visible;"/>
		</clipPath>
		<path style="clip-path:url(#SVGID_00000169545964975493735740000009322199179479909762_);fill:#B65615;" d="M1924.5,1630.3
			c0-5.4-4.3-9.7-9.7-9.7c-5.4,0-9.7,4.3-9.7,9.7c0,5.4,4.3,9.7,9.7,9.7C1920.1,1640,1924.5,1635.6,1924.5,1630.3z"/>
	</g>
	<g>
		<defs>
			<polygon id="SVGID_00000143599599476545739730000014641706807653373847_" points="1656.5,2493 2151.2,1303 2002.6,1241.7 
				2177.5,819.3 1100.2,373 432.1,1985.8 			"/>
		</defs>
		<clipPath id="SVGID_00000106127208597208279390000002957885257795497663_">
			<use xlink:href="#SVGID_00000143599599476545739730000014641706807653373847_"  style="overflow:visible;"/>
		</clipPath>
		
			<ellipse style="clip-path:url(#SVGID_00000106127208597208279390000002957885257795497663_);fill:#B65615;" cx="1808.2" cy="1630.3" rx="9.7" ry="9.7"/>
	</g>
	<g>
		<defs>
			<polygon id="SVGID_00000093857080486222146060000000127378062094872974_" points="953,1820.4 2241.7,1822 2241.5,1661.2 
				2698.7,1661.2 2698.7,495.1 953,495.1 			"/>
		</defs>
		<clipPath id="SVGID_00000151503792066444836480000012722803973601771152_">
			<use xlink:href="#SVGID_00000093857080486222146060000000127378062094872974_"  style="overflow:visible;"/>
		</clipPath>
		<path style="clip-path:url(#SVGID_00000151503792066444836480000012722803973601771152_);fill:#B65615;" d="M1825.9,1702.3
			c0-5.4-4.3-9.7-9.7-9.7c-5.4,0-9.7,4.3-9.7,9.7s4.3,9.7,9.7,9.7C1821.5,1712,1825.9,1707.7,1825.9,1702.3z"/>
	</g>
	<g>
		<defs>
			<polygon id="SVGID_00000088831023741256326870000014528429776776913571_" points="953,1820.4 2241.7,1822 2241.5,1661.2 
				2698.7,1661.2 2698.7,495.1 953,495.1 			"/>
		</defs>
		<clipPath id="SVGID_00000044878244995628426860000003869100258062280624_">
			<use xlink:href="#SVGID_00000088831023741256326870000014528429776776913571_"  style="overflow:visible;"/>
		</clipPath>
		<path style="clip-path:url(#SVGID_00000044878244995628426860000003869100258062280624_);fill:#B65615;" d="M1870.5,1597.6
			c0-5.4-4.3-9.7-9.7-9.7s-9.7,4.3-9.7,9.7s4.3,9.7,9.7,9.7S1870.5,1603,1870.5,1597.6z"/>
	</g>
	<g>
		<defs>
			<polygon id="SVGID_00000054236170433526618740000003757121682821246623_" points="953,1820.4 2241.7,1822 2241.5,1661.2 
				2698.7,1661.2 2698.7,495.1 953,495.1 			"/>
		</defs>
		<clipPath id="SVGID_00000026121442451396346420000007204734798682893967_">
			<use xlink:href="#SVGID_00000054236170433526618740000003757121682821246623_"  style="overflow:visible;"/>
		</clipPath>
		
			<circle style="clip-path:url(#SVGID_00000026121442451396346420000007204734798682893967_);fill:#233862;" cx="2686.3" cy="1659.4" r="160.2"/>
	</g>
	<g>
		<defs>
			<polygon id="SVGID_00000119810177715096182930000000841975207802034612_" points="953,1820.4 2241.7,1822 2241.5,1661.2 
				2698.7,1661.2 2698.7,495.1 953,495.1 			"/>
		</defs>
		<clipPath id="SVGID_00000042705328086906504590000009276020830700572828_">
			<use xlink:href="#SVGID_00000119810177715096182930000000841975207802034612_"  style="overflow:visible;"/>
		</clipPath>
		<path style="clip-path:url(#SVGID_00000042705328086906504590000009276020830700572828_);fill:#D57912;" d="M3143.2,794.5
			c0,0-86.9-131.1-187.4-132.2l9,141.8L3143.2,794.5z"/>
	</g>
	<g>
		<defs>
			<polygon id="SVGID_00000003818533317788387080000007397845697033842606_" points="953,1820.4 2241.7,1822 2241.5,1661.2 
				2698.7,1661.2 2698.7,495.1 953,495.1 			"/>
		</defs>
		<clipPath id="SVGID_00000134247790357942328130000018383739055962631313_">
			<use xlink:href="#SVGID_00000003818533317788387080000007397845697033842606_"  style="overflow:visible;"/>
		</clipPath>
		<path style="clip-path:url(#SVGID_00000134247790357942328130000018383739055962631313_);fill:#E69D43;" d="M2631.2,1393.4h695.6
			l-57.9-469.9c-9.4-76.4-74.3-133.8-151.2-133.8h-486.5V1393.4z"/>
	</g>
	<g>
		<defs>
			<polygon id="SVGID_00000147916000563484060340000015442109596293249677_" points="953,1820.4 2241.7,1822 2241.5,1661.2 
				2698.7,1661.2 2698.7,495.1 953,495.1 			"/>
		</defs>
		<clipPath id="SVGID_00000057124982465871960730000016048900550949460920_">
			<use xlink:href="#SVGID_00000147916000563484060340000015442109596293249677_"  style="overflow:visible;"/>
		</clipPath>
		<path style="clip-path:url(#SVGID_00000057124982465871960730000016048900550949460920_);fill:#D57912;" d="M3035.5,1106.2h195.1
			l-25.8-185.5c-5.3-38.2-38-66.6-76.6-66.6h-98.7L3035.5,1106.2z"/>
	</g>
	<g>
		<defs>
			<polygon id="SVGID_00000066475951906474875030000005420447107620573596_" points="953,1820.4 2241.7,1822 2241.5,1661.2 
				2698.7,1661.2 2698.7,495.1 953,495.1 			"/>
		</defs>
		<clipPath id="SVGID_00000085973438285311426380000011646831156789035433_">
			<use xlink:href="#SVGID_00000066475951906474875030000005420447107620573596_"  style="overflow:visible;"/>
		</clipPath>
		<path style="clip-path:url(#SVGID_00000085973438285311426380000011646831156789035433_);fill:#DCE7F9;" d="M3050,1092.2h128.4
			c19.4,0,34.3-17.1,31.8-36.3l-17-128.4c-4.5-33.9-32.1-59.1-64.8-59.1h-83.5L3050,1092.2z"/>
	</g>
	<g>
		<defs>
			<polygon id="SVGID_00000075863554832805202340000014733631130933371310_" points="953,1820.4 2241.7,1822 2241.5,1661.2 
				2698.7,1661.2 2698.7,495.1 953,495.1 			"/>
		</defs>
		<clipPath id="SVGID_00000044142576739232786380000016621096465876059324_">
			<use xlink:href="#SVGID_00000075863554832805202340000014733631130933371310_"  style="overflow:visible;"/>
		</clipPath>
		<polygon style="clip-path:url(#SVGID_00000044142576739232786380000016621096465876059324_);fill:#D23030;" points="1685,1534.9 
			3023,1534.9 2963.3,590.3 1764.1,590.3 		"/>
	</g>
	<g>
		<defs>
			<polygon id="SVGID_00000019648036558188679620000012219283254601470631_" points="953,1820.4 2241.7,1822 2241.5,1661.2 
				2698.7,1661.2 2698.7,495.1 953,495.1 			"/>
		</defs>
		<clipPath id="SVGID_00000173864752916832356930000014097652535320374915_">
			<use xlink:href="#SVGID_00000019648036558188679620000012219283254601470631_"  style="overflow:visible;"/>
		</clipPath>
		<polygon style="clip-path:url(#SVGID_00000173864752916832356930000014097652535320374915_);fill:#FF5757;" points="
			1737.4,1499.1 2973.9,1499.1 2918.7,626.1 1810.4,626.1 1751.2,1333.7 		"/>
	</g>
	<g>
		<defs>
			<polygon id="SVGID_00000132060863485388312570000005393800009387636645_" points="953,1820.4 2241.7,1822 2241.5,1661.2 
				2698.7,1661.2 2698.7,495.1 953,495.1 			"/>
		</defs>
		<clipPath id="SVGID_00000026848633646494026930000005288501869109573546_">
			<use xlink:href="#SVGID_00000132060863485388312570000005393800009387636645_"  style="overflow:visible;"/>
		</clipPath>
		<path style="clip-path:url(#SVGID_00000026848633646494026930000005288501869109573546_);fill:#D57912;" d="M2902.3,1393.4h424.5
			c37.4,2.5,41,21,41,21l36.3,175.6c0,6-5.5,10.9-12.3,10.9h-106.7c-6.7,0-11.6-4.9-14.5-11.2c0,0-16.4-20.3-27.4-27.5
			c-27.6-18.2-57.5-30.1-101.8-30.1c-54.4,0-102.5,17.3-131.4,43.8h-107.6c-13,0-23.6-6.8-23.6-15.1v-152.2
			C2878.7,1400.2,2889.4,1393.4,2902.3,1393.4z"/>
	</g>
	<g>
		<defs>
			<polygon id="SVGID_00000065043758763174930270000018011795407866760107_" points="953,1820.4 2241.7,1822 2241.5,1661.2 
				2698.7,1661.2 2698.7,495.1 953,495.1 			"/>
		</defs>
		<clipPath id="SVGID_00000106116899754841606090000004827682474391441323_">
			<use xlink:href="#SVGID_00000065043758763174930270000018011795407866760107_"  style="overflow:visible;"/>
		</clipPath>
		<path style="clip-path:url(#SVGID_00000106116899754841606090000004827682474391441323_);fill:#D23030;" d="M1642,1738h134.5
			c3.1-16.3,8.9-30.7,16.9-43.3c40.7-65.2,135.8-85.1,189.9-91.2c23.7-2.7,39.6-2.7,39.6-2.7h-231.2c-60.5,8.2-97.6,41.2-119.8,72.8
			C1648.8,1706.6,1642,1738,1642,1738z"/>
	</g>
	<g>
		<defs>
			<polygon id="SVGID_00000182525108723697523660000011143010436308769171_" points="953,1820.4 2241.7,1822 2241.5,1661.2 
				2698.7,1661.2 2698.7,495.1 953,495.1 			"/>
		</defs>
		<clipPath id="SVGID_00000168836843660724595230000000699211487316306064_">
			<use xlink:href="#SVGID_00000182525108723697523660000011143010436308769171_"  style="overflow:visible;"/>
		</clipPath>
		<path style="clip-path:url(#SVGID_00000168836843660724595230000000699211487316306064_);fill:#D23030;" d="M1035.3,1738h134.5
			c3.5-18.5,10.6-34.6,20.2-48.5c61.4-88.6,226.2-88.7,226.2-88.7H1185c-50.6,6.9-84.8,31.1-107.6,57.3
			C1044.4,1696,1035.3,1738,1035.3,1738z"/>
	</g>
	<g>
		<defs>
			<polygon id="SVGID_00000072243227184615298010000006585473063084080279_" points="953,1820.4 2241.7,1822 2241.5,1661.2 
				2698.7,1661.2 2698.7,495.1 953,495.1 			"/>
		</defs>
		<clipPath id="SVGID_00000168804947116761495640000004357854775450961059_">
			<use xlink:href="#SVGID_00000072243227184615298010000006585473063084080279_"  style="overflow:visible;"/>
		</clipPath>
		<path style="clip-path:url(#SVGID_00000168804947116761495640000004357854775450961059_);fill:#932F2F;" d="M1672,1673.6
			c0,0,88.5-18.7,121.4,21.1c40.7-65.2,135.8-85.1,189.9-91.2c1.1-0.9,2.2-1.8,3.3-2.7h-194.9C1731.3,1609,1694.1,1642,1672,1673.6z
			"/>
	</g>
	<g>
		<defs>
			<polygon id="SVGID_00000103965001379478480970000001842824852078827913_" points="953,1820.4 2241.7,1822 2241.5,1661.2 
				2698.7,1661.2 2698.7,495.1 953,495.1 			"/>
		</defs>
		<clipPath id="SVGID_00000006688207421878334280000012827306074961481389_">
			<use xlink:href="#SVGID_00000103965001379478480970000001842824852078827913_"  style="overflow:visible;"/>
		</clipPath>
		<path style="clip-path:url(#SVGID_00000006688207421878334280000012827306074961481389_);fill:#932F2F;" d="M1077.3,1658.1
			L1077.3,1658.1c0,0,74-1.6,112.7,31.5c61.4-88.6,226.2-88.7,226.2-88.7H1185C1134.4,1607.7,1100.2,1631.9,1077.3,1658.1z"/>
	</g>
	<g>
		<defs>
			<polygon id="SVGID_00000085243975676382595130000006999027257762325120_" points="953,1820.4 2241.7,1822 2241.5,1661.2 
				2698.7,1661.2 2698.7,495.1 953,495.1 			"/>
		</defs>
		<clipPath id="SVGID_00000065047225150863576110000015895995300890851774_">
			<use xlink:href="#SVGID_00000085243975676382595130000006999027257762325120_"  style="overflow:visible;"/>
		</clipPath>
		<path style="clip-path:url(#SVGID_00000065047225150863576110000015895995300890851774_);fill:#D23030;" d="M2995.9,1626.5h-1979
			c-8.2,0-14.8-6.7-14.8-14.8v-62c0-8.2,6.7-14.8,14.8-14.8h1979c8.2,0,14.8,6.7,14.8,14.8v62
			C3010.7,1619.9,3004,1626.5,2995.9,1626.5z"/>
	</g>
	<g>
		<defs>
			<polygon id="SVGID_00000085929442630360614620000017727688312573546170_" points="953,1820.4 2241.7,1822 2241.5,1661.2 
				2698.7,1661.2 2698.7,495.1 953,495.1 			"/>
		</defs>
		<clipPath id="SVGID_00000078044925963754148070000006231936636181749941_">
			<use xlink:href="#SVGID_00000085929442630360614620000017727688312573546170_"  style="overflow:visible;"/>
		</clipPath>
		<path style="clip-path:url(#SVGID_00000078044925963754148070000006231936636181749941_);fill:#932F2F;" d="M2540.4,1760.8h371
			c7.9,0,14.3-6.4,14.3-14.3v-174.3c0-7.9-6.4-14.3-14.3-14.3h-371c-7.9,0-14.3,6.4-14.3,14.3v174.3
			C2526.1,1754.4,2532.5,1760.8,2540.4,1760.8z"/>
	</g>
	<g>
		<defs>
			<polygon id="SVGID_00000098221559459144542700000003164757996399125430_" points="953,1820.4 2241.7,1822 2241.5,1661.2 
				2698.7,1661.2 2698.7,495.1 953,495.1 			"/>
		</defs>
		<clipPath id="SVGID_00000145017902514461056000000015041687647374273978_">
			<use xlink:href="#SVGID_00000098221559459144542700000003164757996399125430_"  style="overflow:visible;"/>
		</clipPath>
		<g style="clip-path:url(#SVGID_00000145017902514461056000000015041687647374273978_);">
			<path class="st57" d="M3314.1,1015.3c0,0,17.4,93.5,16.5,108.7s-15.2,22.7-26.2,22.7L3314.1,1015.3z"/>
			<path class="st58" d="M3259.4,1146.6h46.2c5.1,0,9.2-4.2,9.2-9.2v-120.7c0-5.1-4.2-9.2-9.2-9.2h-46.2c-5.1,0-9.2,4.2-9.2,9.2
				v120.7C3250.1,1142.5,3254.3,1146.6,3259.4,1146.6z"/>
			<path class="st59" d="M3262.9,1139.9h36.9c4.3,0,7.9-3.6,7.9-7.9v-108.8c0-4.3-3.6-7.9-7.9-7.9h-36.9c-4.3,0-7.9,3.6-7.9,7.9
				V1132C3255,1136.3,3258.6,1139.9,3262.9,1139.9z"/>
			<g>
				<path class="st57" d="M3282.5,1010c1.2,0,2.2-1.1,2.2-2.5v-39.3c0-0.1,0-0.2,0-0.3c0-0.2-2.7-22.6-26.2-21.9
					c-21.5,0.7-30.8,0-30.9,0c-1.2-0.1-2.2,1-2.3,2.4s0.8,2.6,2,2.7c0.4,0,9.6,0.7,31.3,0c19-0.6,21.6,15.5,21.8,17.3v39.1
					C3280.3,1008.9,3281.3,1010,3282.5,1010z"/>
			</g>
		</g>
	</g>
	<g>
		<defs>
			<polygon id="SVGID_00000031183280332144799330000005160253840020087970_" points="953,1820.4 2241.7,1822 2241.5,1661.2 
				2698.7,1661.2 2698.7,495.1 953,495.1 			"/>
		</defs>
		<clipPath id="SVGID_00000106130916895933128400000002690274108647885470_">
			<use xlink:href="#SVGID_00000031183280332144799330000005160253840020087970_"  style="overflow:visible;"/>
		</clipPath>
		<path style="clip-path:url(#SVGID_00000106130916895933128400000002690274108647885470_);fill:#D57912;" d="M3053.6,1166.7h39.4
			c5.5,0,10-4.5,10-10l0,0c0-5.5-4.5-10-10-10h-39.4c-5.5,0-10,4.5-10,10l0,0C3043.6,1162.1,3048.1,1166.7,3053.6,1166.7z"/>
	</g>
</g>
<path class="st61" d="M1055.8,953.9l-8.7-10.4c0,0-6.9-24.7-34.4-20c0,0-11.2,2.8-6.7,9.8s3.8,3.7,10,13.7s16.4,16.3,24.9,14.8
	l9.5,2.2L1055.8,953.9z"/>
<path class="st62" d="M1035,1062.2c2.2-9.5,3.5-10.4,3.5-10.4s94,2.5,102.7,3.3c23.1,2.2,127.9-49,127.9-49l40.8,54.1
	c0,0-137.4,47.7-168.3,44.9c-36.8-3.3-106.2-29.1-106.2-29.1S1033.2,1069.7,1035,1062.2z"/>
<g>
	<g>
		<g>
			<path class="st63" d="M1060.7,888.3l9,95.6l10.4,110.2c2.2,22.9,22.6,39.9,45.5,37.7c22.9-2.2,39.9-22.6,37.7-45.5l-6-63.5
				L1144,880.5c-2.2-22.9-23.6-50.4-46.5-48.2C1097.5,832.3,1059.6,840.3,1060.7,888.3z"/>
			<path class="st64" d="M1134.5,909.8c0,0-14.5-20.2-61.8-25C1072.7,884.7,1090.9,912.4,1134.5,909.8z"/>
			<path class="st64" d="M1143.3,947.3c0,0-17.1-23.7-72.7-29.4C1070.5,917.9,1092,950.4,1143.3,947.3z"/>
			<path class="st64" d="M1146.6,983.3c0,0-17.1-23.7-72.7-29.4C1073.9,953.9,1095.3,986.4,1146.6,983.3z"/>
			<path class="st64" d="M1124.6,875c0,0-10.2-14.2-43.3-17.6C1081.2,857.5,1094,876.8,1124.6,875z"/>
		</g>
		<path class="st65" d="M1069.7,983.9l10.4,110.2c2.2,22.9,22.6,39.9,45.5,37.7c22.9-2.2,39.9-22.6,37.7-45.5l-6-63.5
			c-6-5.3-12.9-8.6-20.8-8.3C1108.3,1015.6,1081,993.9,1069.7,983.9z"/>
	</g>
	<g>
		<g>
			<path class="st4" d="M1033.9,959.6c0,0.4,0,0.7,0,0.7s0.1-0.2,0.2-0.6c1.1-3.5,6.6-20.5,11.6-39.5c6.9-26.3,12.8-56.3,5-59
				c-14.8-5.3-17.6,36.7-17.6,67.7C1033.2,944.1,1033.8,956.7,1033.9,959.6z"/>
			<path class="st4" d="M1019.4,925.5c5.4,11.9,10,21.9,12.7,27.9c1.2,2.6,1.9,4.5,2.2,5.4c-0.3-1.5-1-5.4-2-11.1l0,0
				c-1.5-8.5-3.7-20.7-6.1-34c-5.8-32.3-12.8-70.7-14.5-76.2c-2.9-9.7-16.3-30.3-25.3-12.4C980.7,836.7,1003.3,889.7,1019.4,925.5z"
				/>
			<path class="st4" d="M1018.4,942.5c5.5,5.8,10.2,10.6,12.8,13.2c1.4,1.4,2.2,2.2,2.2,2.2s-1.4-3-3.8-7.9
				c-2.3-4.6-5.5-10.7-9.2-17.5c-12.1-22.1-30-50.5-41.1-48.9C966.6,885.6,998.3,921.3,1018.4,942.5z"/>
			<path class="st66" d="M1033.9,959.6c0.1,0,0.2,0,0.2,0c1.1-3.5,6.6-20.5,11.6-39.5c-2.3,3.5-6.5,8.2-12.6,8.7
				C1033.2,944.1,1033.8,956.7,1033.9,959.6z"/>
			<path class="st66" d="M1019.4,925.5c5.4,11.9,10,21.9,12.7,27.9c0.2-1.7,0.3-3.6,0.3-5.7l0,0c-1.5-8.5-3.7-20.7-6.1-34
				C1025.4,918.3,1023.5,923.4,1019.4,925.5z"/>
			<path class="st66" d="M1018.4,942.5c5.5,5.8,10.2,10.6,12.8,13.2c-0.3-1.5-0.8-3.5-1.6-5.6c-2.3-4.6-5.5-10.7-9.2-17.5
				C1020.3,935.4,1019.9,939.6,1018.4,942.5z"/>
		</g>
		<path class="st4" d="M1034.4,958.8c0.1,0.4,0.1,0.6,0.1,0.6C1034.5,959.4,1034.5,959.1,1034.4,958.8z"/>
		<path class="st67" d="M1026.9,1001.4c9.3,26.3,20.9,55,20.9,55l26.1-7.8c0,0-3.1-19.5-7.6-41.2c-5.2-25.3-12.4-53.6-19-57.5
			c-3-1.8-6.2-2.7-9.3-2.9c-1.6-0.1-3.1-0.1-4.7,0.1c-0.4,0-0.7,0.1-1.1,0.2c-0.9,0.2-1.8,0.4-2.7,0.6c-0.3,0.1-0.7,0.2-1,0.3
			c-1.2,0.4-2.3,0.9-3.3,1.4c-4.5,2.3-8.1,5.8-9.6,9.5C1014.2,963,1019.9,981.5,1026.9,1001.4z"/>
	</g>
	<g>
		<path class="st68" d="M1028.3,1026.7c3.8,21.4,2.6,44-3.6,67.5c-1,3.9-3.7,7.1-7.3,8.7c-1.6,0.7-3.3,1.2-5.1,1.3
			c-3.9-0.6-10.7-8.9-13.9-18.7c-0.9-2.7-1.5-5.5-1.6-8.3c-1.4-21.8-6.1-48.5-14.4-63c-8.6-14.8-20.4-32.8-38.3-46.5l0,0
			c-1.7-1.3-41.2-39.8-41.2-39.8c-3.7-5.3,2.2-9.7,2.2-9.7s3.7,4.3,15.4,13.5s35.4,3.8,35.4,3.8c6.7-1.9,14.1-0.6,19.7,4
			c8.7,7.1,20.1,18.1,30.2,32.9C1017.3,989.1,1024.9,1007.4,1028.3,1026.7z"/>
		<path class="st69" d="M996.9,1077.2c-1.4-21.8-6.1-48.5-14.4-63c-8.6-14.8-20.4-32.8-38.3-46.5l0,0c-0.3-0.3-12.1-11.9,3.8-18.6
			c15.5-6.5,64.5,65.8,50.6,136.4C997.6,1082.8,997.1,1080,996.9,1077.2z"/>
	</g>
	<g>
		<path class="st4" d="M1135.5,1009.5c1.8,2.9,4.1,5.7,6.8,8.3c10.1,9.9,25.9,17.3,46.3,17.1c0,0,8.6-8.2,12.7-18.5l0,0
			c2.9-7.2,5-17.8,0-25.7c-3.2-5.1-7.3-7.5-11.5-8.7c-7.1-2.2-14.4-1-17.5-4.2c-3.1-3.1-7.6-5.8-12.5-7.4c-0.8-0.3-1.6-0.5-2.4-0.7
			l0,0c-0.3-0.1-0.7-0.2-1-0.2l0,0c-7.5-1.5-15.6,0-21.2,6.7c-1.3,1.6-2.5,3.4-3.5,5.7C1128,990,1129.5,1000.2,1135.5,1009.5z"/>
		<path class="st70" d="M1194.8,989.5c0,0,6.7,5.3,4.7,11.1c-2.1,5.8-7.4,3.1-9-0.9C1188.7,995.7,1190.4,987.6,1194.8,989.5z"/>
		<path class="st71" d="M1135.1,976.2c-1.3,1.6-2.5,3.4-3.5,5.7c-3.6,8.1-8.5,29.5-2.6,38.8l8,7.3c10.1,9.9,31.2,7.2,51.6,7
			c0,0,8.6-8.2,12.7-18.5l0,0c0,0-25.2,10-49-10.9C1141.5,996.1,1136.9,985.2,1135.1,976.2z"/>
		<g>
			<path class="st4" d="M1173.5,965.5c4.2-2.5,8.4,1,13.3,2.9s14.3,1.9,14.3,1.9s-3.9-5.6-10.2-11.1
				C1184.6,953.7,1173.5,965.5,1173.5,965.5z"/>
			<path class="st66" d="M1173.5,965.5c3.9-3.2,11.2-5.1,14.7-3.6c3.5,1.4,12.9,8.4,12.9,8.4s-3.9-5.6-10.2-11.1
				C1184.6,953.7,1173.5,965.5,1173.5,965.5z"/>
		</g>
		<path class="st71" d="M1172.2,977.7c-3.1-3.1-7.6-5.8-12.5-7.4c8.3,3.1,12.9,13.7,16.1,12.4c3.4-1.3,13.6-0.9,14-0.9
			C1182.7,979.8,1175.4,980.9,1172.2,977.7z"/>
		<path class="st71" d="M1156.3,969.5c0.3,0.1,0.6,0.1,1,0.2C1157,969.6,1156.6,969.6,1156.3,969.5z"/>
		<g>
			<path class="st66" d="M1175.2,982.6L1175.2,982.6c2.7-5.9,1.2-13.2-0.5-18.3c-1.3-4.1-3.9-9.5-5.2-12.1c-0.3-0.5-1.1-0.5-1.3,0.1
				l-0.5,1.5c-0.5,1.5-0.3,3.2,0.5,4.6c2.6,4.3,7.8,14.2,5.4,22.4C1173.5,981.8,1174.7,983.7,1175.2,982.6z"/>
		</g>
	</g>
	<path class="st72" d="M1026.9,1001.4c9.3,26.3,20.9,55,20.9,55l26.1-7.8c0,0-3.1-19.5-7.6-41.2l0,0c0,0-5.3,11.9-17.9,11.7
		C1041.3,1018.9,1032.9,1009.5,1026.9,1001.4z"/>
</g>
<g>
	<path class="st73" d="M972.9,1017.7l-29.3,208.8c-3.6,25.9,16.5,49,42.6,49h44.2c22.3,0,39.7-19.4,37.2-41.5l-24.8-194.2
		L972.9,1017.7z"/>
	<g>
		<path class="st73" d="M1126.8,1017.7c0,0-71,24.2-153.9,0l24.4,258.5H1152L1126.8,1017.7z"/>
		<path class="st74" d="M1126.8,1017.7l-29.3,208.8c-3.6,25.9,16.5,49,42.6,49h44.2c22.3,0,39.7-19.4,37.2-41.5l-21-216.3
			c0,0-9.8,7.1-35,7.1C1140.6,1024.8,1126.8,1017.7,1126.8,1017.7z"/>
		<g>
			<path class="st74" d="M1040.7,1104.8c3.5,0,7.2-0.3,11.1-0.9c31.3-5,40.9-60.2,41.3-62.5l-6.2-1l0,0l0,0c0,0.2-2.4,13.7-8.2,27.6
				c-5.2,12.3-14.2,27.5-27.9,29.8c-15.6,2.5-28.3-0.6-36.6-9c-9.9-10-13.4-26.8-9.9-47.3l-6.2-1.1c-3.9,22.5,0.3,41.3,11.6,52.8
				C1017.4,1100.8,1028,1104.8,1040.7,1104.8z"/>
		</g>
		<path class="st74" d="M1095,1040.9c0-3-2.5-5.5-5.5-5.5s-5.5,2.5-5.5,5.5s2.5,5.5,5.5,5.5S1095,1044,1095,1040.9z"/>
		<path class="st74" d="M1006.4,1040.9c0-3-2.5-5.5-5.5-5.5s-5.5,2.5-5.5,5.5s2.5,5.5,5.5,5.5S1006.4,1044,1006.4,1040.9z"/>
	</g>
</g>
<g>
	<g>
		<polygon class="st74" points="1039.3,1131.8 1028.6,1137.7 1017,1120 1031.4,1120 		"/>
		<path class="st74" d="M1018.5,1136.9l4.2,2.4l-13.6,0.6l-5.2-10.4l3.9,2.1l6.7-11c0,0,7.2,10.7,7.2,10.9c0,0-3.4,5.5-3.6,5.7
			L1018.5,1136.9z"/>
	</g>
	<g>
		<polygon class="st74" points="1001.2,1142.2 1011.8,1148.3 1002.4,1167.4 995.1,1155 		"/>
		<path class="st74" d="M1016.2,1156.1l-0.1-3.4l7.4,11.4l-6.3,9.8l0.1-4.6h-13.2c0,0,6.5-12.9,6.6-13.1h5.5V1156.1z"/>
	</g>
	<g>
		<polygon class="st74" points="1029.3,1169.2 1029.4,1156.6 1049.1,1156.1 1042.6,1169.2 		"/>
		<path class="st74" d="M1034.4,1147.7l-3.9,2.8l5.2-12.5l11.6-0.3l-3.6,2.7l5.8,13.4c0,0-12.1,0.2-12.4,0.2c0,0-2.7-6.3-2.8-6.6
			L1034.4,1147.7z"/>
	</g>
</g>
<path class="st61" d="M1343.1,980c0,0-25.6,30.4-58.2,17.7c0,0-7-17-7.1-29.5c0-1.5,0-3-0.1-4.4c-0.2-14.1-0.6-22-0.6-22l0,0
	c1.5-0.6,49.8-20.5,49.8-18.8C1326.1,961,1343.1,980,1343.1,980z"/>
<path class="st75" d="M1322.1,932c-4.7,8.6-20.7,25.5-44.3,31.7c-0.2-14.1-0.6-22-0.6-22l0,0C1278.5,941.4,1323.4,929.5,1322.1,932z
	"/>
<path class="st61" d="M1267,940.3c0,0,54.4,12.8,61.8-21.2s19.5-55.2-14.9-64.8s-44,1.9-49.2,12.6
	C1259.4,877.7,1253,936.1,1267,940.3z"/>
<path class="st8" d="M1326.9,928.4c0.7,0.5,12.4,4.1,34.6-40.1c3.5-6.9,5.8-21.9-2.3-35.2c-8.1-13.2-36.8-23.7-60.7-28.2
	s-29.6,8.9-35.2,22.4c-5.9,14.2-22.9,25.8-22.9,25.8c20.6,11.5,45.4-4.9,54-2.2s11.6,16.2,12.3,20.6c0.6,4.3,1.6,7.9,12.4,4.1
	c10.8-3.9,4.9,15.3,3.2,19C1322.2,914.6,1320.7,924.4,1326.9,928.4z"/>
<path class="st76" d="M1466.9,1816.9h32.9c6.9,0,14.6-6.9,16.5-19.6s16.1-19.6,19.2-29.9c3.1-10.4-12.7-24.9-12.7-24.9l-2.6-3.4
	l-2.7-3.5l-26.1,6.1c0,0-0.6,6.2-1,14.1c-0.3,5.7-0.4,12.3-0.1,18.1c0.8,13.8-3.9,28.7-16.1,31.4
	C1461.9,1808,1466.9,1816.9,1466.9,1816.9z"/>
<path class="st76" d="M1237.8,1816.9h87.2c0.8-0.2,1.5-0.3,1.9-0.5c5.8-2.9,4-25.2,3.3-32.1c-0.1-1.3-0.2-2-0.2-2
	s-30.7-24.5-34.9-5.7c-0.1,0.6-0.3,1.2-0.5,1.7l0,0c-5.3,17.6-29.1,25.6-42.9,27.8C1241.2,1807.7,1238.5,1813.8,1237.8,1816.9z"/>
<path class="st77" d="M1255.4,1313.8c0,0,4.7,58.1,10.1,128c7.4,94.9,16.4,211.5,17.3,233.6c1.5,38.4,7.7,99.7,7.7,99.7
	s14.6,14.6,43.7,8.4c0,0,26-87.6,33.4-180.2c0.1-1.5,0.2-3,0.3-4.6c6.9-94.3,17.6-293,17.6-293L1255.4,1313.8z"/>
<path class="st58" d="M1254.3,1299.8c0,0,5.8,72.1,11.2,142l102.1,161.5c0.1-1.5,0.2-3,0.3-4.6c6.9-94.3,17.6-293,17.6-293
	L1254.3,1299.8z"/>
<path class="st77" d="M1270.8,1305.7c0,0,89.8,225.5,145,324.4s72.5,126.5,72.5,126.5s31.6-12.7,34.5-21.3c0,0-21.1-191-58.1-237.6
	c-20.9-26.3-45.4-105.3-46.6-132.9c-1.1-27.6-8.9-92.9-8.9-92.9L1270.8,1305.7z"/>
<path class="st78" d="M1237.7,1105.4c0.3,18,1.4,38.2,2.8,58.8c0.1,1.2,0.2,2.4,0.3,3.7c0.9,12.7,1.9,25.5,3,37.9
	c0.5,5,0.9,9.9,1.4,14.8l0.1,0.7c0,1.8,0.3,3.8,0.5,5.6c4.6,46.6,9.4,83.4,10.3,84c1.1,0.7,2.3,1.1,3.6,0.9
	c12.2-1.5,48.7,1.2,78.6-5.3c25.2-5.3,46.9-15.4,69.9-29c3.1-1.8,10-6.6,9.4-10.2c-0.6-3.9-1.6-9.6-2.9-16.7
	c-4.5-24.8-12.4-67.4-15-117.4c-0.5-9.3-1.3-18.5-2.3-27.5c-2.6-23.5-6.7-45.9-12.2-65.7c-10.2-36.9-30.8-64.4-49.7-75.5
	c-2.5-1.4-10.4,4.3-22.6,12.1c-11.3,7.2-21.9,7.7-33.4,3.5l-11.2,18c-12.3,14.3-25.4,33.3-28.9,60.3c-0.3,2-0.5,4.1-0.7,6.4
	C1237.6,1075.9,1237.4,1089.8,1237.7,1105.4z"/>
<path class="st62" d="M1237.7,1105.4c0.3,18,1.4,38.2,2.8,58.8c0.1,1.2,0.2,2.4,0.3,3.7c69.8-43.7,80.6-123.7,80.6-123.7
	c-34.4,1.5-61.6,9.4-82.7,20.7C1237.6,1075.9,1237.4,1089.8,1237.7,1105.4z"/>
<path class="st61" d="M1069.1,1168.7c-2.1-1.2-3.4-3.2-6.7-6c-3.3-2.8-8.7-9.4-9.9-8.3c-1.2,1.1-0.7,4.2,0.9,5.8
	c1,1,2.4,3.7,3.1,5.8c-4.4,0.3-12.4-0.2-16.1-1.5c-15.2-5.3-20.8-4.1-15.5,7.5c2.9,6.4,8.4,12.8,17.9,18.4
	c11.9,6.9,21.5,2.2,30.5-2.6c2.5-1.3,11.1-1.4,11.1-1.4l0.1-19.3C1084.5,1167,1072.2,1170.4,1069.1,1168.7z"/>
<path class="st78" d="M1074.1,1178.7c-2.7-10,2.2-12.8,2.2-12.8s99.5-39.3,107.8-43.8c8.2-4.5,67.7-97.5,67.7-97.5
	s22.3-38.2,47.3-35.7c21.7,2.1,32.9,16.5,38.6,31.2c6.9,17.5,2.1,37.4-11.6,50.1c-30.9,28.6-93,85.3-108.6,93.4
	c-34.8,18.2-136.2,28-136.2,28S1076.3,1186.5,1074.1,1178.7z"/>
<path class="st79" d="M2964.5,1820.6H45.6c-1.2,0-2.2-1.2-2.2-2.6l0,0c0-1.4,1-2.6,2.2-2.6h2918.9c1.2,0,2.2,1.2,2.2,2.6l0,0
	C2966.7,1819.4,2965.7,1820.6,2964.5,1820.6z"/>
<g>
	<path class="st80" d="M2386.1,1041.2c-8.8,0-16.7,3.5-23.8,10.3c-7.1,6.9-10.6,15.8-10.6,26.9c0,11,3.6,20,10.7,26.9
		c7.2,6.9,15.1,10.3,23.9,10.3c8.8,0,16.8-3.3,23.8-10c7.1-6.7,10.6-15.7,10.6-27s-3.6-20.3-10.8-27.1
		C2402.8,1044.7,2394.9,1041.2,2386.1,1041.2z"/>
	<path class="st81" d="M2516.8,1173.1h-254.9c-4.8,0-8.7,3.9-8.7,8.7c0,4.8,3.9,8.7,8.7,8.7h254.9c4.8,0,8.7-3.9,8.7-8.7
		S2521.6,1173.1,2516.8,1173.1z"/>
	<path class="st81" d="M2223.6,1035.6l8.7-10.4c3.8-4.5,5.7-10.2,5.5-16l-5.6-61c-0.1-1.5-1.4-2.8-2.9-2.8s-2.7,1.2-2.7,2.8
		l2.7,54.2c0.1,2.1-1.5,3.9-3.5,3.9s-3.7-1.7-3.7-3.9l-1.6-54.2c0-1.5-1.3-2.8-2.8-2.8s-2.8,1.2-2.8,2.8l0.6,54.2
		c0,2.1-1.6,3.9-3.6,3.9s-3.7-1.7-3.6-3.9l0.6-54.2c0-1.5-1.3-2.8-2.8-2.8s-2.8,1.2-2.8,2.8l-1.6,54.2c0,2.1-1.7,3.9-3.7,3.9
		s-3.6-1.7-3.5-3.9l2.7-54.2c0.1-1.5-1.1-2.8-2.7-2.8c-1.5,0-2.8,1.2-2.9,2.8l-5.6,61c-0.2,5.8,1.8,11.5,5.5,16l8.7,10.4
		c1.9,3.5,2.8,7.3,2.8,11.3c0,0,4.1,58.2-3.6,114.4c0,0-5.9,28.2,12.5,28.2s12.5-28.2,12.5-28.2c-7.6-56.2-3.6-114.4-3.6-114.4
		C2220.8,1042.9,2221.8,1039.1,2223.6,1035.6z"/>
	<path class="st81" d="M2266.4,1146.6c3.9,0,7-0.4,9.5-1.1c2.4-0.8,4.2-2.3,5.4-4.6c1.2-2.3,1.7-5.8,1.7-10.5v-49.9l11.9,0.7
		c5,0,8.8-0.7,11.3-2.3c1.7-1,3-2.6,3.9-4.9c0.8-2.3,1.2-5.4,1.2-9.2c0-3.9-0.4-7-1.2-9.3c-1.5-4.7-6.5-7.1-15-7.1l-12.1,1.2v-10.3
		c0-3.1,2.3-4.7,6.9-4.7c2.4,0,4.1,0,5.2,0c3.7-0.2,6.5-1.3,8.2-3.3c2.1-2.6,3.1-6.9,3.1-12.9c0-7.9-1.7-12.7-5-14.3
		c-1.9-1-3.5-1.5-4.9-1.7s-3.5-0.3-6.4-0.3c-12.9,0-22.8,3.9-29.6,11.6c-6.8,7.8-10.3,16.4-10.3,26v9.9h-6.2c-7.3,0-11,5.1-11,15.3
		c0,6.7,1.2,11.2,3.6,13.6c1.3,1.2,3.7,1.9,6.9,2.2h6.7v49.4c0,2.9,0.1,5.1,0.3,6.5c0.2,1.5,0.8,3.1,1.7,4.9c1,1.8,2.7,3.1,4.9,3.9
		C2259.5,1146.2,2262.6,1146.6,2266.4,1146.6z"/>
	<path class="st81" d="M2385.5,1008.2c-8.6,0-16.9,1.7-24.9,5.2c-8.1,3.5-15.2,8.3-21.4,14.4c-6.2,6.1-11.2,13.6-14.9,22.6
		s-5.6,18.6-5.6,28.9c0,18.9,6.6,35.2,19.8,48.9c13.2,13.6,29.3,20.4,48.1,20.4c18.9,0,34.8-6.9,47.7-20.7
		c12.9-13.8,19.3-30.6,19.3-50.3c0-19.7-6.8-36.2-20.3-49.4C2419.9,1014.9,2403.9,1008.2,2385.5,1008.2z M2410.1,1105.7
		c-7.1,6.7-15,10-23.8,10s-16.8-3.4-23.9-10.3c-7.1-6.9-10.7-15.9-10.7-26.9c0-11.1,3.5-20,10.6-26.9s15-10.3,23.8-10.3
		s16.8,3.4,23.9,10.3c7.2,6.8,10.8,15.8,10.8,27.1C2420.7,1089.9,2417.2,1098.9,2410.1,1105.7z"/>
	<path class="st81" d="M2523.1,1048.4l-12.1,1.2v-10.3c0-3.1,2.3-4.7,6.9-4.7c2.4,0,4.1,0,5.2,0c3.7-0.2,6.5-1.3,8.2-3.3
		c2.1-2.6,3.1-6.9,3.1-12.9c0-7.9-1.7-12.7-5-14.3c-1.9-1-3.5-1.5-4.9-1.7s-3.5-0.3-6.4-0.3c-12.9,0-22.8,3.9-29.6,11.6
		c-6.8,7.8-10.3,16.4-10.3,26v9.9h-6.2c-7.3,0-11,5.1-11,15.3c0,6.7,1.2,11.2,3.6,13.6c1.3,1.2,3.7,1.9,6.9,2.2h6.7v49.4
		c0,2.9,0.1,5.1,0.3,6.5c0.2,1.5,0.8,3.1,1.7,4.9c1,1.8,2.7,3.1,4.9,3.9c2.3,0.8,5.3,1.2,9.2,1.2s7-0.4,9.5-1.1
		c2.4-0.8,4.2-2.3,5.4-4.6c1.2-2.3,1.7-5.8,1.7-10.5v-49.9l11.9,0.7c5,0,8.8-0.7,11.3-2.3c1.7-1,3-2.6,3.9-4.9
		c0.8-2.3,1.2-5.4,1.2-9.2c0-3.9-0.4-7-1.2-9.3C2536.7,1050.8,2531.7,1048.4,2523.1,1048.4z"/>
	<path class="st81" d="M2573.6,1073.2V949.3c0-1.8-1.3-3.3-3-3.3c-3.9,0-22.6,35.1-22.9,90.1v2.1c0.2,22.5,16.8,28,17.1,40
		c-2.9,27.8-16.2,107.2,3.9,110.5h0.1C2589.5,1187.4,2573.6,1095,2573.6,1073.2z"/>
	<path class="st81" d="M2283.1,974.9c0,0,97.1-5.1,113.3-6.3c17.5-1.3,23.9-1.5,23.9-1.5s9.7-0.7,13.6,5.7
		c5.4,8.9,12.6,27.1,44,24.2c30.3-2.8,54.1-16.6,55.1-32.1c0,0.2,0,0.4,0,0.6c0-0.2,0-0.3,0-0.5c0-0.3,0-0.6,0-0.9
		c0-0.3,0-0.6,0-0.9c0-0.3,0-0.5,0-0.8s0-0.6,0-0.8c0-0.3,0-0.5,0-0.7c0,0.2,0,0.4,0,0.6c-1.1-14.6-24.9-29.4-55.1-32
		c-31.4-2.7-38,14.8-44,22.7c-4.4,5.9-13.6,5.3-13.6,5.3s-7.6-0.4-23.8-1.7c-15.5-1.2-96.6-8.1-111.4-8.1
		c-13.8,0-26.7-1.6-27.7,11.5c0-0.2,0-0.3,0-0.5c0,0.4,0,0.9,0,1.3c0,0.6,0,1.2,0,1.8v0.1c0,0.3,0,0.7,0,1c0-0.3,0-0.5,0-0.7
		C2258.5,978,2283.1,974.9,2283.1,974.9z"/>
</g>
</svg>
