<?xml version="1.0" encoding="utf-8"?>
<!-- Generator: Adobe Illustrator 27.0.0, SVG Export Plug-In . SVG Version: 6.00 Build 0)  -->
<svg version="1.1" id="Layer_1" xmlns="http://www.w3.org/2000/svg" xmlns:xlink="http://www.w3.org/1999/xlink" x="0px" y="0px"
	 viewBox="0 0 1000 1000" style="enable-background:new 0 0 1000 1000;" xml:space="preserve">
<style type="text/css">
	.st0{fill:#D9D9D9;}
	.st1{fill:#A8A8A8;}
	.st2{opacity:0.3;fill:#606060;}
	.st3{fill:#A8BAD4;}
	.st4{fill:#8D9CB3;}
	.st5{fill:#5E6878;}
	.st6{fill:#8A3B3B;}
	.st7{fill:none;stroke:#B36B6B;stroke-width:0.8354;stroke-miterlimit:10;}
	.st8{fill:#612929;}
	.st9{fill:#EBB584;}
	.st10{fill:#EBC8A7;}
	.st11{fill:#9E3131;}
	.st12{fill:#852929;}
	.st13{fill:#EBB481;}
	.st14{fill:#E09E60;}
	.st15{fill:#EB5842;}
	.st16{fill:#C94B39;}
	.st17{fill:#5D7D35;}
	.st18{opacity:0.3;}
	.st19{fill:#606060;}
	.st20{fill:#769E43;}
	.st21{opacity:0.18;fill:#606060;}
	.st22{fill:#758194;}
	.st23{fill:#5D6675;}
	.st24{fill:#D9883D;}
	.st25{fill:#F2D5BB;}
	.st26{fill:#872A2A;}
	.st27{opacity:0.43;}
	.st28{fill:#B8B8B8;}
	.st29{fill:#8C8C8C;}
	.st30{fill:#4D672C;}
	.st31{fill:#608037;}
	.st32{fill:#5A7833;}
	.st33{fill:#6D913E;}
	.st34{fill:#516B2E;}
	.st35{fill:#F7B94D;}
	.st36{fill:#B8A28E;}
	.st37{opacity:0.5;fill:#606060;}
</style>
<g>
	<g>
		<polygon class="st0" points="797.1,859.2 279.8,823.4 349.9,232.5 867.2,268.2 		"/>
		<g>
			<polygon class="st1" points="281.4,823 751.9,874.3 762.8,856.3 			"/>
			<polygon class="st2" points="281.4,823 751.9,874.3 762.8,856.3 797.1,859.2 828.1,597.7 819.2,891.4 288,850.8 			"/>
		</g>
	</g>
	<path class="st2" d="M990.3,354.6c0-125.1-101.4-226.5-226.5-226.5c-4.1,0-8.1,0.1-12.1,0.3l-5.1-24.1c-1.5-7.3-5.9-13.6-12.1-17.7
		c-6.3-4.1-13.8-5.5-21.1-3.9l-44,9.3c-15.1,3.2-24.8,18.1-21.6,33.2l6.6,31c-69.8,38.6-117,112.9-117,198.3
		c0,125.1,101.4,226.5,226.5,226.5c0.5,0,0.9,0,1.4,0l4.7,22.4c1.5,7.3,5.9,13.6,12.1,17.7c4.6,3,9.9,4.5,15.2,4.5
		c1.9,0,3.9-0.2,5.9-0.6l44-9.3c15.1-3.2,24.8-18.1,21.6-33.2l-5.2-24.6C938.6,521.1,990.3,443.9,990.3,354.6z M661.6,122.4
		c-1.6-7.5,3.2-14.9,10.8-16.5l44-9.3c3.7-0.8,7.4-0.1,10.5,2c3.1,2,5.3,5.2,6,8.8l4.7,22.3c-24.9,2.9-48.5,9.8-70.3,20L661.6,122.4
		z M855,585.5c1.6,7.5-3.2,14.9-10.8,16.5l-44,9.3c-3.6,0.8-7.4,0.1-10.5-2c-3.1-2-5.3-5.2-6-8.8l-4.2-20c25-1.7,48.9-7.5,71-16.6
		L855,585.5z"/>
	<circle class="st2" cx="259.2" cy="562" r="259.2"/>
	<circle class="st3" cx="272.2" cy="534.1" r="259.2"/>
	<circle class="st4" cx="272.2" cy="534.1" r="252.3"/>
	<circle class="st5" cx="272.2" cy="534.1" r="239.8"/>
	
		<ellipse transform="matrix(0.7071 -0.7071 0.7071 0.7071 -297.9638 348.9104)" class="st6" cx="272.2" cy="534.1" rx="232.7" ry="232.7"/>
	<path class="st7" d="M336.8,343.2c71.7,24.3,125.3,87.8,135.2,165"/>
	<path class="st7" d="M336.8,343.2"/>
	<path class="st7" d="M180.9,354.5c27.4-14,58.4-21.1,91.3-21.8"/>
	<path class="st7" d="M470.5,570c-16.9,94.1-99.3,165.6-198.3,165.6c-111.3,0-201.5-90.2-201.5-201.5c0-78.4,44.8-146.4,110.2-179.7
		"/>
	<path class="st8" d="M132.3,547.5c0,0,16.4,9,13.6,50.7c-2.8,41.7,9.8,72.1,51.1,77.8h16.9c0,0,28.6-22.5,16.9-58.1
		c-11.7-35.6-47.3-31.4-64.7-52.9c-17.3-21.6-15-28.3-15-28.3L132.3,547.5z"/>
	<g>
		<path class="st9" d="M116.7,545c0,0,16.4,9,13.6,50.7c-2.8,41.7,9.8,72.1,51.1,77.8h16.9c0,0,28.6-22.5,16.9-58.1
			c-11.7-35.6-47.3-31.4-64.7-52.9c-17.3-21.6-15-28.3-15-28.3L116.7,545z"/>
		<path class="st10" d="M137,570.7c0,0,4.9,19.5,3.6,43.3c-1.4,23.8,4.7,37.3,22.7,46.9c18.1,9.6,23.8,7.7,23.8,7.7
			s-32.1-10.7-37-31.2c-4.9-20.6-5.5-33.7-6.6-44.4C142.4,582.2,137,570.7,137,570.7z"/>
		<path class="st10" d="M150.1,601.7c0,0,0.3,19.5,4.7,31.8c4.4,12.3,17.8,22.5,17.8,22.5s-12.9-26.9-16.2-37.5
			C153.1,607.7,150.1,601.7,150.1,601.7z"/>
		<path class="st10" d="M146.8,583.9c0,0,8.2,17.3,11.2,25.5c3,8.2,4,9,4,9s-0.7-17.8-4.8-23.3C153.1,589.6,146.8,583.9,146.8,583.9
			z"/>
		<path class="st10" d="M169.3,633.2c0,0,4.1,10.4,12.3,20.6c8.2,10.1,10.1,12.1,10.1,12.1s-11.2-4.7-15.1-9.9
			C172.9,650.8,169.3,633.2,169.3,633.2z"/>
		<path class="st10" d="M167.3,619.7c0,0,7.2,17.6,13.2,26.1c6,8.5,6.6,10.1,6.6,10.1s-4.1-17.3-8.2-24.7
			C174.8,623.9,167.3,619.7,167.3,619.7z"/>
		<path class="st10" d="M145.5,570.7c0,0,14.8,15.9,18.4,24.4c3.6,8.5,5.5,14.8,5.5,14.8s2.9-9.3-2-18.4
			C162.4,582.5,145.5,570.7,145.5,570.7z"/>
		<path class="st10" d="M159.4,574.7c0,0,1.4,6.7,10.7,11.1c9.3,4.4,14.5,4.5,14.5,4.5L159.4,574.7z"/>
		<path class="st10" d="M175.9,594.9c0,0,10.7,8.5,12.3,18.6c1.6,10.1,0,11.2,0,11.2s-2-8.8-5.8-14.9
			C178.6,603.6,175.9,594.9,175.9,594.9z"/>
		<path class="st10" d="M177.2,615.7c0,0,8.5,6.6,9.9,15.3c1.4,8.8,1.4,8.8,1.4,8.8S177.2,621.7,177.2,615.7z"/>
		<path class="st10" d="M196.2,608.5c0,0,4,2.9,3.2,11.3c-0.7,8.3-1.6,10.3-1.6,10.3S194.5,612.4,196.2,608.5z"/>
		<path class="st10" d="M193,633.2c0,0-2.7,7.5,0,16.3c2.7,8.8,4.6,11.5,4.6,11.5s-1.7-19.5-1.9-22.6
			C195.5,635.3,193,633.2,193,633.2z"/>
		<path class="st10" d="M204.9,624.7c0,0-0.2,5.8-1.2,10.5c-1,4.7,1.2,16.9,1.2,16.9s5.2-16.6,4.5-22.1
			C208.6,624.6,204.9,624.7,204.9,624.7z"/>
	</g>
	<path class="st11" d="M105.4,517.1c-1.3-0.9-17.5-10.4-18.2-20.9c-0.7-10.4,10-35,18.2-40.2s44.8,12.5,50.7,18.7
		c5.9,6.2,13.6,16.6,10.5,24.1c-3.1,7.4-13.2,14.9-14.9,15.6C150.1,515.2,116,524.4,105.4,517.1z"/>
	<path class="st12" d="M97.7,465.1c0,0,13.2,23.1,22.2,26.1c9,3,31,4.1,34.4,3.8c3.5-0.4,12.9,0.1,12.9,0.1s-4.7,13.7-17.2,20
		c-12.5,6.2-38.8,11.9-44.8,8.9c-6-3-18.3-21-18.2-25.9C87.3,493,90,474.1,97.7,465.1z"/>
	<path class="st12" d="M104.9,487.5c0.3-0.8,4.7-11.6,7.8-16.4c3.1-4.7,6.4-6.5,6.1-6c-0.3,0.5-6.1,12.1-6.9,16.9
		c-0.8,4.7-0.8,6.1-1.7,6.7c-0.8,0.6-3.1-1.1-3.1-1.1"/>
	<path class="st12" d="M137,471.4c-1.4,0.6-3.4-0.8-6.7,8.3c-3.3,9.2-1.8,11.1-3,13.1c-1.2,1.9,0,2.1,0,2.1s4.9-8.1,6.9-11.7
		C136.1,479.5,137,471.4,137,471.4z"/>
	<path class="st8" d="M87.2,497.9c0.2,1.2,10.6,25.1,29.5,24.3c19-0.8,33.4-4.3,41.1-12.8c7.7-8.5,9.5-14.5,9.5-14.5s4.6,6.6,4.7,15
		c0.1,8.4-35.4,21.2-47.8,22.3c-12.4,1.1-18.7-1.3-23.7-4.4c-5-3.1-13-19.2-13.4-19.9C86.8,507.3,87.2,497.9,87.2,497.9z"/>
	<path class="st13" d="M170.2,399.6c0,0-12.9-7.5-26.6-2.7c-13.7,4.8-27.2,33.1-28.3,40.9c-1.2,7.8,64.9,21.5,65.7,19.4
		c0.8-2.1,4.9-27.4,2-36.7C179.9,411.2,170.2,399.6,170.2,399.6z"/>
	<path class="st14" d="M115.2,437.7c0,0,2.7-10.5,7.8-18.6c5.1-8.2,51.9,18.6,53.1,20.1c1.2,1.5,4.9,17.9,4.9,17.9
		s-27.2-3.6-39.2-5.7C129.8,449.4,117.2,443.1,115.2,437.7z"/>
	<path class="st8" d="M115.2,437.7c0,0,13.5,12.1,34.4,13.9c20.9,1.9,31.8,3.4,31.8,3.4l2.5-16.4v-8.1c0,0,5.7,16.5,6.5,20.3
		c0.8,3.8,2.2,14.9,0,16.8c-2.2,1.9-23.5-0.8-27,0s-36.2-14.1-42.2-16.2S115.2,437.7,115.2,437.7z"/>
	<path class="st11" d="M197.6,373.1c-1.8,1.4-7,5.5-10.5,8.8c-3.5,3.3,0.9,11.3,4.5,17c3.5,5.7,13.5,13.1,13.8,20.9
		c0.4,7.8-0.7,17.3-3.2,25.8c-2.5,8.5-5.3,15.8-3.5,19.4c1.8,3.6,9.2,4,11.3,1.5c2.1-2.5,23-30.6,26.5-40.8
		c3.5-10.2,1.4-28.2,0-36.4c-1.4-8.1,0-23.4-4.6-24.4C227.3,363.9,203.7,368.3,197.6,373.1z"/>
	<path class="st12" d="M214.9,366.9c0.7-0.1-6.7,20.1-2.8,31.6c3.9,11.4,7.9,16,7.5,21.6c-0.4,5.6,1.7,0.8-1.9,10.4
		c-3.5,9.6-11.9,20.4-13.5,25.4c-1.7,5,0.6,4.4,0,6.5c-0.6,2.1,1.2,2.7-2.3,3.7c-3.5,1-6.4,3.3-3.5-7.3c3-10.6,9.7-36.1,5.8-41.3
		c-4-5.1-23.5-24.1-20.3-29.9c3.2-5.8,3.2-5.8,3.2-5.8S194.4,369.7,214.9,366.9z"/>
	<path class="st8" d="M186,383.9c0,0-2.2,5.8,3.9,14.1c6.1,8.3,14.8,18.9,15.5,24.6c0.7,5.7-4.6,34.1-5.7,38.2
		c-1.1,4.2,1.5,6.5,1.9,6.7c0.4,0.1-8.3-0.5-8.6-5.3c-0.3-4.8,4.4-31.9,2.5-36.5c-1.9-4.6-10.9-17.9-14.7-23.7
		c-3.8-5.9-6.2-9.6-4.6-11.7C177.9,388.1,186,383.9,186,383.9z"/>
	<path class="st12" d="M203.2,390.9c0,0,8.3-6,11.9-7c3.6-1,7.7-1.9,7.7-1.9s-4.1,1.9-6.6,4.4c-2.6,2.6-3.5,8.7-4.6,9.5
		C210.3,396.6,203.2,390.9,203.2,390.9z"/>
	<path class="st12" d="M215.1,406c-0.3-0.8,4.4-2.9,8.8-6.5s8.2-7,8.8-8.3c0.7-1.4,2.5-3.3,2.2-2.9c-0.7,0.9-1.2,6.3-2.7,7.7
		c-1.5,1.4-3.5,4.6-5.7,6.6c-2.3,2-4.1,3.7-5.5,4.8c-1.4,1-4.9,3.6-4.9,3.6L215.1,406z"/>
	<path class="st11" d="M184.6,578.7c0,0-7.7-21.1-1.8-31.5c5.9-10.4,9.5-16.2,12.9-17.3c3.3-1.1,17.3,5.9,20.7,9s8.4,22.4,7.8,29.1
		c-0.6,6.7,7,13.1,9.2,17.1c2.2,3.9,11.5,7.5,12,14.1c0.6,6.6-14.9,18.7-14.9,18.7s-9.2-16.6-19.8-25.5
		C200.2,583.3,184.6,578.7,184.6,578.7z"/>
	<path class="st12" d="M195.7,529.9c0,0-2.3,9.6-1,18.3c1.3,8.7,15.7,31.7,20.9,36.9c5.2,5.2,9.9,11.5,14.9,14
		c5,2.5,9.7,7.1,9.7,7.1l-0.8,3.6l-8.7,8c0,0-12.2-22.6-22-27.3c-9.8-4.7-23.9-11.8-23.9-11.8s-6-15.4-3.9-23.4
		C182.9,547.2,187.4,530.5,195.7,529.9z"/>
	<path class="st12" d="M199.5,567.7c0,0,1.7-3,4.7-4.8c3-1.8,13.7-3.4,13.7-3.4s-1.6,0.4-6.6,2.7c-5,2.3-7.8,3.9-8.9,5.5
		C201.4,569.3,199.5,567.7,199.5,567.7z"/>
	<path class="st12" d="M223.7,570.7c0,0-5-0.5-8.9,3.9c-3.9,4.5-6.8,7.8-6.8,7.8s-1.4,4.7,2.3,1.4c3.6-3.3,6.8-3.8,9.2-6
		c2.3-2.2,5.2-3.2,5.2-3.2L223.7,570.7z"/>
	<path class="st8" d="M230.6,617.8c0,0,15-12.2,14.6-16.7c-0.4-4.5-11.6-13.5-14.6-18.7c-3-5.2-7.6-10.6-7-11.8
		c0.6-1.2,0.9-4.7,0.9-4.7s14.5,6.8,15.6,7.8c1.1,0.9,14.1,21.5,14.1,25.2s-7.7,12.4-9.9,14.8c-2.2,2.4-11.6,12.5-11.6,12.5
		L230.6,617.8z"/>
	<path class="st15" d="M215.1,510.1c0,0,83.5,68.1,85.8,67.8c2.2-0.3,14.8-26.2,12.5-48.1c-2.2-21.9-33.7-53.4-42.8-52.9
		c-9.1,0.5-32.4,5.4-39.6,14.4C223.9,500.2,215.1,510.1,215.1,510.1z"/>
	<path class="st16" d="M230.9,522.9c0,0,15.8-23.8,23.4-27.9c7.6-4.1,16.7-9.6,22.5-9.2c5.8,0.3,23.8,16.4,23.8,16.4
		s-23.1-29.2-29.9-30.8c-6.7-1.6-41,11.2-45.5,17.4c-4.5,6.1-13,19-12,21.4C214.1,512.5,230.9,522.9,230.9,522.9z"/>
	<path class="st8" d="M213.1,510.1c0,0,83.5,68.5,87.8,67.8c4.2-0.7,8.1-16.2,8.7-18.4c0.6-2.1,3.7-18,3.7-18s7.8,22.2,7.1,31
		c-0.6,8.8-7.2,21.8-11.6,23.7c-4.4,2-28.9-2.7-32.3-4.6s-63.8-62-64.4-64.3C211.6,525.1,213.1,510.1,213.1,510.1z"/>
	<path class="st13" d="M241.6,467.3c0,0,1.1-34,16.7-42c15.5-8,54.6-2.8,57.4-0.6c2.8,2.2,6.8,25.1,4.8,29.4
		c-2,4.3-25.5,22.6-26.7,24.2c-1.2,1.6-21.8-14.9-24.3-14.2C267,464.7,241.6,467.3,241.6,467.3z"/>
	<path class="st14" d="M244.3,468.3c0,0,34.6-23.7,43.8-26.5c9.2-2.8,28.7,4.4,30.7,6c2,1.6,3,4.4,1.6,6.2
		c-1.3,1.8-24.5,29.7-25.2,27.3c-0.6-2.4-23.1-16.2-23.1-16.2L244.3,468.3z"/>
	<path class="st8" d="M244.3,468.3c1.8,0.4,23.5-4.1,29.7-3.3c6.2,0.8,20.7,13.8,22.4,14.3c1.7,0.5,23-23.8,23-23.8
		s3.7,21.3,1.1,27.7c-2.7,6.3-20,19.1-20,19.1s-24.3-28-28.3-30.1c-4-2.1-24.4,4.8-24.4,4.8"/>
	<path class="st11" d="M261.4,402.4c0,0-0.1-29,10.8-33c10.8-4,32.4-8.9,37.6-2.5c5.2,6.5,13.6,20,7.4,24.4
		c-6.2,4.3-37.6,12-42.5,13.6C269.7,406.4,261.4,402.4,261.4,402.4z"/>
	<path class="st12" d="M260.3,402.4c0,0,0.8-28.1,9.2-33c8.5-4.9,22.4-7.4,27.6-6.5c5.2,1,9,0.1,11.8,1.8c2.8,1.7,3.9,4.6,3.9,4.6
		s-10.3,3.5-15.4,6.1c-5.1,2.6-9.5-0.9-13.5,1.5c-4,2.4-8.1,6.1-9.8,12c-1.7,5.9-2.1,15.2-2,16.2C272.3,406.2,261.2,406,260.3,402.4
		z"/>
	<path class="st8" d="M262.9,382c0,0-1.7,20.3-1.4,21.9s7.9,2.5,13.3,1c5.4-1.5,37.7-10.3,40.7-12.5s4-5.3,4-5.3s1.8,7.7,0,12.6
		c-1.7,5-54.8,22.1-59.1,19.7c-4.3-2.4-8.4-8.1-9.5-10.1c-1.1-1.9,0.4-3.9,1.1-8.5c0.6-4.6,6-18.8,6-18.8H262.9z"/>
	<path class="st13" d="M240.2,369.4c0,0,14.9-43.7,20.1-47.5c5.2-3.8,23.1,14.6,22.7,23.7c-0.4,9.1-28.5,26.7-28.5,26.7L240.2,369.4
		z"/>
	<path class="st14" d="M284,345.1c0,0-24.5,24.2-27.5,25.6c-2.9,1.4-16.4-1.4-16.4-1.4s11.7-20.8,21.4-23.8c9.7-3,17.8-4.1,18.4-3.7
		c0.7,0.4,5,1.8,4,5c-1,3.2-26.3,26.2-29.5,25.5c-3.2-0.7-13.2-2.5-13.2-2.5"/>
	<path class="st8" d="M283,343.7c0,0-3.6,6.1-8.6,10.8c-4.9,4.7-17.3,13.6-22.9,14.9c-5.6,1.4-8.9,0.8-8.9,0.8s9.1,4.5,13.4,4.8
		c4.3,0.2,26.2-12.5,29.2-15.6c3-3.1,5.8-8.9,5.1-10C289.8,348.2,283,343.7,283,343.7z"/>
	<path class="st15" d="M327.1,345.9c0.8,2.3,43.2,92.3,51.4,90.5c8.2-1.9,33.5-33.1,29.6-49.1c-3.9-16-47.5-52.5-55.3-52.8
		C345,334.1,327.1,345.9,327.1,345.9z"/>
	<path class="st16" d="M362.8,343.2c0,0-18.1,0.2-22.9,3.7c-4.8,3.4-10.6,12.4-10.6,12.4l-5.8-12.4c0,0,13.4-12.2,25.7-11.4
		c12.3,0.7,15,9.4,15,9.4"/>
	<path class="st8" d="M336.8,338.2c1.3,0.9-14.6,3-13.4,8.7c1.2,5.7,44.5,81.2,49.2,85.3c4.6,4.1,15-2.5,15-2.5s-13,15.1-19.2,17.7
		c-6.2,2.6-54.2-87.3-57.2-90.3c-3-3-5.2-11.2-1.5-15.3S332.7,335.3,336.8,338.2z"/>
	<path class="st13" d="M227.8,335.4c0,0-11.6-2.7-14.8,0c-3.2,2.7-0.4,18,6.9,19.1C227.2,355.5,231.2,341.1,227.8,335.4z"/>
	<path class="st14" d="M219.9,333.9c-0.7,0.3-4.2,5.4-1.4,9.8c2.8,4.4,8,6.7,8,6.7s-4.3,12.7-9.1,4.2c-4.8-8.5-10.4-13.2-7-17.6
		C213.9,332.5,219.9,333.9,219.9,333.9z"/>
	<path class="st8" d="M209.8,341.8c0,0,8.9,18,13,15.7c4.1-2.3,6.3-11.9,6.3-11.9s5,10,4.4,11.5c-0.6,1.5-10.4,6.4-15.4,5.6
		c-5-0.7-7.5-7.6-8.6-8.2C208.3,353.9,209.8,341.8,209.8,341.8z"/>
	<path class="st11" d="M362.2,457.1c-3.9-0.8-21.6,0.7-25.4,4.2c-3.7,3.5-16.9,34.2-13.4,43c3.5,8.8,43.6,15.7,54.4,11.1
		c10.8-4.6,11.1-39.4,8.2-48C383.1,458.9,362.2,457.1,362.2,457.1z"/>
	<path class="st12" d="M351.7,457.3c0,0-9.5,13.6-12.7,19.5c-3.3,5.9-1,22.6,3.3,27.2c4.2,4.6,17.6,6.3,24.2,6.1
		c6.5-0.2,17.6,0,17.6,0s-4.2,7.7-14,9.8c-9.8,2.1-42.7-2.1-47.2-7.7c-4.4-5.6-2.2-17.3-1.8-19.9c0.3-2.6,6.4-23.4,11.1-27.2
		S340.6,455.1,351.7,457.3z"/>
	<path class="st12" d="M334,497.1c0.5-2,6.7-7.9,12.9-11.7c6.2-3.8,20.3-7,20.3-7s-13,8.6-20.3,14.7
		C339.6,499.1,333.6,498.4,334,497.1z"/>
	<path class="st12" d="M379.5,476.9c-0.9-0.3-9.4,7.3-12.3,11.3c-2.9,4-4,5.2,1.2,3.7c5.2-1.5,12.1-10.2,11.1-13.5"/>
	<path class="st8" d="M329.7,468.3c0,0-12.1,25.9-9.5,34.9s3,12.2,16.6,14.4c13.7,2.1,32.9,5.4,39.4,0s6.4-5.4,6.4-5.4
		s6.5,17.5-5.8,24.4c-12.3,6.9-49.3-3-53.4-6.7c-4.1-3.6-14.1-20.4-13.9-27.7s0.6-13.6,3.4-17.5
		C315.7,480.7,329.7,468.3,329.7,468.3z"/>
	<path class="st15" d="M323.4,545.1c1.7,0.5,34.5,4.7,41.3,18.8c6.8,14.1-3.1,54.9-14.1,64.9c-11.1,10-37.8,24.6-41.1,20.7
		C306.3,645.6,323.4,545.1,323.4,545.1z"/>
	<path class="st16" d="M354.8,554.8c0,0-14.7,3.2-21.2,9.1c-6.6,5.8-11.7,24.6-12.5,30.9c-0.8,6.2-7.8,50-7.8,50l-4.1,4.7
		c0,0,1.3-53.7,4.1-69.6c2.8-15.8,5.8-32.7,9.8-34.8C327,542.9,347.2,548.7,354.8,554.8z"/>
	<path class="st8" d="M317,562.2c0,0-6.5,30.2-6,47.6s-1.5,39.7-1.5,39.7s6.1,2.5,20.7-6.8c14.6-9.3,23-15.4,25.9-21.5
		c2.9-6.1,7.3-19.6,7.3-19.6s3,27.1-4.4,38.1c-7.4,11-33.8,36.2-45.4,28.9c-11.6-7.2-19-30.8-20.3-35.5s-2.9-32.2,0-37.7
		c2.9-5.5,12.8-11.7,12.8-11.7L317,562.2z"/>
	<path class="st13" d="M241.6,680.3c0,0,12.9,22.1,24.7,30.2c11.8,8.1,53.9,5.9,53.9,5.9s-17.9-50.1-23.4-58.6
		c-5.5-8.5-14.4-13.6-15.5-13.6S244.1,666.7,241.6,680.3z"/>
	<path class="st14" d="M266.3,710.5c0,0,10.6-30.1,20.2-38.7c9.7-8.6,13.5-10.7,13.5-10.7l20.2,55.4
		C320.1,716.4,273.2,721.2,266.3,710.5z"/>
	<path class="st8" d="M241.6,680.3c-0.5,0.3,10.2,30.1,30.6,31.5c15.6,1,48.3,3.1,48.3,3.1s3.4,4.6,3.9,7.2
		c0.5,2.6-49.9,26-64.3,23.2c-14.4-2.8-16-18.5-23.7-26.2C228.7,711.3,241.6,680.3,241.6,680.3z"/>
	<path class="st15" d="M212,683.9c-1.6-0.3-19.4,7-24.9,19.8c-5.5,12.8,1.7,24.8,11.5,31.9c9.8,7.1,31.3,5.1,32.5,4.9
		C232.4,740.3,212,683.9,212,683.9z"/>
	<path class="st16" d="M216.5,696.4c0,0-12.1-0.7-14.1,11.3c-2,12-1.9,18.5,7.1,21s18.3,0,18.3,0"/>
	<path class="st8" d="M201.3,689.3c0,0-0.6,0.3-1.6,0.9c-4,2.5-14.1,10.2-12.6,24.5c1.8,17.8,13.1,22.8,23.1,25.3
		c10,2.5,20.9,0.5,20.9,0.5s-13.9,8.1-22.9,8.9c-9,0.9-29.5-9.1-35.6-16.6c-6.1-7.6-10.2-17.6-9.3-23.1c0.9-5.5,18.8-15.5,23.9-18.1
		"/>
	<path class="st11" d="M384.3,591.6c0,0,4.1-7.4,10.3-6.5c6.2,1,28.8,22,31.1,27.5c2.3,5.5,5.2,13,3.6,27.8
		c-1.6,14.9-36.4,48.3-44.9,48.8c-8.5,0.5-19.5-11.2-20.3-16.4c-0.8-5.2,4.1-17.9,8.1-23.4c4-5.4,11.6-31,12.2-37.8
		C384.9,604.9,384.3,591.6,384.3,591.6z"/>
	<path class="st12" d="M396.8,586c0,0-0.4,3.5,0,11.7c0.4,8.2,7.7,18.3,7.6,27c-0.1,8.7-2.7,10.4-10.8,22
		c-8.1,11.7-14.2,13.3-17.8,23.3c-3.6,10-8.6,14.4-7.4,12.9c1.1-1.4-9.1-7.1-7.5-14.6c1.6-7.4,7.8-21.7,13.3-29.9
		c5.5-8.3,10.3-21.9,8.4-30c-1.9-8.1-3-14.2,0-18.1C385.6,586.5,389.1,580.7,396.8,586z"/>
	<path class="st12" d="M396.8,621.1c0,0,4.3-6.5,13-5c8.7,1.4,14.9,5,14.9,5s-18.9,3.9-20.3,3.6C403,624.3,396.8,621.1,396.8,621.1z
		"/>
	<path class="st8" d="M392,583.9c0.7,0.7-8.5,5.2-9.4,12.8c-0.9,7.6,5.3,21.3,1.5,29.7c-3.8,8.4-11.9,16.3-15,27.5
		c-3.1,11.2-8.5,13.4-5,19c3.6,5.6,8.8,13,13.4,14.6c4.6,1.6,14.6-1.6,14.6-1.6s-6.1,10.3-14.6,11.5c-8.4,1.2-24.9-16.5-27.5-20.3
		c-2.6-3.8-6.7-18.9-1.4-31.3c5.3-12.4,9.6-16,13.6-22.7c4.1-6.7,3.2-26,6.9-30.3C372.6,588.5,389.2,580.8,392,583.9z"/>
	<path class="st15" d="M474.1,527.4c-1.7-0.4-66.4,42.9-63.3,49.1c3.1,6.2,17,31.9,34.4,27.9c17.4-4,33.2-18.9,37.5-28.2
		C491.9,556.5,474.1,527.4,474.1,527.4z"/>
	<path class="st16" d="M474.1,527.4c0,0,8.2,13.9,6.9,17.2s-3.4,7.5-3.4,7.5s-35.2,17.9-40,24.4c-4.8,6.5-7.9,24.2-7.9,24.2
		s-18.1-9.9-19.1-26C409.8,558.6,467.5,523.3,474.1,527.4z"/>
	<path class="st8" d="M422.8,556.5c0,0-13,10.9-9.4,21.4c3.6,10.5,19.2,26.9,28.1,25.9c8.8-1,26.6-10.7,26.6-10.7
		s-17.1,20.4-22.2,24.7c-5.2,4.3-17.1,4.7-17.1,4.7s-3.9-14.2-16-24.2c-12.1-10-18.2-13.2-18.2-13.2s4.4-18.2,8-21.3
		C406.2,560.7,422.8,556.5,422.8,556.5z"/>
	<path class="st13" d="M413.5,471.3c0,0,11.6-16.5,19.2-15.8c7.6,0.7,11.9,35.2,11.9,35.2s-24,4.2-27.2,3.4
		C414.4,493.2,413.5,471.3,413.5,471.3z"/>
	<path class="st14" d="M435.2,456.9c0,0-6.7,18.4-8.4,24.5c-1.7,6.1-7.6,14-8.5,14c-0.8,0-4.8-3.8-4.8-14c0-10.2,0-13.1,0-13.1
		S430.5,446.7,435.2,456.9z"/>
	<path class="st8" d="M413.5,468.3c0,0,1,22.6,4.4,24.2c3.4,1.5,26.7-1.8,26.7-1.8S432,507,426,509.3c-6,2.2-17.8,5.2-19.5,4.1
		c-1.7-1.1-5.7-15.6-6-20.9c-0.3-5.3,2.4-12.7,3.2-14.1C404.4,476.9,413.5,468.3,413.5,468.3z"/>
	<path class="st11" d="M406.8,446.1c0,0,7.5-40.5,17.6-42.2s27.2,11.5,28.6,17.1c1.4,5.6,1.7,14,0,17.4
		C451.3,441.7,408.1,448.1,406.8,446.1z"/>
	<path class="st12" d="M433.3,405.2c0,0-8,8.8-10.7,14.4c-2.8,5.6-5.5,15.6-3.8,15.3c1.6-0.3,5.7-8.3,10.4-9.2
		c4.7-0.8,11-0.6,11-0.6s-3.2,1.7-6.2,4.6s-6,5-7,6.7c-1.1,1.7-2.9,6.8-2.4,7.7c0.5,0.9-14.9,6.8-17.6,3.4c-2.7-3.4,4-32.6,7.8-37.5
		c3.8-4.9,3.6-7.7,9.8-7.9C430.6,401.9,433.3,405.2,433.3,405.2z"/>
	<path class="st8" d="M419.8,405.2c-0.5,0-8.3,11.4-9.6,16.5c-1.3,5-5.8,24.1-1.6,25.8c4.2,1.7,15.7-1.9,26.2-4
		c10.5-2.1,14.4-2.2,14.4-2.2s-28.6,13.3-36.7,18.6c-8.1,5.3-18.3-5-19.5-9.7c-1.2-4.7,2.2-19,4.3-22.6c2.1-3.6,9.3-14,12.2-16.5
		c2.9-2.6,11.4-5,11.4-5"/>
	<path class="st17" d="M440,524.8c0.9-0.9,6.1-14.1,14.1-17.5c8-3.4,18.3-5.2,17.9-3.6c-0.4,1.6-14.2,18.8-21.5,22.2
		c-7.3,3.4-12.4,1.6-12.4,1.6s-8.2,4-9.1,4.4c-0.9,0.4-1.2-4.3,0.7-4.7C431.6,526.7,440,524.8,440,524.8z"/>
	<path class="st17" d="M313.7,408.6c0,0,14.7-1.1,20.3,5.7c5.6,6.8,7.4,10,6.7,12c-0.7,2,0.2,7,0.2,7l6.9,13.2c0,0-4.1,1.5-5.9,1
		c-1.8-0.5-4.9-15.6-4.9-15.6s-11.4-8.6-14-10.9C320.2,418.6,313.7,408.6,313.7,408.6z"/>
	<path class="st8" d="M430,531.4l8.3-4c0,0,8.3,0.7,13.4-2.1c5.1-2.8,15.7-15.2,16.5-16.2c0.8-1.1,3.9-5.4,3.9-5.4
		s-1.7,7.1-5.1,12.3c-3.5,5.1-17.1,15.2-20,15.9c-2.9,0.7-7.7-2.2-9.5-1.2c-1.8,1.1-5.2,3.6-5.6,3.5C431.4,534,430,531.4,430,531.4z
		"/>
	<path class="st8" d="M315.2,410.9c0,0,8.4,8.8,14.1,14.2c5.7,5.4,8.4,6,8.4,6s0.8,9,2,12c1.1,3,2.1,4.3,2.1,4.3s-5.4-1.6-6.5-3
		c-1.1-1.4-1.3-10.6-1.3-10.6s-7.9-8-11.1-10.6s-7-6.6-7.6-8C314.6,414,315.2,410.9,315.2,410.9z"/>
	<path class="st17" d="M85.3,559.5c0,0,15,3.2,19.6,12.8c4.6,9.6,4.5,16.5,7,21.3c2.4,4.8,7,11,7,12.7c0,1.7-6.7,8-7,7.4
		c-0.2-0.6-5-15.6-7-18.8c-2-3.1-8-6-11.5-12.3C89.8,576.2,85.3,559.5,85.3,559.5z"/>
	<path class="st8" d="M85.3,560.9c0,0,2.5,17.1,9.8,24.2c7.3,7.1,7.9,4.3,10.5,11.2c2.7,6.9,6.2,17.4,6.2,17.4l7-7.4
		c0,0-0.3,8.5,0,9.5c0.3,0.9-7.5,8.5-9,9c-1.5,0.6-6.6-9-7.8-12.9c-1.2-3.9-3.3-12.2-6-14.8c-2.7-2.6-6.8-7.8-9.1-10.4
		C84.7,584,85.3,560.9,85.3,560.9z"/>
	<g class="st18">
		<g>
			<path class="st19" d="M614.3,536.1L614.3,536.1c-2.9-19.9-7.1-44.8-9.1-54.9c0.6,0.8,1.1,1.5,1.6,2.1c0.8,0.9,1.8,2,3,1.8
				c1.2-0.2,1.9-1.4,2-2.6c0-0.1,0-0.1,0-0.2c0-1.2-0.7-2.4-1.3-3.4c-1.6-2.7-3.6-9.7-6.6-5.9c-0.2,0.3-0.4,0.5-0.5,0.8
				c-2.7-9.4-8.7-27.4-15.2-43.3c0.2,0.2,0.4,0.3,0.6,0.5c1.9,1.7,4.6,2.8,7.1,3.5c1,0.3,6.5,0.3,6.8,0.7c-0.4-0.5-0.9-1.1-1.3-1.6
				c-2.8-3.3-14-21-16.2-11.1c0,0.2,0,0.4-0.1,0.6c-3.8-8.7-7.6-16.2-10.8-20.1c-0.7-0.9-1.5-1.8-2.3-2.8c3.8,1.8,8.2,2.6,12.4,2
				c0.9-0.1,1.9-0.4,2.2-1.2c0.5-1.1-0.7-2.2-1.7-2.9c-3.9-2.7-7.8-5.4-11.6-8.1c-2.5-1.7-8.2-7.5-11.1-7.8
				c-1.9-0.2-2.6,0.7-2.5,2.1c-9.9-12.9-19.9-26.1-21.3-27.2c-2.1-1.7-5.1,2.4-5.1,2.4s21.4,27.3,32.1,44.2c-0.5-0.2-1-0.5-1.4-0.7
				c-3.3-1.5-7.2-3-10.6-4.3c-10-11.5-22.6-27.2-27.6-31.6c-6.3-5.5-12.2-17.1-13.5-17.2c-1.3-0.1-0.8,8.3,1.7,11.1
				c0,0,16,17.2,29.2,32.2c-0.1,4.7-1.2,9.4-2,14.1c-1,5.8-1.4,12,1.2,17.2c0.5,1.1,1.4,2.3,2.7,2.2c1.8,0,2.4-2.4,2.5-4.2
				c0.2-8.7-0.3-17.5-1.6-26.2c3.5,4,6.7,7.8,9.2,10.9c0.8,1.8,1.4,4.3,1.3,7.7c-0.4,9.1-0.9,12.9-2.8,16.3
				c-1.9,3.4,1.1,13.9,2.8,16.6c1.7,2.7,2.9,7.4,4.6,5.3c1.7-2.1,1.7-13.4,2.5-21.9c0.6-6.4,0-10-1.5-13.2
				c4.5,8.5,8.4,19.1,11.7,29.9c0.2,1.1-5.9,8.9-4.5,16.3c1.4,7.5,1.7,23.4,4.5,20.7c1.9-1.7,4.3-10.4,5.3-17.8
				c1,3.9,1.8,7.7,2.6,11.2c2.5,11.4,4.5,27.5,6.4,40.4c-1.7,2-3.5,4.7-4.2,8.2c-1.4,7.2-7.4,16.8-4.4,19.8c3,3,5.5,3.3,7.6,0
				l2.4-18.5c1.3,7.7,2.6,12.7,4.1,12.2c1.8-0.6,2.4-10.7,2-23.6c1.2,1.3,2.7,2.8,4.1,5c1.9,2.8,4.9,6.5,7.7,9.7
				c0.2,1.3,0.4,2.6,0.6,3.8c-2.2,1.8-6.2,5.5-9,11.3c-4,8.5-7.1,18.8-5.8,18.1c1.3-0.7,11.5-17.2,16-21.7c0.5,2.6,0.9,4.6,1.2,6
				c1.5,7,5.6,19.3,6.7,14.7c0.3-1.3-0.5-8.2-1.7-17.6c3.5,7.1,10.9,15.7,10.9,15.7s4.2-0.9-2.9-15.1
				C616.6,532.3,614.3,536.1,614.3,536.1z M571.4,413.8c4.2,7.8,10.6,19.4,16.5,32.1c-2.6-3.2-5.5-6.5-8.2-9c-2-1.9-3.5-3.7-4.6-5.3
				c-1-2.3-2-4.6-3-6.7l0,0c0,0,0,0,0,0c-2.4-5.1-4.8-9.6-7.3-13.2c0,0,0,0,0,0C566.6,413.9,569.1,414.2,571.4,413.8z M560.2,414.2
				c0,0.1,0.1,0.1,0.1,0.2C560.3,414.3,560.2,414.3,560.2,414.2z M604.6,509.7c-6.3-7.7-10.3-13.4-10.3-13.4l0,0
				c-1.2-10.3-2.9-20.3-5.3-27.3c-2.2-6.6-4.9-14.2-7.7-21.8c1,1.3,1.9,2.7,2.7,4.1c1.8,3.2,5.6,4.6,8.5,5.1
				c5.3,12.5,9.5,25.2,10.4,35.6c0.5,6.2,1.2,12.2,1.8,18C604.7,509.9,604.7,509.8,604.6,509.7z"/>
			<path class="st19" d="M561.8,505.8c0.6,0.7,1.1,1.3,1.7,2c5.9,7.1,11.9,14.3,17.8,21.4c-5-20.1-23.2-33.7-35.9-50.1
				c-2.5-3.3-4.9-6.7-7-10.3c2.1,2.3,4,4.1,5.1,4.9c3.6,2.5,8.6,3.3,12.2,1c-1.6,1-12.2-8.7-13.6-10c-4-3.6-7-8.6-10.9-12
				c-0.4,0.5-0.6,1-0.7,1.7c-3.4-7-6.6-14.1-9.7-21.2c-1.1-2.4-2.1-4.9-3.2-7.5c0,0,0,0,0.1,0c4.7,4,10.7,6.4,16.8,6.6
				c-1.8-2.6-4.8-4.2-7.5-6c-2.8-1.9-5.5-4-7.9-6.4c-1.5-1.5-3.2-4.8-5.6-4.7c-0.1,0-0.2,0-0.3,0c-4.4-9.9-9.6-19.6-16.7-26.7
				c2.9,8.9,7,17.6,10.6,26.3c6,14.9,12.1,29.8,20.1,43.7c7.4,12.9,16.4,24.8,25.8,36.4c-0.5,0.7-0.5,2.1,0,4.1
				c2.7,11.6,5.6,23.1,8.4,34.6c4.4-7,4.4-16,1.9-23.9C562.8,508.7,562.3,507.3,561.8,505.8z"/>
			<path class="st19" d="M618.8,520.8c0.9,0.4,2,0,2.6-0.8c2.6-2.9,6.9-18.9,2-21.5c-4.2-2.2-5.6,15.5-5.8,18.7
				C617.5,518.6,617.6,520.3,618.8,520.8z"/>
			<path class="st19" d="M642.6,523.6c1,0.8,5.5,2.7,5.8,3.7c-1.1-2.9-9.4-21-14.2-22.6c-1.9-7.9-3.8-15.9-5.7-23.8
				c2.5,2.2,5.8,3.6,9.2,3.6c-0.2-5.7-4.2-10.5-7.9-14.9c-2.2-2.6-4.4-5.4-5.9-8.4c-2.6-11.8-4.3-27.3-10.2-37.4
				c-3.4,5.5,3.1,18.9,4.3,25c2,10.2,3.4,20.5,5.2,30.8c4.4,25.4,11.4,50.4,20.8,74.3c-1.4-12-3.9-23.8-6.6-35.5
				C638.9,520.3,640.7,522.1,642.6,523.6z"/>
		</g>
	</g>
	<g>
		<path class="st20" d="M617.3,533.5L617.3,533.5c-2.9-19.9-7.1-44.8-9.1-54.9c0.6,0.8,1.1,1.5,1.6,2.1c0.8,0.9,1.8,2,3,1.8
			c1.2-0.2,1.9-1.4,2-2.6c0-0.1,0-0.1,0-0.2c0-1.2-0.7-2.4-1.3-3.4c-1.6-2.7-3.6-9.7-6.6-5.9c-0.2,0.3-0.4,0.5-0.5,0.8
			c-2.7-9.4-8.7-27.4-15.2-43.3c0.2,0.2,0.4,0.3,0.6,0.5c1.9,1.7,4.6,2.8,7.1,3.5c1,0.3,6.5,0.3,6.8,0.7c-0.4-0.5-0.9-1.1-1.3-1.6
			c-2.8-3.3-14-21-16.2-11.1c0,0.2,0,0.4-0.1,0.6c-3.8-8.7-7.6-16.2-10.8-20.1c-0.7-0.9-1.5-1.8-2.3-2.8c3.8,1.8,8.2,2.6,12.4,2
			c0.9-0.1,1.9-0.4,2.2-1.2c0.5-1.1-0.7-2.2-1.7-2.9c-3.9-2.7-7.8-5.4-11.6-8.1c-2.5-1.7-8.2-7.5-11.1-7.8c-1.9-0.2-2.6,0.7-2.5,2.1
			c-9.9-12.9-19.9-26.1-21.3-27.2c-2.1-1.7-5.1,2.4-5.1,2.4s21.4,27.3,32.1,44.2c-0.5-0.2-1-0.5-1.4-0.7c-3.3-1.5-7.2-3-10.6-4.3
			c-10-11.5-22.6-27.2-27.6-31.6c-6.3-5.5-12.2-17.1-13.5-17.2c-1.3-0.1-0.8,8.3,1.7,11.1c0,0,16,17.2,29.2,32.2
			c-0.1,4.7-1.2,9.4-2,14.1c-1,5.8-1.4,12,1.2,17.2c0.5,1.1,1.4,2.3,2.7,2.2c1.8,0,2.4-2.4,2.5-4.2c0.2-8.7-0.3-17.5-1.6-26.2
			c3.5,4,6.7,7.8,9.2,10.9c0.8,1.8,1.4,4.3,1.3,7.7c-0.4,9.1-0.9,12.9-2.8,16.3c-1.9,3.4,1.1,13.9,2.8,16.6c1.7,2.7,2.9,7.4,4.6,5.3
			c1.7-2.1,1.7-13.4,2.5-21.9c0.6-6.4,0-10-1.5-13.2c4.5,8.5,8.4,19.1,11.7,29.9c0.2,1.1-5.9,8.9-4.5,16.3
			c1.4,7.5,1.7,23.4,4.5,20.7c1.9-1.7,4.3-10.4,5.3-17.8c1,3.9,1.8,7.7,2.6,11.2c2.5,11.4,4.5,27.5,6.4,40.4c-1.7,2-3.5,4.7-4.2,8.2
			c-1.4,7.2-7.4,16.8-4.4,19.8c3,3,5.5,3.3,7.6,0l2.4-18.5c1.3,7.7,2.6,12.7,4.1,12.2c1.8-0.6,2.4-10.7,2-23.6
			c1.2,1.3,2.7,2.8,4.1,5c1.9,2.8,4.9,6.5,7.7,9.7c0.2,1.3,0.4,2.6,0.6,3.8c-2.2,1.8-6.2,5.5-9,11.3c-4,8.5-7.1,18.8-5.8,18.1
			c1.3-0.7,11.5-17.2,16-21.7c0.5,2.6,0.9,4.6,1.2,6c1.5,7,5.6,19.3,6.7,14.7c0.3-1.3-0.5-8.2-1.7-17.6c3.5,7.1,10.9,15.7,10.9,15.7
			s4.2-0.9-2.9-15.1C619.6,529.7,617.3,533.5,617.3,533.5z M574.3,411.2c4.2,7.8,10.6,19.4,16.5,32.1c-2.6-3.2-5.5-6.5-8.2-9
			c-2-1.9-3.5-3.7-4.6-5.3c-1-2.3-2-4.6-3-6.7l0,0c0,0,0,0,0,0c-2.4-5.1-4.8-9.6-7.3-13.2c0,0,0,0,0,0
			C569.6,411.3,572.1,411.6,574.3,411.2z M563.1,411.6c0,0.1,0.1,0.1,0.1,0.2C563.2,411.7,563.2,411.7,563.1,411.6z M607.5,507.1
			c-6.3-7.7-10.3-13.4-10.3-13.4l0,0c-1.2-10.3-2.9-20.3-5.3-27.3c-2.2-6.6-4.9-14.2-7.7-21.8c1,1.3,1.9,2.7,2.7,4.1
			c1.8,3.2,5.6,4.6,8.5,5.1c5.3,12.5,9.5,25.2,10.4,35.6c0.5,6.2,1.2,12.2,1.8,18C607.7,507.3,607.6,507.2,607.5,507.1z"/>
		<path class="st20" d="M564.8,503.2c0.6,0.7,1.1,1.3,1.7,2c5.9,7.1,11.9,14.3,17.8,21.4c-5-20.1-23.2-33.7-35.9-50.1
			c-2.5-3.3-4.9-6.7-7-10.3c2.1,2.3,4,4.1,5.1,4.9c3.6,2.5,8.6,3.3,12.2,1c-1.6,1-12.2-8.7-13.6-10c-4-3.6-7-8.6-10.9-12
			c-0.4,0.5-0.6,1-0.7,1.7c-3.4-7-6.6-14.1-9.7-21.2c-1.1-2.4-2.1-4.9-3.2-7.5c0,0,0,0,0.1,0c4.7,4,10.7,6.4,16.8,6.6
			c-1.8-2.6-4.8-4.2-7.5-6c-2.8-1.9-5.5-4-7.9-6.4c-1.5-1.5-3.2-4.8-5.6-4.7c-0.1,0-0.2,0-0.3,0c-4.4-9.9-9.6-19.6-16.7-26.7
			c2.9,8.9,7,17.6,10.6,26.3c6,14.9,12.1,29.8,20.1,43.7c7.4,12.9,16.4,24.8,25.8,36.4c-0.5,0.7-0.5,2.1,0,4.1
			c2.7,11.6,5.6,23.1,8.4,34.6c4.4-7,4.4-16,1.9-23.9C565.7,506.1,565.3,504.7,564.8,503.2z"/>
		<path class="st20" d="M621.7,518.2c0.9,0.4,2,0,2.6-0.8c2.6-2.9,6.9-18.9,2-21.5c-4.2-2.2-5.6,15.5-5.8,18.7
			C620.4,516,620.5,517.7,621.7,518.2z"/>
		<path class="st20" d="M645.5,521c1,0.8,5.5,2.7,5.8,3.7c-1.1-2.9-9.4-21-14.2-22.6c-1.9-7.9-3.8-15.9-5.7-23.8
			c2.5,2.2,5.8,3.6,9.2,3.6c-0.2-5.7-4.2-10.5-7.9-14.9c-2.2-2.6-4.4-5.4-5.9-8.4c-2.6-11.8-4.3-27.3-10.2-37.4
			c-3.4,5.5,3.1,18.9,4.3,25c2,10.2,3.4,20.5,5.2,30.8c4.4,25.4,11.4,50.4,20.8,74.3c-1.4-12-3.9-23.8-6.6-35.5
			C641.9,517.7,643.6,519.5,645.5,521z"/>
	</g>
	<g>
		<path class="st2" d="M554.1,653.1c-12-23.8-6.2-72.7-6.2-72.7s-5,3.7-11.1,13.9c-1.5,2.6-3.1,5.6-4.8,9.1
			c-8,17.3,0.5,51.9,1.6,63.3c1.1,11.4-78.8,174.9-78.8,184c0,9.1,0,22.9,12.9,30.4c1.3,0.8,2.7,1.3,4.2,1.7c12.1,3,26-8.2,26-8.2
			s-13.1-2.4-17.3-6.4c-4.2-4,0.4-37.6,32.6-103.2S554.1,653.1,554.1,653.1z"/>
		<path class="st21" d="M554.1,653.1c-12-23.8-6.2-72.7-6.2-72.7s-3.5,2.6-8.2,9.3c-2.9,33.3,9.1,67.3-6.7,98.8
			c-10.2,20.5-13.6,40.9-23.9,61.4c-15.3,27.3-27.3,54.5-40.9,81.8c-6.8,15.3-3.4,37.5,15.3,46c3.7,0.9,7.3,0.3,11-0.9
			c2-1.3,3.3-2.3,3.3-2.3s-13.1-2.4-17.3-6.4c-4.2-4,0.4-37.6,32.6-103.2S554.1,653.1,554.1,653.1z"/>
		<g>
			<path class="st4" d="M545.1,662.3c0,0-26.8-56.6,5.9-93.2s53-27.6,58.2,0c5.2,27.6,15.7,70.8-53,100.9c0,0-38.6,94.9-45.2,138.7
				c-6.5,43.8-9.8,73.5-22.3,75c-12.4,1.5-25.5-5.7-17.7-29.9c7.9-24.2,56.9-132,62.8-153.7C539.8,678.5,545.1,662.3,545.1,662.3z"
				/>
			<path class="st22" d="M552,652.3c0,0-13.4-36-2.5-57.1c10.9-21.1,21.2-39.9,36.4-39.7c15.2,0.3,15.2,39.4,3.2,62
				C577,640.2,552,652.3,552,652.3z"/>
			<path class="st0" d="M484.3,872.3c2.2,0,14-36,17.8-52.9c3.8-16.9,6.7-34.7,8.3-34.4c1.6,0.3-15.7,78.6-17.7,84.4
				c-2,5.7-4.5,8-4.5,8L484.3,872.3z"/>
			<path class="st0" d="M604,563.5c0,0,6.1,34.7,2.7,49.1c-3.4,14.4-31.1,45.8-33,42.6c-1.9-3.2,6.8-10.7,8.3-13
				c1.5-2.3,19.7-23.4,20.9-32.7C604,600.2,604,563.5,604,563.5z"/>
		</g>
	</g>
	<g>
		<g>
			<circle class="st22" cx="773.5" cy="343" r="226.5"/>
		</g>
		<g>
			<circle class="st23" cx="773.5" cy="343" r="219.7"/>
		</g>
		<g>
			<path class="st22" d="M807,614c-5.4,0-10.6-1.5-15.2-4.5c-6.3-4.1-10.6-10.4-12.1-17.7l-17.7-83.7l98.8-20.9l17.7,83.7
				c3.2,15.1-6.5,30-21.6,33.2l-44,9.3C810.9,613.8,808.9,614,807,614z M778.6,519l14.8,69.9c0.8,3.6,2.9,6.8,6,8.8
				c3.1,2,6.8,2.7,10.5,2l44-9.3c7.5-1.6,12.3-9,10.8-16.5l-14.8-69.9L778.6,519z"/>
		</g>
		<g>
			<path class="st22" d="M675.2,197.3l-17.7-83.7c-3.2-15.1,6.5-30,21.6-33.2l44-9.3c7.3-1.5,14.8-0.2,21.1,3.9
				c6.3,4.1,10.6,10.4,12.1,17.7l17.7,83.7L675.2,197.3z M682,94.2c-7.5,1.6-12.3,9-10.8,16.5l14.8,69.9l71.3-15.1l-14.8-69.9
				c-0.8-3.6-2.9-6.8-6-8.8c-3.1-2-6.8-2.7-10.5-2L682,94.2z"/>
		</g>
		<g>
			<circle class="st13" cx="773.5" cy="343" r="209.7"/>
		</g>
		<g>
			<circle class="st24" cx="773.5" cy="343" r="187.5"/>
		</g>
		<g>
			<circle class="st14" cx="773.5" cy="343" r="179.3"/>
		</g>
		<g>
			<path class="st25" d="M662.4,273.5H654c-0.5,0-1-0.5-1-1v-26.3c0-0.6,0.5-1,1-1h8.3c0.6,0,1,0.4,1,1v26.3
				C663.4,273,662.9,273.5,662.4,273.5z"/>
		</g>
		<g>
			<path class="st25" d="M708.2,298.3l-4.8,6.8c-0.3,0.4-0.9,0.6-1.4,0.2L680.5,290c-0.4-0.3-0.6-0.9-0.2-1.4l4.8-6.8
				c0.3-0.4,0.9-0.6,1.4-0.2l21.5,15.3C708.4,297.2,708.5,297.8,708.2,298.3z"/>
		</g>
		<g>
			<path class="st25" d="M698.4,245.1h-8.3c-0.5,0-1-0.4-1-1v-26.3c0-0.6,0.5-1,1-1h8.3c0.5,0,1,0.4,1,1v26.3
				C699.4,244.7,699,245.1,698.4,245.1z"/>
		</g>
		<g>
			<path class="st25" d="M624.1,299.8l2.7-7.8c0.2-0.5,0.8-0.8,1.3-0.6L653,300c0.5,0.2,0.8,0.8,0.6,1.3l-2.7,7.8
				c-0.2,0.5-0.8,0.8-1.3,0.6l-24.9-8.7C624.2,300.9,624,300.3,624.1,299.8z"/>
		</g>
		<g>
			<path class="st25" d="M672.9,358.5l3.5-7.5c0.2-0.5,0.8-0.7,1.3-0.5l23.8,11.3c0.5,0.2,0.7,0.8,0.5,1.3l-3.5,7.5
				c-0.2,0.5-0.8,0.7-1.3,0.5l-23.8-11.3C672.8,359.6,672.6,359,672.9,358.5z"/>
		</g>
		<g>
			<path class="st25" d="M630.8,389.4l-4.1-7.2c-0.3-0.5-0.1-1.1,0.4-1.4l23-12.9c0.5-0.3,1.1-0.1,1.4,0.4l4.1,7.2
				c0.3,0.5,0.1,1.1-0.4,1.4l-23,12.9C631.7,390,631.1,389.9,630.8,389.4z"/>
		</g>
		<g>
			<path class="st25" d="M683.1,403.2l3.5-7.5c0.2-0.5,0.8-0.7,1.3-0.5l23.8,11.3c0.5,0.2,0.7,0.8,0.5,1.3l-3.5,7.5
				c-0.2,0.5-0.8,0.7-1.3,0.5l-23.8-11.3C683,404.3,682.8,403.7,683.1,403.2z"/>
		</g>
		<g>
			<path class="st25" d="M665.4,312.7l5.9,5.8c0.4,0.4,0.4,1,0,1.4l-18.5,18.8c-0.4,0.4-1,0.4-1.4,0l-5.9-5.8c-0.4-0.4-0.4-1,0-1.4
				l18.5-18.8C664.4,312.4,665,312.3,665.4,312.7z"/>
		</g>
		<g>
			<path class="st25" d="M704.6,391.4l3.5-7.5c0.2-0.5,0.8-0.7,1.3-0.5l23.8,11.2c0.5,0.2,0.7,0.8,0.5,1.3l-3.5,7.5
				c-0.2,0.5-0.8,0.7-1.3,0.5l-23.8-11.2C704.6,392.5,704.3,391.9,704.6,391.4z"/>
		</g>
		<g>
			<path class="st25" d="M787.1,375l-1.3,8.2c-0.1,0.5-0.6,0.9-1.1,0.8l-26-4.1c-0.5-0.1-0.9-0.6-0.8-1.1l1.3-8.2
				c0.1-0.5,0.6-0.9,1.1-0.8l26,4.1C786.8,373.9,787.1,374.5,787.1,375z"/>
		</g>
		<g>
			<path class="st25" d="M728.7,325.8l-2.2,8c-0.1,0.5-0.7,0.8-1.2,0.7l-25.4-6.8c-0.5-0.1-0.8-0.7-0.7-1.2l2.2-8
				c0.1-0.5,0.7-0.8,1.2-0.7l25.4,6.8C728.5,324.8,728.8,325.3,728.7,325.8z"/>
		</g>
		<g>
			<path class="st25" d="M744.1,369.6l-6.9-4.7c-0.5-0.3-0.6-0.9-0.3-1.4l14.9-21.7c0.3-0.5,0.9-0.6,1.4-0.3l6.9,4.7
				c0.5,0.3,0.6,0.9,0.3,1.4l-14.9,21.7C745.2,369.8,744.6,369.9,744.1,369.6z"/>
		</g>
		<g>
			<path class="st25" d="M661,423.3l8.3-0.7c0.5,0,1,0.4,1.1,0.9l2.1,26.3c0,0.5-0.4,1-0.9,1.1l-8.3,0.7c-0.5,0-1-0.4-1.1-0.9
				l-2.1-26.3C660,423.8,660.4,423.3,661,423.3z"/>
		</g>
		<g>
			<path class="st25" d="M716.2,486.7l-7.8,2.9c-0.5,0.2-1.1-0.1-1.3-0.6l-9.3-24.6c-0.2-0.5,0.1-1.1,0.6-1.3l7.8-2.9
				c0.5-0.2,1.1,0.1,1.3,0.6l9.3,24.6C716.9,486,716.7,486.5,716.2,486.7z"/>
		</g>
		<g>
			<path class="st25" d="M699.6,446.8l0.7-8.3c0-0.5,0.5-1,1.1-0.9l26.3,2.1c0.5,0,1,0.5,0.9,1.1l-0.7,8.3c0,0.5-0.5,1-1.1,0.9
				l-26.3-2.1C699.9,447.8,699.5,447.3,699.6,446.8z"/>
		</g>
		<g>
			<path class="st25" d="M896.4,369.9l7.6-3.3c0.5-0.2,1.1,0,1.3,0.5l10.5,24.2c0.2,0.5,0,1.1-0.5,1.3l-7.6,3.3
				c-0.5,0.2-1.1,0-1.3-0.5l-10.5-24.2C895.7,370.7,895.9,370.1,896.4,369.9z"/>
		</g>
		<g>
			<path class="st25" d="M844.5,365.4l1.7-8.1c0.1-0.5,0.6-0.9,1.2-0.8l25.8,5.5c0.5,0.1,0.9,0.6,0.8,1.2l-1.7,8.1
				c-0.1,0.5-0.6,0.9-1.2,0.8l-25.8-5.5C844.7,366.4,844.4,365.9,844.5,365.4z"/>
		</g>
		<g>
			<path class="st25" d="M874.6,410.2l7.6-3.3c0.5-0.2,1.1,0,1.3,0.5l10.5,24.2c0.2,0.5,0,1.1-0.5,1.3l-7.6,3.3
				c-0.5,0.2-1.1,0-1.3-0.5L874,411.6C873.8,411,874.1,410.5,874.6,410.2z"/>
		</g>
		<g>
			<path class="st25" d="M921,330.6l0.6,8.3c0,0.5-0.4,1-0.9,1.1l-26.3,1.9c-0.5,0-1-0.4-1.1-0.9l-0.6-8.3c0-0.5,0.4-1,0.9-1.1
				l26.3-1.9C920.5,329.6,921,330.1,921,330.6z"/>
		</g>
		<g>
			<path class="st25" d="M930.1,291.8l0.6,8.3c0,0.5-0.4,1-0.9,1.1l-26.3,1.9c-0.5,0-1-0.4-1.1-0.9l-0.6-8.3c0-0.5,0.4-1,0.9-1.1
				l26.3-1.9C929.6,290.9,930.1,291.3,930.1,291.8z"/>
		</g>
		<g>
			<path class="st25" d="M853,296l-0.3,8.3c0,0.5-0.5,1-1,1l-26.3-0.9c-0.5,0-1-0.5-1-1l0.3-8.3c0-0.5,0.5-1,1-1L852,295
				C852.6,295,853,295.5,853,296z"/>
		</g>
		<g>
			<path class="st25" d="M879.3,251l6.6,5c0.4,0.3,0.5,1,0.2,1.4l-16,21c-0.3,0.4-1,0.5-1.4,0.2l-6.6-5c-0.4-0.3-0.5-1-0.2-1.4
				l16-21C878.2,250.8,878.9,250.7,879.3,251z"/>
		</g>
		<g>
			<path class="st25" d="M825.9,259l-0.3,8.3c0,0.5-0.5,1-1,1l-26.3-0.9c-0.5,0-1-0.5-1-1l0.3-8.3c0-0.5,0.5-1,1-1l26.3,0.9
				C825.5,258,825.9,258.5,825.9,259z"/>
		</g>
		<g>
			<path class="st25" d="M878,335.1l-7.7-3c-0.5-0.2-0.8-0.8-0.6-1.3l9.5-24.6c0.2-0.5,0.8-0.8,1.3-0.6l7.7,3
				c0.5,0.2,0.8,0.8,0.6,1.3l-9.5,24.6C879.1,335,878.5,335.3,878,335.1z"/>
		</g>
		<g>
			<path class="st25" d="M744.8,279.5l-7.7-3c-0.5-0.2-0.8-0.8-0.6-1.3l9.5-24.6c0.2-0.5,0.8-0.8,1.3-0.6l7.7,3
				c0.5,0.2,0.8,0.8,0.6,1.3l-9.5,24.6C745.9,279.4,745.3,279.7,744.8,279.5z"/>
		</g>
		<g>
			<path class="st25" d="M810.8,278.4l-0.3,8.3c0,0.5-0.5,1-1,1l-26.3-0.8c-0.5,0-1-0.5-1-1l0.3-8.3c0-0.5,0.5-1,1-1l26.3,0.8
				C810.4,277.4,810.8,277.9,810.8,278.4z"/>
		</g>
		<g>
			<path class="st25" d="M741.6,326.3l-2.1-8c-0.1-0.5,0.2-1.1,0.7-1.2l25.5-6.5c0.5-0.1,1.1,0.2,1.2,0.7l2.1,8
				c0.1,0.5-0.2,1.1-0.7,1.2l-25.5,6.5C742.3,327.1,741.8,326.8,741.6,326.3z"/>
		</g>
		<g>
			<path class="st25" d="M814.8,348.2l-1.2-8.2c-0.1-0.5,0.3-1.1,0.8-1.1l26.1-3.8c0.5-0.1,1.1,0.3,1.1,0.8l1.2,8.2
				c0.1,0.5-0.3,1.1-0.8,1.1l-26.1,3.8C815.3,349.1,814.8,348.7,814.8,348.2z"/>
		</g>
		<g>
			<path class="st25" d="M792.3,460.3l-0.1,8.3c0,0.5-0.5,1-1,1l-26.3-0.3c-0.5,0-1-0.5-1-1l0.1-8.3c0-0.5,0.5-1,1-1l26.3,0.3
				C791.8,459.3,792.3,459.7,792.3,460.3z"/>
		</g>
		<g>
			<path class="st25" d="M817.6,414.7l6.7,4.9c0.4,0.3,0.5,1,0.2,1.4L809,442.3c-0.3,0.4-1,0.5-1.4,0.2l-6.7-4.9
				c-0.4-0.3-0.5-1-0.2-1.4l15.5-21.3C816.5,414.5,817.1,414.4,817.6,414.7z"/>
		</g>
		<g>
			<path class="st25" d="M764.3,423.9l-0.1,8.3c0,0.5-0.5,1-1,1l-26.3-0.3c-0.5,0-1-0.5-1-1l0.1-8.3c0-0.5,0.5-1,1-1l26.3,0.3
				C763.9,422.9,764.3,423.3,764.3,423.9z"/>
		</g>
		<g>
			<path class="st25" d="M818.1,498.8l-7.8-2.8c-0.5-0.2-0.8-0.8-0.6-1.3l9-24.8c0.2-0.5,0.8-0.8,1.3-0.6l7.8,2.8
				c0.5,0.2,0.8,0.8,0.6,1.3l-9,24.8C819.2,498.7,818.6,499,818.1,498.8z"/>
		</g>
		<g>
			<path class="st25" d="M831.5,457.7l5.9-5.8c0.4-0.4,1-0.4,1.4,0l18.5,18.7c0.4,0.4,0.4,1,0,1.4l-5.9,5.8c-0.4,0.4-1,0.4-1.4,0
				l-18.5-18.7C831.1,458.7,831.2,458.1,831.5,457.7z"/>
		</g>
		<g>
			<path class="st25" d="M845.4,394.6l8,2.3c0.5,0.1,0.8,0.7,0.7,1.2l-7.1,25.4c-0.1,0.5-0.7,0.8-1.2,0.7l-8-2.3
				c-0.5-0.1-0.8-0.7-0.7-1.2l7.1-25.4C844.3,394.7,844.9,394.4,845.4,394.6z"/>
		</g>
		<g>
			<path class="st25" d="M783.2,314.2l8.2,1.6c0.5,0.1,0.9,0.6,0.8,1.2l-5,25.9c-0.1,0.5-0.6,0.9-1.2,0.8l-8.2-1.6
				c-0.5-0.1-0.9-0.6-0.8-1.2l5-25.9C782.1,314.4,782.7,314.1,783.2,314.2z"/>
		</g>
		<g>
			<path class="st25" d="M838.2,231.9l-7.3,3.9c-0.5,0.3-1.1,0.1-1.4-0.4l-12.4-23.3c-0.3-0.5-0.1-1.1,0.4-1.4l7.3-3.9
				c0.5-0.3,1.1-0.1,1.4,0.4l12.4,23.3C838.9,231,838.7,231.6,838.2,231.9z"/>
		</g>
		<g>
			<path class="st25" d="M762.3,195.6l6-5.8c0.4-0.4,1-0.4,1.4,0l18.3,18.9c0.4,0.4,0.4,1,0,1.4l-6,5.8c-0.4,0.4-1,0.4-1.4,0
				L762.3,197C761.9,196.6,761.9,195.9,762.3,195.6z"/>
		</g>
		<g>
			<path class="st25" d="M899.4,244.2l6-5.8c0.4-0.4,1-0.4,1.4,0l18.3,18.9c0.4,0.4,0.4,1,0,1.4l-6,5.8c-0.4,0.4-1,0.4-1.4,0
				l-18.3-18.9C899,245.2,899,244.5,899.4,244.2z"/>
		</g>
		<g>
			<path class="st25" d="M793.4,225.7l2.7,7.9c0.2,0.5-0.1,1.1-0.6,1.3l-24.9,8.5c-0.5,0.2-1.1-0.1-1.3-0.6l-2.7-7.9
				c-0.2-0.5,0.1-1.1,0.6-1.3l24.9-8.5C792.7,224.9,793.3,225.1,793.4,225.7z"/>
		</g>
		<g>
			<path class="st25" d="M739.4,212.8l2.7,7.9c0.2,0.5-0.1,1.1-0.6,1.3l-24.9,8.5c-0.5,0.2-1.1-0.1-1.3-0.6l-2.7-7.9
				c-0.2-0.5,0.1-1.1,0.6-1.3l24.9-8.5C738.6,212,739.2,212.3,739.4,212.8z"/>
		</g>
		<g>
			<g>
				<circle class="st26" cx="649.1" cy="376.9" r="32.5"/>
			</g>
			<g>
				
					<ellipse transform="matrix(0.7071 -0.7071 0.7071 0.7071 -76.8784 568.1311)" class="st11" cx="647.4" cy="376.9" rx="26" ry="26"/>
			</g>
		</g>
		<g>
			<g>
				<circle class="st26" cx="694.3" cy="258.8" r="32.5"/>
			</g>
			<g>
				
					<ellipse transform="matrix(0.2308 -0.973 0.973 0.2308 280.7947 872.9077)" class="st11" cx="692.5" cy="258.8" rx="26" ry="26"/>
			</g>
		</g>
		<g>
			<g>
				
					<ellipse transform="matrix(0.9225 -0.3859 0.3859 0.9225 -17.3943 331.0775)" class="st26" cx="815.9" cy="208.9" rx="32.5" ry="32.5"/>
			</g>
			<g>
				
					<ellipse transform="matrix(0.7071 -0.7071 0.7071 0.7071 90.7793 636.8875)" class="st11" cx="814.2" cy="208.9" rx="26" ry="26"/>
			</g>
		</g>
		<g>
			<g>
				
					<ellipse transform="matrix(0.9342 -0.3567 0.3567 0.9342 -101.9076 312.6057)" class="st26" cx="796.5" cy="432.6" rx="32.5" ry="32.5"/>
			</g>
			<g>
				
					<ellipse transform="matrix(0.2287 -0.9735 0.9735 0.2287 191.9214 1107.3759)" class="st11" cx="794.8" cy="432.6" rx="26" ry="26"/>
			</g>
		</g>
		<g>
			<g>
				<circle class="st26" cx="783.5" cy="320.4" r="32.5"/>
			</g>
			<g>
				
					<ellipse transform="matrix(0.198 -0.9802 0.9802 0.198 312.8588 1023.1599)" class="st11" cx="781.7" cy="320.4" rx="26" ry="26"/>
			</g>
		</g>
		<g>
			<g>
				<circle class="st26" cx="901.4" cy="371" r="32.5"/>
			</g>
			<g>
				
					<ellipse transform="matrix(0.1607 -0.987 0.987 0.1607 388.8608 1199.3577)" class="st11" cx="899.7" cy="371" rx="26" ry="26"/>
			</g>
		</g>
		<g>
			<path class="st20" d="M719.2,458.6c0,0-6.1-20-0.7-34.3c5.4-14.3,15.3-20.8,15.3-20.8S745.3,435.7,719.2,458.6z"/>
		</g>
		<g class="st27">
			<path class="st8" d="M619,389c0,0,15.4,23.8,30.1,20.3c14.7-3.5,25.5-12.3,25.5-12.3s-4.8,23.1-25.5,27
				C628.5,427.8,620.6,408.5,619,389z"/>
		</g>
		<g class="st27">
			<path class="st8" d="M753.9,332.8c0,0,15.4,23.8,30.1,20.3c14.7-3.5,25.5-12.3,25.5-12.3s-4.8,23.1-25.5,27
				C763.4,371.6,755.5,352.3,753.9,332.8z"/>
		</g>
		<g class="st27">
			<path class="st8" d="M767,442.5c0,0,15.4,23.8,30.1,20.3c14.7-3.5,25.5-12.3,25.5-12.3s-4.8,23.1-25.5,27
				C776.4,481.3,768.6,461.9,767,442.5z"/>
		</g>
		<g class="st27">
			<path class="st8" d="M870.8,379.3c0,0,15.4,23.8,30.1,20.3c14.7-3.5,25.5-12.3,25.5-12.3s-4.8,23.1-25.5,27
				C880.3,418.1,872.4,398.7,870.8,379.3z"/>
		</g>
		<g class="st27">
			<path class="st8" d="M786.4,218.7c0,0,15.4,23.8,30.1,20.3c14.7-3.5,25.5-12.3,25.5-12.3s-4.8,23.1-25.5,27
				C795.9,257.5,788,238.1,786.4,218.7z"/>
		</g>
		<g class="st27">
			<path class="st8" d="M662.7,267.1c0,0,15.4,23.8,30.1,20.3c14.7-3.5,25.5-12.3,25.5-12.3s-4.8,23.1-25.5,27
				C672.2,305.9,664.3,286.5,662.7,267.1z"/>
		</g>
		<g class="st27">
			<path class="st8" d="M719.2,456c0,0,16.4-14.1,16.8-25.5c0.4-11.4,0-15.4,0-15.4s12.2,25.7,0.2,38.3
				C724.1,465.9,719.2,456,719.2,456z"/>
		</g>
		<g>
			<path class="st20" d="M686.5,351.7c0,0,3.6-20.6,14.8-30.9c11.3-10.4,23-11.7,23-11.7S720.1,343.1,686.5,351.7z"/>
		</g>
		<g class="st27">
			<path class="st8" d="M687.7,349.4c0,0,21-5.3,26.4-15.3c5.5-10,6.9-13.8,6.9-13.8s-0.7,28.5-17.1,34.3
				C687.6,360.5,687.7,349.4,687.7,349.4z"/>
		</g>
		<g>
			<path class="st20" d="M755.9,249.7c0,0-15.2-14.3-17.7-29.4c-2.5-15.1,2.9-25.6,2.9-25.6S767.1,216.8,755.9,249.7z"/>
		</g>
		<g class="st27">
			<path class="st8" d="M754.6,247.5c0,0,7.1-20.4,1.8-30.5c-5.4-10-7.7-13.4-7.7-13.4s23.4,16.2,19.3,33.1
				C763.8,253.6,754.6,247.5,754.6,247.5z"/>
		</g>
		<g>
			<path class="st20" d="M861,312.7c0,0-12.4-16.8-12.1-32.1c0.3-15.3,7.5-24.7,7.5-24.7S877.9,282.4,861,312.7z"/>
		</g>
		<g class="st27">
			<path class="st8" d="M860.1,310.3c0,0,10.7-18.8,7.2-29.7c-3.5-10.8-5.2-14.5-5.2-14.5s20.1,20.1,13,36
				C868.1,318,860.1,310.3,860.1,310.3z"/>
		</g>
	</g>
	<g>
		<circle class="st2" cx="652.4" cy="768.8" r="73.2"/>
		
			<ellipse transform="matrix(0.9208 -0.3901 0.3901 0.9208 -238.0063 319.4812)" class="st0" cx="667.6" cy="745.7" rx="73.2" ry="73.2"/>
		
			<ellipse transform="matrix(0.8742 -0.4855 0.4855 0.8742 -278.101 417.9171)" class="st28" cx="667.6" cy="745.7" rx="63.6" ry="63.6"/>
		<circle class="st29" cx="667.6" cy="745.7" r="58.1"/>
		<g>
			<path class="st30" d="M656.9,710.2c0,5.7-4.6,10.4-10.4,10.4c-5.7,0-10.4-4.6-10.4-10.4c0-5.7,4.6-10.4,10.4-10.4
				C652.2,699.8,656.9,704.5,656.9,710.2z"/>
			<path class="st31" d="M655.9,708.1c0,4.6-3.7,8.3-8.3,8.3c-4.6,0-8.3-3.7-8.3-8.3c0-4.6,3.7-8.3,8.3-8.3
				C652.2,699.8,655.9,703.5,655.9,708.1z"/>
		</g>
		<g>
			<circle class="st32" cx="629" cy="729.3" r="10.4"/>
			<path class="st33" d="M638.4,727.2c0,4.6-3.7,8.3-8.3,8.3c-4.6,0-8.3-3.7-8.3-8.3s3.7-8.3,8.3-8.3
				C634.7,719,638.4,722.7,638.4,727.2z"/>
		</g>
		<g>
			<circle class="st32" cx="680.4" cy="779.3" r="10.4"/>
			<path class="st33" d="M689.8,777.2c0,4.6-3.7,8.3-8.3,8.3c-4.6,0-8.3-3.7-8.3-8.3c0-4.6,3.7-8.3,8.3-8.3
				C686.1,769,689.8,772.7,689.8,777.2z"/>
		</g>
		<g>
			<circle class="st32" cx="655.9" cy="737.6" r="10.4"/>
			<path class="st33" d="M665.3,735.5c0,4.6-3.7,8.3-8.3,8.3c-4.6,0-8.3-3.7-8.3-8.3c0-4.6,3.7-8.3,8.3-8.3
				C661.6,727.2,665.3,730.9,665.3,735.5z"/>
		</g>
		<g>
			<circle class="st32" cx="625.8" cy="751.7" r="10.4"/>
			<path class="st33" d="M635.2,749.6c0,4.6-3.7,8.3-8.3,8.3c-4.6,0-8.3-3.7-8.3-8.3c0-4.6,3.7-8.3,8.3-8.3
				C631.5,741.4,635.2,745.1,635.2,749.6z"/>
		</g>
		<g>
			<circle class="st30" cx="671.1" cy="705.4" r="10.4"/>
			<path class="st31" d="M680.4,703.3c0,4.6-3.7,8.3-8.3,8.3c-4.6,0-8.3-3.7-8.3-8.3s3.7-8.3,8.3-8.3
				C676.7,695.1,680.4,698.8,680.4,703.3z"/>
		</g>
		<g>
			<circle class="st32" cx="698.9" cy="711.6" r="10.4"/>
			<path class="st33" d="M708.3,709.5c0,4.6-3.7,8.3-8.3,8.3c-4.6,0-8.3-3.7-8.3-8.3c0-4.6,3.7-8.3,8.3-8.3
				C704.6,701.2,708.3,704.9,708.3,709.5z"/>
		</g>
		<g>
			<circle class="st32" cx="684.8" cy="717.8" r="10.4"/>
			<path class="st33" d="M694.1,715.7c0,4.6-3.7,8.3-8.3,8.3c-4.6,0-8.3-3.7-8.3-8.3c0-4.6,3.7-8.3,8.3-8.3
				C690.4,707.4,694.1,711.1,694.1,715.7z"/>
		</g>
		<g>
			<circle class="st30" cx="655.3" cy="769" r="10.4"/>
			<path class="st31" d="M664.7,766.9c0,4.6-3.7,8.3-8.3,8.3c-4.6,0-8.3-3.7-8.3-8.3c0-4.6,3.7-8.3,8.3-8.3
				C661,758.6,664.7,762.3,664.7,766.9z"/>
		</g>
		<g>
			<circle class="st30" cx="675.4" cy="748" r="10.4"/>
			<path class="st31" d="M684.8,745.9c0,4.6-3.7,8.3-8.3,8.3c-4.6,0-8.3-3.7-8.3-8.3c0-4.6,3.7-8.3,8.3-8.3
				C681,737.6,684.8,741.3,684.8,745.9z"/>
		</g>
		<g>
			<circle class="st32" cx="700" cy="771.2" r="10.4"/>
			<path class="st34" d="M709.4,769.1c0,4.6-3.7,8.3-8.3,8.3c-4.6,0-8.3-3.7-8.3-8.3c0-4.6,3.7-8.3,8.3-8.3
				C705.7,760.8,709.4,764.5,709.4,769.1z"/>
		</g>
		<g>
			<circle class="st32" cx="633.5" cy="773.3" r="10.4"/>
			<path class="st33" d="M642.9,771.2c0,4.6-3.7,8.3-8.3,8.3c-4.6,0-8.3-3.7-8.3-8.3c0-4.6,3.7-8.3,8.3-8.3
				C639.2,762.9,642.9,766.6,642.9,771.2z"/>
		</g>
		<g>
			<circle class="st32" cx="682.5" cy="729.3" r="10.4"/>
			<path class="st33" d="M691.9,727.2c0,4.6-3.7,8.3-8.3,8.3c-4.6,0-8.3-3.7-8.3-8.3s3.7-8.3,8.3-8.3
				C688.2,719,691.9,722.7,691.9,727.2z"/>
		</g>
		<g>
			<circle class="st32" cx="704.6" cy="751.7" r="10.4"/>
			<path class="st33" d="M714,749.6c0,4.6-3.7,8.3-8.3,8.3c-4.6,0-8.3-3.7-8.3-8.3c0-4.6,3.7-8.3,8.3-8.3
				C710.3,741.4,714,745.1,714,749.6z"/>
		</g>
		<g>
			<circle class="st32" cx="624.9" cy="739.7" r="10.4"/>
			<path class="st33" d="M634.3,737.6c0,4.6-3.7,8.3-8.3,8.3c-4.6,0-8.3-3.7-8.3-8.3c0-4.6,3.7-8.3,8.3-8.3
				C630.5,729.3,634.3,733,634.3,737.6z"/>
		</g>
		<g>
			<circle class="st32" cx="714" cy="735.8" r="10.4"/>
			<path class="st33" d="M723.4,733.7c0,4.6-3.7,8.3-8.3,8.3s-8.3-3.7-8.3-8.3c0-4.6,3.7-8.3,8.3-8.3S723.4,729.1,723.4,733.7z"/>
		</g>
		<g>
			<circle class="st32" cx="687.5" cy="760.4" r="10.4"/>
			<path class="st33" d="M696.9,758.3c0,4.6-3.7,8.3-8.3,8.3c-4.6,0-8.3-3.7-8.3-8.3c0-4.6,3.7-8.3,8.3-8.3
				C693.2,750.1,696.9,753.8,696.9,758.3z"/>
		</g>
		<g>
			<path class="st32" d="M707.1,729.3c0,3.6-2.9,6.4-6.4,6.4c-3.6,0-6.4-2.9-6.4-6.4c0-3.6,2.9-6.4,6.4-6.4
				C704.2,722.9,707.1,725.8,707.1,729.3z"/>
			<path class="st34" d="M706.5,728c0,2.8-2.3,5.1-5.1,5.1c-2.8,0-5.1-2.3-5.1-5.1c0-2.8,2.3-5.1,5.1-5.1
				C704.2,722.9,706.5,725.2,706.5,728z"/>
		</g>
		<g>
			<circle class="st32" cx="680.5" cy="766.9" r="6.4"/>
			<path class="st33" d="M686.3,765.6c0,2.8-2.3,5.1-5.1,5.1c-2.8,0-5.1-2.3-5.1-5.1c0-2.8,2.3-5.1,5.1-5.1
				C684,760.4,686.3,762.7,686.3,765.6z"/>
		</g>
		<g>
			<circle class="st32" cx="676.1" cy="792.4" r="6.4"/>
			<path class="st33" d="M681.9,791.1c0,2.8-2.3,5.1-5.1,5.1c-2.8,0-5.1-2.3-5.1-5.1c0-2.8,2.3-5.1,5.1-5.1
				C679.6,786,681.9,788.3,681.9,791.1z"/>
		</g>
		<g>
			<path class="st32" d="M654.1,786c0,3.6-2.9,6.4-6.4,6.4c-3.6,0-6.4-2.9-6.4-6.4c0-3.6,2.9-6.4,6.4-6.4
				C651.2,779.6,654.1,782.5,654.1,786z"/>
			<circle class="st33" cx="648.3" cy="784.7" r="5.1"/>
		</g>
		<g>
			<circle class="st32" cx="691.9" cy="741.4" r="6.4"/>
			<circle class="st34" cx="692.6" cy="740.1" r="5.1"/>
		</g>
		<g>
			<path class="st32" d="M670.3,717.8c0,3.8-3.1,7-7,7c-3.8,0-7-3.1-7-7s3.1-7,7-7C667.2,710.8,670.3,713.9,670.3,717.8z"/>
			<path class="st33" d="M669.7,716.4c0,3.1-2.5,5.6-5.6,5.6s-5.6-2.5-5.6-5.6c0-3.1,2.5-5.6,5.6-5.6S669.7,713.3,669.7,716.4z"/>
		</g>
		<g>
			<path class="st32" d="M652.3,723.4c0,3.8-3.1,7-7,7c-3.8,0-7-3.1-7-7c0-3.8,3.1-7,7-7C649.2,716.4,652.3,719.5,652.3,723.4z"/>
			<circle class="st33" cx="646.1" cy="722" r="5.6"/>
		</g>
		<g>
			<path class="st32" d="M638.4,712.9c0,3.8-3.1,7-7,7c-3.8,0-7-3.1-7-7s3.1-7,7-7C635.2,705.9,638.4,709,638.4,712.9z"/>
			<circle class="st33" cx="632.1" cy="711.5" r="5.6"/>
		</g>
		<g>
			<path class="st32" d="M665.5,697.1c0,3.8-3.1,7-7,7c-3.8,0-7-3.1-7-7s3.1-7,7-7C662.4,690.2,665.5,693.3,665.5,697.1z"/>
			<path class="st33" d="M664.8,695.7c0,3.1-2.5,5.6-5.6,5.6c-3.1,0-5.6-2.5-5.6-5.6c0-3.1,2.5-5.6,5.6-5.6
				C662.4,690.2,664.8,692.7,664.8,695.7z"/>
		</g>
		<g>
			<path class="st32" d="M694.4,701.3c0,3.8-3.1,7-7,7c-3.8,0-7-3.1-7-7c0-3.8,3.1-7,7-7C691.3,694.3,694.4,697.4,694.4,701.3z"/>
			<path class="st33" d="M693.8,699.9c0,3.1-2.5,5.6-5.6,5.6c-3.1,0-5.6-2.5-5.6-5.6c0-3.1,2.5-5.6,5.6-5.6
				C691.3,694.3,693.8,696.8,693.8,699.9z"/>
		</g>
		<g>
			<path class="st32" d="M678,731.3c0,3.8-3.1,7-7,7c-3.8,0-7-3.1-7-7s3.1-7,7-7C674.9,724.4,678,727.5,678,731.3z"/>
			<path class="st33" d="M677.4,729.9c0,3.1-2.5,5.6-5.6,5.6c-3.1,0-5.6-2.5-5.6-5.6c0-3.1,2.5-5.6,5.6-5.6
				C674.9,724.4,677.4,726.9,677.4,729.9z"/>
		</g>
		<g>
			<path class="st32" d="M666.3,755.3c0,3.8-3.1,7-7,7c-3.8,0-7-3.1-7-7c0-3.8,3.1-7,7-7C663.1,748.3,666.3,751.4,666.3,755.3z"/>
			<circle class="st33" cx="660" cy="753.9" r="5.6"/>
		</g>
		<g>
			<path class="st32" d="M648.6,753.9c0,3.8-3.1,7-7,7s-7-3.1-7-7s3.1-7,7-7S648.6,750,648.6,753.9z"/>
			<circle class="st33" cx="642.4" cy="752.5" r="5.6"/>
		</g>
		<g>
			<path class="st32" d="M645.3,741.4c0,3.8-3.1,7-7,7c-3.8,0-7-3.1-7-7c0-3.8,3.1-7,7-7C642.2,734.4,645.3,737.5,645.3,741.4z"/>
			<path class="st33" d="M644.7,740c0,3.1-2.5,5.6-5.6,5.6c-3.1,0-5.6-2.5-5.6-5.6c0-3.1,2.5-5.6,5.6-5.6
				C642.2,734.4,644.7,736.9,644.7,740z"/>
		</g>
		<g>
			<path class="st32" d="M669.3,789.7c0,3.8-3.1,7-7,7s-7-3.1-7-7s3.1-7,7-7S669.3,785.8,669.3,789.7z"/>
			<circle class="st33" cx="663.1" cy="788.3" r="5.6"/>
		</g>
	</g>
	<g>
		<g>
			<circle class="st2" cx="443.3" cy="225" r="73.2"/>
			<circle class="st0" cx="458.5" cy="201.9" r="73.2"/>
			<circle class="st28" cx="458.5" cy="201.9" r="63.6"/>
			<circle class="st29" cx="458.5" cy="201.9" r="58.1"/>
			<path class="st35" d="M480.9,154.9c0,0-17.4-7.7-26.3-3.1c-8.9,4.6-12.9,6.6-20.9,8.3c-8,1.7-14.7,10.9-18.9,18.9
				c-4.2,8-1,15.4-0.7,24.8c0.2,9.4-2.9,15.1,4.9,28.7c7.8,13.6,32.3,11.6,39.5,15.1c7.3,3.5,28.1,0.7,36.6-8.9
				c8.4-9.7,7.3-21.9,11.7-27.6c4.4-5.7,6.2-15.8,4.2-26.8c-2-11-10.4-18.1-14.7-22.1C492,158.1,480.9,154.9,480.9,154.9z"/>
		</g>
		<path class="st25" d="M473.9,114.1l-5.9,52.3l8.9,6.5c0,0,40.2-35.5,39.6-38.2c-0.5-2.1-27.1-17.1-37.7-23.1
			C476.8,110.4,474.2,111.8,473.9,114.1z"/>
		<path class="st25" d="M516,174.9c-0.3-0.6-27.1,15.7-27.1,15.7l0.9,22.9l32.3,13.9L516,174.9z"/>
		<path class="st36" d="M478.8,153c0,0-2.6-2.4-3-1.2c-0.4,1.2,0.4,4.4,1.2,4.2C477.8,155.8,478.8,153,478.8,153z"/>
		<path class="st36" d="M478.3,136.6c-0.6,0.5-1.1,1-1.3,1.7c-0.2,0.7,0.2,1.6,0.9,1.7c0.6,0.1,1.1-0.5,1.3-1c0.2-0.6,0-1.2-0.1-1.7
			"/>
		<path class="st36" d="M493.3,135.8c-1.1-0.5-2.5,0.5-2.4,1.7c0.1,1.2,1.6,1.9,2.7,1.3c1-0.6,1.1-2.3,0.2-3"/>
		<path class="st36" d="M484.8,125.4c0.6-0.1,1.3-0.2,1.9-0.1c0.6,0.2,1.2,0.6,1.4,1.2c0.2,0.7-0.3,1.6-1,1.7
			c-0.7,0.2-1.6-0.4-1.7-1.1c-0.1-0.7,0.4-1.5,1.2-1.7"/>
		<path class="st36" d="M487.6,149.4c0.4-0.7,1.6-0.8,2.1-0.1c0.5,0.7,0.1,1.8-0.6,2.1s-1.7-0.1-2.1-0.8c-0.4-0.7-0.2-1.7,0.4-2.3"
			/>
		<path class="st36" d="M499.9,142.9c0.6-0.6,1.8-0.4,2.1,0.4c0.3,0.8-0.5,1.8-1.4,1.6C499.8,144.7,499.4,143.5,499.9,142.9"/>
		<path class="st36" d="M508.7,191.3c-1,0.5-1.2,2.1-0.4,2.8c0.8,0.7,2.4,0.4,2.8-0.7c0.4-1.1-0.6-2.3-1.7-2.3"/>
		<path class="st36" d="M501.4,202.8c0.8,0,1.6,0.3,2,0.9c0.5,0.6,0.5,1.5,0,2.1c-0.7,0.8-2.2,0.6-2.6-0.4c-0.4-1,0.6-2.2,1.7-2"/>
		<path class="st36" d="M497.9,193.5c0.7-0.7,2-0.5,2.4,0.4c0.4,0.9-0.3,2.1-1.3,2.1s-1.8-1-1.6-1.9s1.4-1.5,2.3-1.1"/>
		<path class="st36" d="M511.9,205.3c1-0.6,2.6,0.2,2.7,1.4c0.1,1.2-1.4,2.2-2.5,1.7c-1.1-0.5-1.3-2.3-0.3-3"/>
		<path class="st36" d="M509.2,213.9c0.5-0.7,1.8-0.1,1.8,0.7c0,0.8-1,1.4-1.8,1.2s-1.3-1.1-1.3-1.9c0-0.8,0.3-1.6,0.8-2.3"/>
		<path class="st15" d="M445,173.3c1.2-1.2,3.4-1.4,4.8-0.4c1.4,1,1.9,3.2,0.9,4.7c-0.9,1.5-3.2,1.9-4.6,0.9c-1.4-1-1.7-3.3-0.5-4.6
			"/>
		<path class="st15" d="M468.7,184.1c1.6,0.1,3.3,0.6,4.5,1.8c1.2,1.2,1.8,3,1.3,4.5c-0.5,1.6-2.3,2.7-3.9,2.3
			c-1.4-0.3-2.3-1.7-2.6-3c-0.3-1.4-0.2-2.8,0-4.2"/>
		<path class="st15" d="M481.9,175.8c1.3-0.3,2.7-0.5,4-0.1c1.3,0.4,2.4,1.8,2.1,3.1c-0.4,1.4-2,2-3.4,2.1c-1.3,0.1-2.6-0.1-3.5-1
			c-0.9-0.9-1-2.6,0-3.3"/>
		<path class="st15" d="M458,216.3c1.5-0.3,3.1-0.1,4.3,0.9c1.2,0.9,1.7,2.7,0.9,4c-0.9,1.6-3.4,1.7-4.8,0.5
			c-1.4-1.2-1.6-3.4-0.9-5.1"/>
		<path class="st15" d="M428.9,204.6c0.5-1.8,2.6-3,4.4-2.6c1.8,0.3,3.3,2,3.6,3.9s-0.6,3.8-2.1,5c-1.6,1.3-4.1,1.6-5.6,0.2
			c-0.9-0.8-1.3-2.1-1.3-3.3c0-1.2,0.4-2.4,0.7-3.6"/>
		<path class="st15" d="M427.7,183.8c1.4-1.6,4.2-1.9,5.9-0.5c1.7,1.4,2,4.1,0.8,5.8c-1.3,1.7-4,2.2-5.8,1c-1.8-1.2-2.4-3.9-1.3-5.7
			"/>
		<path class="st15" d="M483,215.8c2.5,0.4,4.1,3.3,3.3,5.7c-0.9,2.3-4,3.5-6.2,2.2c-0.9-0.5-1.5-1.3-1.9-2.3
			c-0.5-1.4-0.3-3.1,0.6-4.4c0.9-1.2,2.5-2,4-1.9"/>
		<polyline class="st37" points="468,166.4 477,172.9 492.7,158.7 498.9,166.4 475.7,186.7 467.8,172.2 467.8,167.7 		"/>
	</g>
</g>
</svg>
