<?xml version="1.0" encoding="utf-8"?>
<!-- Generator: Adobe Illustrator 27.0.0, SVG Export Plug-In . SVG Version: 6.00 Build 0)  -->
<svg version="1.1" id="Layer_1" xmlns="http://www.w3.org/2000/svg" xmlns:xlink="http://www.w3.org/1999/xlink" x="0px" y="0px"
	 viewBox="0 0 1000 1000" style="enable-background:new 0 0 1000 1000;" xml:space="preserve">
<style type="text/css">
	.st0{fill:#F15B59;}
	.st1{fill:#F15959;}
</style>
<g>
	<g>
		<g>
			<path class="st0" d="M300,775c-27.6,0-50,22.4-50,50c0,27.6,22.4,50,50,50s50-22.4,50-50C350,797.4,327.6,775,300,775z
				 M300,841.6c-9.2,0-16.7-7.5-16.7-16.7c0-9.2,7.5-16.7,16.7-16.7c9.2,0,16.7,7.5,16.7,16.7C316.6,834.2,309.2,841.6,300,841.6z"
				/>
			<path class="st0" d="M783.2,775c-27.6,0-50,22.4-50,50c0,27.6,22.4,50,50,50c27.6,0,50-22.4,50-50
				C833.2,797.4,810.9,775,783.2,775z M783.2,841.6c-9.2,0-16.7-7.5-16.7-16.7c0-9.2,7.5-16.7,16.7-16.7c9.2,0,16.7,7.5,16.7,16.7
				C799.9,834.2,792.4,841.6,783.2,841.6z"/>
			<path class="st1" d="M50,341.7h33.3V375H50V341.7z"/>
			<path class="st1" d="M0,408.3h33.3v33.3H0V408.3z"/>
			<path class="st1" d="M816.6,175h100v33.3h-100V175z"/>
			<path class="st1" d="M749.9,175h33.3v33.3h-33.3V175z"/>
			<path class="st1" d="M533.3,75h166.6v33.3H533.3V75z"/>
			<path class="st1" d="M466.6,75h33.3v33.3h-33.3V75z"/>
			<path class="st0" d="M999.9,925v-33.3H857.6c14.2-15.7,23-35.6,25.2-56.7l108.8-62.2c0.8-0.5,1.5-1.1,2.2-1.8
				c0.6-0.4,1.1-0.8,1.7-1.3c1.3-1.3,2.3-2.9,3-4.5c0.1-0.2,0.2-0.3,0.3-0.4c0.8-1.9,1.2-3.9,1.2-5.9c0-0.2,0.1-0.3,0.1-0.5v-150
				c-0.1-0.5-0.2-1-0.3-1.4c0-0.4,0-0.9,0-1.3l-33.3-200c-0.1-0.2-0.2-0.5-0.3-0.7c0-0.2,0-0.4,0-0.6l-16.7-66.7
				c-1.9-7.4-8.6-12.6-16.2-12.6H731.1c-2.3-8.1-6.6-15.5-12.5-21.5L604.8,189.7c-9.4-9.4-22.1-14.7-35.3-14.6H166.6
				c-9.2,0-16.7,7.5-16.7,16.7v66.7H0v33.3h150v50h-33.3V375H150v33.3H66.7v33.3H150v150c-9.2,0-16.7,7.5-16.7,16.7v150
				c0,0.3,0.2,0.7,0.2,1c0.1,1.5,0.4,3,0.9,4.4c0.2,0.5,0.3,1,0.6,1.6c0.8,1.8,1.9,3.3,3.2,4.7l62.1,62.1
				c1.6,22.1,10.5,43,25.4,59.5H0V925H999.9z M689.1,791.6h-295c-2-5.8-4.6-11.4-7.7-16.7h310.4
				C693.7,780.3,691.1,785.9,689.1,791.6z M400,825h283.3c0,24.6,9.2,48.4,25.7,66.7H374.3C390.8,873.3,399.9,849.6,400,825z
				 M716.6,825c0-36.8,29.8-66.7,66.7-66.7c36.8,0,66.7,29.8,66.7,66.7c0,36.8-29.8,66.7-66.7,66.7
				C746.4,891.6,716.6,861.8,716.6,825z M879.5,798.3c-2.3-8.2-5.6-16-9.8-23.3h50.8L879.5,798.3z M963.5,591.7H799.9V425h135.9
				L963.5,591.7z M928.5,391.7H783.2c-9.2,0-16.7,7.5-16.7,16.7v200c0,9.2,7.5,16.7,16.7,16.7h183.3v33.3h-50v33.3h50v50H838.4
				c-33.4-22.2-76.9-22.2-110.3,0h-373c-33.4-22.2-76.9-22.2-110.3,0h-78.2V675h66.7v-33.3h-66.7V625h549.9
				c9.2,0,16.7-7.5,16.7-16.7v-250h187L928.5,391.7z M183.3,441.7h133.3v-33.3H183.3V375h150v-33.3h-150v-50h83.3v-33.3h-83.3v-50
				h386.2c4.4,0,8.6,1.8,11.8,4.9L695,327c3.1,3.1,4.9,7.4,4.9,11.8v252.8H183.3V441.7z M213.5,775c-2.9,5.1-5.4,10.4-7.4,15.9
				L190.2,775H213.5z M233.3,825c0-36.8,29.8-66.7,66.7-66.7c36.8,0,66.7,29.8,66.7,66.7c0,36.8-29.8,66.7-66.7,66.7
				C263.2,891.6,233.3,861.8,233.3,825z"/>
		</g>
	</g>
</g>
</svg>
