<?xml version="1.0" encoding="utf-8"?>
<!-- Generator: Adobe Illustrator 27.0.0, SVG Export Plug-In . SVG Version: 6.00 Build 0)  -->
<svg version="1.1" id="Layer_1" xmlns="http://www.w3.org/2000/svg" xmlns:xlink="http://www.w3.org/1999/xlink" x="0px" y="0px"
	 viewBox="0 0 1000 1000" style="enable-background:new 0 0 1000 1000;" xml:space="preserve">
<style type="text/css">
	.st0{fill:#F15959;}
</style>
<g>
	<g>
		<path class="st0" d="M872.2,344.4c-4.3-8.2-14.3-11.3-22.5-7.1l0,0L773.3,377h-0.1L502.4,517.9l91.8-290.7c0-0.1,0.1-0.2,0.2-0.3
			l25.9-82.4c2.7-8.8-2.1-18.1-10.9-20.9C373.5,47.5,120.8,177,44.8,412.8S98.3,901.2,334,977.3c1.8,0.6,3.6,1.2,5.4,1.7
			c43.9,13.9,89.6,21,135.6,21c195.5-0.5,368.1-127.4,427.2-313.7C938.3,572.9,927.5,449.7,872.2,344.4z M458.4,546.3
			c-2.8,8.8,2.1,18.2,10.9,20.9c4.2,1.3,8.8,0.9,12.7-1.1l290.9-151.3c1.3,2.8,2.7,5.5,3.9,8.3c1.7,4,3.3,8.1,5,12.2
			c2.2,5.6,4.1,11.3,5.9,17c1.4,4.3,2.7,8.7,3.9,13.1c1.5,5.6,2.8,11.2,4,16.9c1,4.5,2,9.1,2.8,13.6c1,5.7,1.7,11.3,2.3,17
			c0.6,4.6,1.2,9.2,1.5,13.8c0.4,5.8,0.5,11.7,0.7,17.5c0.1,4.5,0.3,9,0.2,13.4c-0.1,6.2-0.7,12.4-1.1,18.6c-0.3,4.1-0.5,8.3-1,12.4
			c-0.8,7.1-2.1,14.1-3.3,21.2c-0.6,3.2-0.9,6.5-1.7,9.7c-2.2,10.3-4.9,20.6-8.1,30.7c-26,83.3-84.3,152.7-161.9,192.8
			c-6.8,3.6-13.9,6.6-20.9,9.6c-166.3,72.5-359.9-3.5-432.4-169.8c-63.3-145.1-14.1-314.7,117-403.4c10.5-7.2,21.5-13.8,32.8-19.7
			c8.8-4.6,17.9-8.7,27-12.4c1.6-0.7,3.2-1.3,4.8-2c8.9-3.5,17.8-6.6,26.8-9.3c1.5-0.5,3.1-0.9,4.7-1.3c8.8-2.5,17.7-4.7,26.6-6.4
			c0.7-0.1,1.4-0.3,2.1-0.4c9.3-1.7,18.8-3,28.2-3.9l5.5-0.5c9.3-0.7,18.7-1.1,28.1-1.1c1.5,0,2.9,0.1,4.3,0.1
			c8.4,0.2,16.9,0.7,25.3,1.5c1.9,0.2,3.9,0.3,5.8,0.6c9.3,1.1,18.6,2.6,27.9,4.5c2,0.4,3.9,0.9,5.9,1.3c3.9,0.9,7.7,2,11.5,3
			L458.4,546.3z M870.3,676.2c-69,218.7-302.3,340-521,270.9C244.4,914,156.9,840.6,106.1,743C-0.1,540,78.4,289.3,281.4,183.1
			c92.9-48.6,200.7-60.2,301.8-32.5l-15.9,50.7c-3.4-0.9-6.9-1.5-10.4-2.3c-5-1.2-10.1-2.3-15.2-3.3c-6.2-1.2-12.4-2.1-18.7-3
			c-5.3-0.7-10.5-1.5-15.8-1.9c-6.2-0.6-12.3-0.9-18.5-1.1c-5.3-0.2-10.6-0.5-15.8-0.5c-6.2,0-12.4,0.4-18.6,0.7
			c-5.2,0.3-10.4,0.5-15.6,1c-6.3,0.6-12.6,1.7-18.9,2.6c-5,0.8-10,1.4-14.9,2.3c-6.5,1.3-13,3-19.5,4.7c-4.6,1.2-9.3,2.2-13.9,3.5
			c-6.9,2.1-13.7,4.6-20.6,7.1c-4,1.5-8.1,2.7-12.1,4.3c-8.3,3.3-16.4,7.3-24.5,11.3c-2.4,1.2-4.8,2.1-7.1,3.3
			c-9.7,5-19,10.6-28.1,16.4C121.5,347.2,66.7,551.5,152.7,717.7c0.1,0.3,0.2,0.5,0.4,0.8c0.3,0.6,0.8,1.2,1.1,1.8
			c44.2,84.5,120.2,148,211.3,176.4c0.5,0.2,1,0.3,1.5,0.4c9.9,3.1,19.8,5.6,29.8,7.8c3.6,0.8,7.2,1.4,10.8,2.1
			c7.1,1.3,14.2,2.5,21.3,3.3c4,0.5,7.9,1,11.9,1.4c7.4,0.7,14.9,1.1,22.3,1.4c3.3,0.1,6.7,0.4,9.9,0.4c0.6,0,1.2,0,1.8,0
			c9.1,0,18.2-0.5,27.3-1.2c2.8-0.2,5.5-0.5,8.2-0.8c9.8-1,19.6-2.2,29.3-4c1.7-0.3,3.3-0.7,5-1.1c8.8-1.7,17.6-3.9,26.2-6.3
			c2.3-0.6,4.6-1.2,6.8-1.9c9.6-2.9,19.1-6.2,28.5-9.9c2.1-0.8,4.2-1.7,6.3-2.6c9.8-4.1,19.6-8.5,29.2-13.3
			c85.3-44.1,149.5-120.5,178.1-212.2c0.5-1.6,0.8-3.2,1.3-4.7c2.9-9.7,5.6-19.3,7.6-29.1c0.8-3.8,1.3-7.7,2-11.5
			c1.4-7.6,2.8-15.1,3.7-22.7c0.5-4.3,0.6-8.7,1-13c0.5-7.1,1.2-14.2,1.3-21.3c0.1-4.6-0.2-9.2-0.2-13.8c-0.1-6.8-0.2-13.6-0.8-20.5
			c-0.4-4.8-1-9.5-1.6-14.3c-0.8-6.6-1.6-13.1-2.7-19.6c-0.9-5-2-9.8-3.1-14.8c-1.4-6.2-2.8-12.4-4.5-18.6c-1.4-5-3-10.1-4.6-15.2
			c-1.9-5.8-3.8-11.7-6-17.4c-2-5.2-4.2-10.4-6.4-15.6c-1.3-3-2.3-6-3.7-8.9l47.1-24.5C894.8,469,902,576.8,870.3,676.2z"/>
		<path class="st0" d="M975.2,222.7C921,116.4,826.4,36.4,712.6,0.8c-8.8-2.8-18.2,2.1-20.9,10.9l-26.2,83.1l-105,332.8
			c-2,6.4,0,13.5,5.2,17.8c5.2,4.3,12.5,5.1,18.5,2l307.2-161.9l76.8-40.5C976.2,240.8,979.3,230.8,975.2,222.7z M701.5,165.6
			c13.8,0,25,11.2,25,25c0,13.8-11.2,25-25,25c-13.8,0-25-11.2-25-25C676.5,176.8,687.7,165.6,701.5,165.6z M604.5,398.9l22.3-70.8
			c1.2,18.4,11.1,35.1,26.5,45.1L604.5,398.9z M684.8,349.2c-13.8,0-25-11.2-25-25s11.2-25,25-25c13.8,0,25,11.2,25,25
			C709.9,338,698.6,349.2,684.8,349.2z M743.2,325.9c0-0.6,0.2-1.2,0.2-1.8c0.1-32.1-25.8-58.3-57.9-58.4
			c-17.8-0.1-34.7,8-45.8,21.9l18.2-58.4c21.3,24.3,58.2,26.8,82.6,5.6c24.3-21.3,26.8-58.2,5.6-82.6c-14.4-16.5-36.8-23.5-58-18.3
			l3.9-12.4c2.8,1.1,5.7,2,8.5,3.2c3.8,1.6,7.7,3.1,11.4,4.8c5.7,2.6,11.3,5.4,16.9,8.2c3.5,1.8,7,3.6,10.4,5.5
			c5.9,3.3,11.7,7,17.3,10.7c2.8,1.8,5.6,3.5,8.3,5.4c8,5.6,15.8,11.5,23.4,17.8l0.6,0.5c7.7,6.5,15,13.3,22,20.6
			c2.3,2.3,4.3,4.8,6.5,7.2c4.7,5,9.2,10.2,13.6,15.5c2.4,3,4.7,6.1,7.1,9.2c3.8,5,7.5,10.2,11.1,15.5c2.3,3.3,4.5,6.9,6.7,10.4
			c1.7,2.7,3.1,5.4,4.7,8.1L743.2,325.9z M890.4,248.3c-1.8-3.2-4-6.2-5.9-9.4c-2.4-4-4.9-7.9-7.4-11.7c-3.9-5.8-7.9-11.4-12.1-16.9
			c-2.6-3.5-5.2-7-7.9-10.4c-4.8-5.9-9.8-11.4-14.9-17c-2.5-2.7-4.8-5.5-7.4-8.1c-7.7-7.9-15.7-15.4-24.1-22.6l-0.3-0.2
			c-8.5-7.2-17.4-13.9-26.5-20.3c-3-2.1-6.1-3.9-9.2-5.9c-6.3-4.1-12.7-8.2-19.2-11.9c-3.8-2.1-7.7-4-11.5-6
			c-6.2-3.2-12.3-6.3-18.7-9.1c-4.2-1.9-8.4-3.6-12.7-5.3c-3.5-1.4-6.8-3-10.3-4.3l16.2-51.5c93.1,33.4,171,99.3,219.3,185.6
			L890.4,248.3z"/>
		<path class="st0" d="M401.2,265.7c-32.3,0-58.4,26.1-58.4,58.4c0,32.3,26.1,58.4,58.4,58.4c32.3,0,58.4-26.1,58.4-58.4
			C459.6,291.9,433.4,265.7,401.2,265.7z M401.2,349.2c-13.8,0-25-11.2-25-25c0-13.8,11.2-25,25-25c13.8,0,25,11.2,25,25
			C426.2,338,415,349.2,401.2,349.2z"/>
		<path class="st0" d="M234.3,415.9c-32.3,0-58.4,26.1-58.4,58.4c0,32.3,26.1,58.4,58.4,58.4s58.4-26.1,58.4-58.4
			C292.7,442.1,266.6,415.9,234.3,415.9z M234.3,499.3c-13.8,0-25-11.2-25-25c0-13.8,11.2-25,25-25s25,11.2,25,25
			C259.3,488.1,248.1,499.3,234.3,499.3z"/>
		<path class="st0" d="M401.2,415.9c-32.3,0-58.4,26.1-58.4,58.4c0,32.3,26.1,58.4,58.4,58.4c32.3,0,58.4-26.1,58.4-58.4
			C459.6,442.1,433.4,415.9,401.2,415.9z M401.2,499.3c-13.8,0-25-11.2-25-25c0-13.8,11.2-25,25-25c13.8,0,25,11.2,25,25
			C426.2,488.1,415,499.3,401.2,499.3z"/>
		<path class="st0" d="M568,716.3c-32.3,0-58.4,26.1-58.4,58.4c0,32.3,26.1,58.4,58.4,58.4c32.3,0,58.4-26.1,58.4-58.4
			C626.4,742.4,600.3,716.3,568,716.3z M568,799.7c-13.8,0-25-11.2-25-25c0-13.8,11.2-25,25-25c13.8,0,25,11.2,25,25
			C593.1,788.5,581.8,799.7,568,799.7z"/>
		<path class="st0" d="M684.8,599.5c-32.3,0-58.4,26.1-58.4,58.4c0,32.3,26.1,58.4,58.4,58.4c32.3,0,58.4-26.1,58.4-58.4
			C743.2,625.6,717.1,599.5,684.8,599.5z M684.8,682.9c-13.8,0-25-11.2-25-25c0-13.8,11.2-25,25-25c13.8,0,25,11.2,25,25
			C709.9,671.7,698.6,682.9,684.8,682.9z"/>
		<path class="st0" d="M734.9,466c-32.3,0-58.4,26.1-58.4,58.4c0,32.3,26.1,58.4,58.4,58.4c32.3,0,58.4-26.1,58.4-58.4
			C793.3,492.1,767.1,466,734.9,466z M734.9,549.4c-13.8,0-25-11.2-25-25c0-13.8,11.2-25,25-25c13.8,0,25,11.2,25,25
			C759.9,538.2,748.7,549.4,734.9,549.4z"/>
		<path class="st0" d="M251,582.8c-32.3,0-58.4,26.1-58.4,58.4c0,32.3,26.1,58.4,58.4,58.4c32.3,0,58.4-26.1,58.4-58.4
			C309.4,608.9,283.2,582.8,251,582.8z M251,666.2c-13.8,0-25-11.2-25-25c0-13.8,11.2-25,25-25s25,11.2,25,25
			C276,655,264.8,666.2,251,666.2z"/>
		<path class="st0" d="M518,566.1c-32.3,0-58.4,26.1-58.4,58.4c0,32.3,26.1,58.4,58.4,58.4s58.4-26.1,58.4-58.4
			C576.4,592.2,550.2,566.1,518,566.1z M518,649.5c-13.8,0-25-11.2-25-25c0-13.8,11.2-25,25-25c13.8,0,25,11.2,25,25
			C543,638.3,531.8,649.5,518,649.5z"/>
		<path class="st0" d="M367.8,716.3c-32.3,0-58.4,26.1-58.4,58.4c0,32.3,26.1,58.4,58.4,58.4s58.4-26.1,58.4-58.4
			C426.2,742.4,400,716.3,367.8,716.3z M367.8,799.7c-13.8,0-25-11.2-25-25c0-13.8,11.2-25,25-25c13.8,0,25,11.2,25,25
			C392.8,788.5,381.6,799.7,367.8,799.7z"/>
		<path class="st0" d="M276,349.2c-9.2,0-16.7,7.5-16.7,16.7c0,9.2,7.5,16.7,16.7,16.7s16.7,7.5,16.7,16.7c0,9.2,7.5,16.7,16.7,16.7
			c9.2,0,16.7-7.5,16.7-16.7C326.1,371.6,303.7,349.2,276,349.2z"/>
		<path class="st0" d="M492.9,699.6c-27.6,0-50.1,22.4-50.1,50.1c0,9.2,7.5,16.7,16.7,16.7c9.2,0,16.7-7.5,16.7-16.7
			c0-9.2,7.5-16.7,16.7-16.7c9.2,0,16.7-7.5,16.7-16.7C509.6,707,502.2,699.6,492.9,699.6z"/>
		<path class="st0" d="M528.3,253.9c-6.5-6.5-17.1-6.5-23.6,0c-6.6,6.3-17,6.3-23.6,0c-6.5-6.5-17.1-6.5-23.6,0
			c-6.5,6.5-6.5,17.1,0,23.6c19.5,19.6,51.2,19.6,70.8,0c0,0,0,0,0,0C534.9,271,534.9,260.5,528.3,253.9z"/>
		<path class="st0" d="M643.1,532.7c-27.6,0-50.1,22.4-50.1,50.1c0,9.2,7.5,16.7,16.7,16.7c9.2,0,16.7-7.5,16.7-16.7
			c0-9.2,7.5-16.7,16.7-16.7c9.2,0,16.7-7.5,16.7-16.7C659.8,540.2,652.3,532.7,643.1,532.7z"/>
		<path class="st0" d="M388,564.1C387.9,564.1,387.9,564,388,564.1c-6.5-6.5-17.1-6.5-23.6,0c-6.5,6.5-6.5,17.1,0,23.6
			c6.5,6.5,6.5,17.1,0,23.6c-6.5,6.5-6.5,17.1,0,23.6c0,0,0,0,0,0c6.5,6.5,17.1,6.5,23.6,0c0,0,0,0,0,0
			C407.5,615.3,407.5,583.6,388,564.1z"/>
		<path class="st0" d="M793.3,215.7c-9.2,0-16.7,7.5-16.7,16.7c0,9.2-7.5,16.7-16.7,16.7c-9.2,0-16.7,7.5-16.7,16.7
			c0,9.2,7.5,16.7,16.7,16.7c27.6,0,50.1-22.4,50.1-50.1C810,223.2,802.5,215.7,793.3,215.7z"/>
	</g>
</g>
</svg>
