<?xml version="1.0" encoding="utf-8"?>
<!-- Generator: Adobe Illustrator 27.0.0, SVG Export Plug-In . SVG Version: 6.00 Build 0)  -->
<svg version="1.1" id="Layer_1" xmlns="http://www.w3.org/2000/svg" xmlns:xlink="http://www.w3.org/1999/xlink" x="0px" y="0px"
	 viewBox="0 0 1000 1000" style="enable-background:new 0 0 1000 1000;" xml:space="preserve">
<style type="text/css">
	.st0{fill:#F15959;}
</style>
<path class="st0" d="M708.1,337l-10.7-35.2c-13.6-40-57-61.4-97-47.8c-22.5,7.6-40.2,25.3-47.8,47.8L541.9,337
	c-9,29.7-10.9,61.1-5.5,91.7c4.9,25.7,21.2,47.8,44.4,60.1l-12,267.9c-1.6,15,3.2,29.9,13.3,41c21.7,23.7,58.5,25.4,82.2,3.7
	c1.3-1.2,2.5-2.4,3.7-3.7c9.9-10.8,14.7-25.3,13.3-39.9l-12-269c23.1-12.2,39.4-34.3,44.3-60C719,398.1,717.1,366.7,708.1,337z
	 M680.8,422.9c-3.6,18.5-16.8,33.7-34.6,39.8c-6.8,2.5-11.1,9.1-10.8,16.4l12.7,281.4c0.6,5.5-1.2,11-5,15.1
	c-10,9.9-26.2,9.9-36.2,0c-4-4.4-5.7-10.3-4.9-16.2l12.6-280.2c0.3-7.2-4-13.8-10.8-16.4c-17.8-6.2-31-21.3-34.6-39.8
	c-4.5-25.4-2.9-51.4,4.6-76.1l10.7-35.2c8.3-22.4,33.1-33.8,55.5-25.5c11.8,4.4,21.2,13.7,25.5,25.5l10.7,35.2
	C683.7,371.5,685.3,397.5,680.8,422.9z"/>
<path class="st0" d="M450,250c-9.2,0-16.7,7.5-16.7,16.7v143.1l-45.1,45.1c-3.3,3.3-5.1,7.9-4.9,12.6l14.6,291.7
	c0.3,6.3-1.9,12.4-6.3,17c-9.1,9.2-24,9.3-33.2,0.1c0,0-0.1-0.1-0.1-0.1c-4.4-4.5-6.6-10.7-6.3-17l14.7-291.7
	c0.2-4.7-1.5-9.3-4.9-12.6l-45.1-45.1V266.7c0-9.2-7.5-16.7-16.7-16.7c-9.2,0-16.7,7.5-16.7,16.7v150c0,4.4,1.8,8.7,4.9,11.8
	l44.8,44.8l-14.2,284.3c-1.5,31.1,22.4,57.5,53.5,59c31.1,1.5,57.5-22.4,59-53.5c0.1-1.8,0.1-3.7,0-5.5L417,473.2l44.8-44.8
	c3.1-3.1,4.9-7.4,4.9-11.8v-150C466.7,257.5,459.2,250,450,250z"/>
<path class="st0" d="M350,250c-9.2,0-16.7,7.5-16.7,16.7V400c0,9.2,7.5,16.7,16.7,16.7s16.7-7.5,16.7-16.7V266.7
	C366.7,257.5,359.2,250,350,250z"/>
<path class="st0" d="M400,250c-9.2,0-16.7,7.5-16.7,16.7V400c0,9.2,7.5,16.7,16.7,16.7s16.7-7.5,16.7-16.7V266.7
	C416.7,257.5,409.2,250,400,250z"/>
<path class="st0" d="M500,0C223.9,0,0,223.9,0,500s223.9,500,500,500s500-223.9,500-500C999.7,224,776,0.3,500,0z M500,966.7
	C242.3,966.7,33.3,757.7,33.3,500S242.3,33.3,500,33.3S966.7,242.3,966.7,500C966.4,757.6,757.6,966.4,500,966.7z"/>
<path class="st0" d="M554.1,812.9c-0.9-9.2-9-15.9-18.2-15c-0.2,0-0.4,0-0.6,0.1l0.1,0c-23.5,2.7-47.2,2.7-70.6,0
	c-9.1-1.1-17.4,5.5-18.5,14.6c-1.1,9.1,5.5,17.4,14.6,18.5c26,3,52.3,3,78.3,0C548.3,830.2,555,822,554.1,812.9z"/>
<path class="st0" d="M755,285.2c-5.9-7.1-16.4-8-23.5-2.1c0,0,0,0-0.1,0.1c-7,5.9-7.9,16.4-2,23.5
	c100.5,119.3,92.8,295.7-17.7,405.8c-6.5,6.5-6.5,17.1,0,23.6c6.5,6.5,17.1,6.5,23.6,0C858.1,613.8,866.6,417.8,755,285.2z"/>
<path class="st0" d="M388.3,220.3C388.3,220.3,388.3,220.3,388.3,220.3C388.3,220.3,388.2,220.3,388.3,220.3L388.3,220.3z"/>
<path class="st0" d="M578.6,176c-65.1-15.6-133.4-11.4-196.2,12.1c-8.6,3.2-13,12.9-9.7,21.5c2.4,6.5,8.6,10.8,15.6,10.8
	c2,0,4-0.4,5.8-1.1c56.5-21.1,118-24.9,176.7-10.8c8.9,2.2,18-3.3,20.1-12.3C593.1,187.2,587.6,178.1,578.6,176z"/>
<path class="st0" d="M287.5,711.7C231.3,655.6,199.8,579.4,200,500c-0.2-63.4,19.9-125.3,57.4-176.5c5.5-7.4,4.1-17.8-3.3-23.3
	c-7.4-5.5-17.8-4-23.3,3.3c-0.1,0.1-0.2,0.3-0.3,0.4c-96.4,132.5-82.2,315.3,33.4,431.4c6.5,6.5,17.1,6.5,23.6,0
	C294,728.8,294,718.2,287.5,711.7z"/>
</svg>
