<?xml version="1.0" encoding="UTF-8"?>
<svg id="Layer_2" data-name="Layer 2" xmlns="http://www.w3.org/2000/svg" viewBox="0 0 112.77 74.89">
  <defs>
    <style>
      .cls-1 {
        fill: #a6a6a6;
      }

      .cls-2 {
        fill: none;
      }

      .cls-3 {
        fill: #ff5757;
      }
    </style>
  </defs>
  <g id="Layer_1-2" data-name="Layer 1">
    <g>
      <path class="cls-2" d="M57.35,32.1c-2.52,0-4.79,.99-6.81,2.96-2.03,1.97-3.04,4.54-3.04,7.71s1.02,5.72,3.06,7.71c2.05,1.97,4.34,2.96,6.85,2.96s4.8-.96,6.83-2.88c2.03-1.93,3.04-4.51,3.04-7.75s-1.03-5.82-3.08-7.77c-2.04-1.96-4.33-2.94-6.85-2.94Z"/>
      <path class="cls-3" d="M94.81,69.89H21.78c-1.38,0-2.5,1.12-2.5,2.5s1.12,2.5,2.5,2.5H94.81c1.38,0,2.5-1.12,2.5-2.5s-1.12-2.5-2.5-2.5Z"/>
      <path class="cls-1" d="M10.81,30.49l2.49-2.98c1.08-1.3,1.64-2.93,1.58-4.6l-1.59-17.47c-.02-.44-.39-.8-.83-.8s-.79,.35-.77,.8l.78,15.53c.02,.61-.44,1.11-1.02,1.11s-1.06-.5-1.07-1.11l-.46-15.53c0-.44-.36-.8-.81-.8s-.79,.35-.79,.8l.16,15.53c0,.61-.46,1.11-1.04,1.11s-1.05-.5-1.04-1.11l.16-15.53c0-.44-.36-.8-.8-.8s-.8,.35-.81,.8l-.46,15.53c-.01,.61-.49,1.11-1.07,1.11s-1.04-.5-1.02-1.11l.78-15.53c.02-.44-.33-.8-.77-.8s-.81,.35-.83,.8L0,22.91c-.06,1.67,.51,3.3,1.58,4.6l2.49,2.98c.54,1,.81,2.1,.81,3.22,0,0,1.16,16.68-1.04,32.79,0,0-1.7,8.08,3.58,8.08s3.58-8.08,3.58-8.08c-2.19-16.1-1.03-32.79-1.03-32.79,0-1.12,.28-2.23,.81-3.22Z"/>
      <path class="cls-3" d="M23.06,62.29c1.11,0,2.01-.1,2.71-.31,.69-.22,1.21-.66,1.54-1.31,.33-.67,.5-1.67,.5-3.02v-14.29l3.42,.21c1.43,0,2.51-.21,3.25-.65,.5-.28,.86-.74,1.1-1.4,.23-.67,.35-1.55,.35-2.65s-.11-2-.33-2.67c-.42-1.36-1.85-2.04-4.31-2.04l-3.48,.33v-2.94c0-.89,.66-1.33,1.98-1.33h1.5c1.07-.07,1.85-.39,2.35-.96,.59-.75,.9-1.98,.9-3.69,0-2.28-.48-3.65-1.44-4.1-.53-.28-1-.44-1.42-.5-.41-.05-1.02-.08-1.83-.08-3.7,0-6.52,1.11-8.48,3.33-1.96,2.22-2.94,4.7-2.94,7.44v2.83h-1.77c-2.1,0-3.15,1.46-3.15,4.38,0,1.92,.34,3.22,1.02,3.9,.39,.35,1.05,.56,1.98,.62h1.92v14.15c0,.82,.03,1.45,.08,1.88,.05,.42,.22,.89,.5,1.4,.29,.52,.76,.89,1.42,1.12,.65,.24,1.53,.35,2.62,.35Z"/>
      <path class="cls-3" d="M57.21,22.64c-2.46,0-4.84,.5-7.15,1.5-2.31,1-4.35,2.38-6.12,4.12-1.78,1.74-3.2,3.9-4.27,6.48-1.07,2.57-1.6,5.33-1.6,8.27,0,5.42,1.89,10.08,5.67,14,3.79,3.91,8.39,5.85,13.79,5.85s9.97-1.98,13.67-5.94c3.69-3.97,5.54-8.78,5.54-14.42s-1.94-10.36-5.81-14.17c-3.88-3.8-8.45-5.71-13.71-5.71Zm7.04,27.92c-2.03,1.92-4.31,2.88-6.83,2.88s-4.8-.98-6.85-2.96c-2.04-1.98-3.06-4.55-3.06-7.71s1.01-5.73,3.04-7.71c2.03-1.97,4.3-2.96,6.81-2.96s4.81,.98,6.85,2.94c2.05,1.95,3.08,4.54,3.08,7.77s-1.02,5.82-3.04,7.75Z"/>
      <path class="cls-3" d="M96.62,34.17l-3.48,.33v-2.94c0-.89,.66-1.33,1.98-1.33h1.5c1.07-.07,1.85-.39,2.35-.96,.59-.75,.9-1.98,.9-3.69,0-2.28-.48-3.65-1.44-4.1-.53-.28-1-.44-1.42-.5-.41-.05-1.02-.08-1.83-.08-3.7,0-6.52,1.11-8.48,3.33-1.96,2.22-2.94,4.7-2.94,7.44v2.83h-1.77c-2.1,0-3.15,1.46-3.15,4.38,0,1.92,.34,3.22,1.02,3.9,.39,.35,1.05,.56,1.98,.62h1.92v14.15c0,.82,.03,1.45,.08,1.88,.05,.42,.22,.89,.5,1.4,.29,.52,.76,.89,1.42,1.12,.65,.24,1.53,.35,2.62,.35s2.01-.1,2.71-.31c.69-.22,1.21-.66,1.54-1.31,.33-.67,.5-1.67,.5-3.02v-14.29l3.42,.21c1.43,0,2.51-.21,3.25-.65,.5-.28,.86-.74,1.1-1.4,.23-.67,.35-1.55,.35-2.65s-.11-2-.33-2.67c-.42-1.36-1.85-2.04-4.31-2.04Z"/>
      <path class="cls-1" d="M111.1,41.27V5.76c0-.52-.38-.93-.85-.93-1.12,0-6.46,10.05-6.57,25.83v.61c.06,6.44,4.81,8.01,4.9,11.46-.84,7.97-4.64,30.73,1.13,31.66h.02c5.95-.4,1.39-26.86,1.39-33.1Z"/>
      <path class="cls-1" d="M27.86,13.08s27.84-1.45,32.48-1.79c5.02-.38,6.84-.42,6.84-.42,0,0,2.79-.19,3.9,1.65,1.55,2.54,3.6,7.77,12.6,6.93,8.68-.8,15.52-4.77,15.8-9.19,0,.06,0,.11,0,.17v-.14c0-.08,0-.17,0-.25,0-.09,0-.18,0-.27,0-.08,0-.15,0-.23s0-.16,0-.24c0-.07,0-.14,0-.21,0,.06-.01,.12-.01,.18-.32-4.18-7.14-8.43-15.79-9.18-9.01-.78-10.9,4.24-12.6,6.51-1.26,1.68-3.9,1.52-3.9,1.52,0,0-2.18-.11-6.82-.48-4.44-.34-27.69-2.33-31.91-2.33-3.96,0-7.66-.46-7.94,3.31,0-.05-.01-.08-.01-.13,0,.12,0,.24,0,.38,0,.17-.01,.34,0,.53v.02c0,.09,0,.19,0,.29,0-.07,.01-.14,.01-.21,.29,4.49,7.35,3.59,7.35,3.59Z"/>
    </g>
  </g>
</svg>